<?xml version="1.0" standalone="no"?>
<!DOCTYPE svg PUBLIC "-//W3C//DTD SVG 20010904//EN"
 "http://www.w3.org/TR/2001/REC-SVG-20010904/DTD/svg10.dtd">
<svg version="1.0" xmlns="http://www.w3.org/2000/svg"
 width="1044.000000pt" height="1044.000000pt" viewBox="0 0 1044.000000 1044.000000"
 preserveAspectRatio="xMidYMid meet">
<metadata>
Created by potrace 1.14, written by Peter Selinger 2001-2017
</metadata>
<g transform="translate(0.000000,1044.000000) scale(0.100000,-0.100000)"
fill="#000000" stroke="none">
<path d="M5137 9146 c-20 -7 -47 -27 -60 -42 -31 -41 -124 -130 -163 -156 -37
-25 -42 -34 -50 -87 -8 -60 -10 -62 -54 -58 -37 4 -41 2 -39 -17 5 -34 -19
-65 -123 -167 -70 -69 -102 -109 -113 -139 -8 -23 -31 -59 -51 -79 -58 -58
-152 -206 -159 -251 -6 -38 -42 -114 -68 -142 -48 -55 -54 -62 -75 -104 -16
-32 -37 -111 -33 -122 1 -1 -10 -24 -23 -50 -77 -153 -209 -509 -220 -598 -4
-27 -9 -56 -11 -64 -2 -8 -6 -32 -9 -53 -3 -20 -15 -70 -27 -110 -11 -39 -25
-91 -31 -115 -7 -23 -15 -41 -19 -40 -4 2 -40 46 -81 99 -83 110 -110 141
-251 293 -185 199 -291 301 -385 370 -104 77 -113 82 -269 161 -85 42 -113 61
-113 75 0 23 -26 49 -77 75 -21 10 -45 25 -53 31 -8 7 -18 13 -23 13 -4 1 -37
14 -73 31 -37 16 -71 30 -77 30 -5 0 -40 17 -76 38 -80 46 -144 64 -222 61
-73 -3 -83 -9 -86 -56 -4 -68 -3 -297 2 -348 7 -79 21 -187 29 -221 2 -12 6
-66 7 -120 2 -54 7 -117 12 -139 6 -22 11 -89 12 -150 1 -60 5 -117 8 -125 13
-33 32 -112 42 -183 11 -73 35 -100 122 -143 43 -22 80 -42 81 -46 2 -5 9 -8
15 -8 15 0 268 -128 288 -146 8 -8 20 -14 26 -14 6 0 13 -4 15 -8 1 -5 59 -46
128 -92 69 -46 127 -88 128 -92 2 -4 10 -8 17 -8 8 0 20 -6 27 -12 7 -7 29
-22 48 -32 49 -28 36 -16 315 -281 81 -77 161 -153 179 -170 29 -27 80 -85
116 -131 106 -135 174 -214 180 -207 5 4 11 105 14 223 6 214 9 277 20 335 3
17 8 53 11 80 17 130 83 334 165 512 11 24 20 47 20 53 0 5 9 25 20 45 11 19
19 36 19 38 -3 13 110 249 124 258 5 3 8 10 8 15 0 5 24 52 54 106 30 53 55
98 55 101 0 3 19 38 43 79 24 40 59 100 77 133 50 90 54 95 70 94 33 -3 57 15
90 69 19 31 98 121 175 198 77 78 165 168 195 200 30 33 83 85 116 117 55 53
66 59 110 62 44 2 52 -1 85 -34 21 -20 113 -109 206 -198 92 -88 212 -203 265
-255 71 -68 99 -102 104 -126 6 -28 10 -32 39 -32 29 0 33 -4 38 -33 10 -60
50 -131 109 -191 58 -57 89 -106 101 -156 4 -14 17 -36 29 -50 34 -37 73 -91
89 -125 9 -16 20 -39 26 -50 6 -11 21 -41 32 -67 12 -27 29 -67 40 -90 10 -24
29 -70 41 -103 12 -33 28 -73 35 -90 7 -16 19 -50 26 -75 7 -25 14 -49 15 -55
20 -71 64 -254 69 -283 3 -21 7 -49 10 -62 7 -38 17 -102 20 -135 2 -16 6 -64
10 -105 11 -113 13 -144 14 -284 l1 -129 21 24 c114 132 253 281 400 428 215
216 277 272 352 321 37 24 67 48 67 52 0 4 6 8 13 8 7 0 18 9 25 20 7 11 21
20 32 20 10 0 23 6 27 13 4 7 33 28 63 47 30 19 57 37 60 40 11 12 161 100
170 100 6 0 10 4 10 8 0 5 19 17 41 28 23 10 47 23 53 29 6 5 27 18 46 27 19
10 62 33 95 52 33 19 88 48 122 65 55 27 83 54 89 86 1 6 9 37 17 70 9 33 19
78 22 100 4 22 9 51 11 65 3 14 6 68 9 120 2 52 8 120 14 150 17 88 21 113 26
155 3 22 7 51 10 65 13 70 23 360 13 366 -5 3 -4 13 2 23 5 10 7 20 5 23 -3 3
-8 43 -11 90 -3 48 -7 94 -9 105 -2 10 -4 21 -4 25 -1 6 -76 3 -138 -7 -18 -3
-50 -8 -70 -11 -69 -10 -115 -25 -156 -51 -55 -35 -203 -108 -250 -122 -39
-13 -57 -35 -57 -70 0 -16 -7 -21 -27 -22 -46 -1 -76 -9 -103 -26 -26 -17
-201 -147 -233 -173 -124 -101 -188 -160 -327 -300 -170 -170 -200 -206 -246
-295 -65 -129 -82 -150 -136 -180 -24 -14 -27 -13 -43 11 -21 33 -26 55 -28
136 -2 53 -7 72 -24 90 -15 17 -22 37 -22 73 -2 78 -7 103 -47 225 -15 47 -28
87 -29 90 -1 3 -7 17 -13 33 -7 15 -17 39 -24 55 -6 15 -12 29 -12 32 -2 9
-78 154 -102 196 -14 23 -22 48 -19 57 9 23 -13 93 -39 124 -13 15 -26 46 -29
68 -7 48 -16 75 -27 75 -15 0 -110 174 -110 201 0 6 -22 36 -48 67 -56 65 -98
127 -134 194 -13 25 -49 70 -80 100 -53 52 -138 157 -138 172 0 10 -31 41 -41
41 -4 0 -10 3 -14 7 -4 3 -17 4 -30 2 -20 -3 -25 1 -30 28 -11 50 -45 111 -73
133 -26 20 -94 90 -149 153 -26 30 -33 33 -103 37 -51 4 -87 1 -113 -9z"/>
<path d="M5165 7631 c-44 -25 -144 -125 -169 -168 -10 -18 -34 -49 -58 -75
-10 -10 -18 -22 -18 -28 0 -5 -4 -10 -10 -10 -5 0 -10 -7 -10 -15 0 -8 -4 -15
-10 -15 -5 0 -10 -7 -10 -15 0 -8 -4 -15 -8 -15 -5 0 -18 -18 -30 -39 -13 -22
-31 -43 -41 -46 -18 -5 -90 -72 -121 -111 -36 -46 -69 -104 -94 -168 -34 -85
-45 -104 -66 -109 -9 -2 -25 -22 -35 -43 -10 -21 -29 -61 -42 -89 -13 -27 -40
-90 -59 -140 -20 -49 -49 -116 -66 -148 -29 -58 -95 -224 -104 -259 -2 -10 -6
-26 -9 -35 -15 -57 -34 -143 -40 -178 -10 -59 -21 -163 -31 -290 -8 -89 -7
-388 0 -480 9 -114 23 -240 26 -240 1 0 3 -14 4 -31 10 -93 170 -450 281 -624
30 -47 58 -94 63 -105 6 -12 17 -27 26 -34 9 -7 16 -19 16 -26 0 -8 3 -15 8
-17 4 -1 46 -55 94 -118 48 -63 123 -153 167 -200 44 -47 92 -106 106 -132
l26 -48 -28 -52 c-41 -77 -135 -168 -215 -207 -37 -18 -73 -31 -80 -28 -7 2
-16 5 -20 6 -4 1 -27 9 -50 17 -24 9 -51 17 -60 19 -10 2 -32 10 -50 18 -138
60 -195 86 -278 125 -52 24 -104 48 -115 53 -11 4 -47 20 -80 35 -33 14 -96
42 -140 61 -44 20 -86 40 -92 45 -7 6 -13 7 -13 2 0 -5 -4 -4 -8 1 -12 17
-338 175 -360 175 -12 0 -38 10 -59 21 -141 80 -445 219 -478 219 -8 0 -15 5
-15 11 0 5 -4 8 -8 5 -5 -3 -20 1 -35 9 -15 8 -27 11 -27 7 0 -3 -5 -1 -12 6
-7 7 -21 12 -33 12 -12 0 -25 4 -31 8 -5 5 -25 15 -44 22 -19 7 -48 19 -65 25
-132 55 -257 102 -295 110 -8 2 -60 15 -115 30 -112 29 -265 64 -309 70 -15 2
-35 6 -45 9 -9 3 -34 8 -56 11 -23 3 -52 8 -65 11 -14 3 -41 7 -60 9 -19 3
-45 7 -58 10 -13 3 -50 8 -83 10 -33 3 -74 8 -92 11 -18 3 -52 7 -77 9 -226
15 -315 18 -510 18 -247 -1 -339 -6 -535 -28 -27 -4 -68 -8 -90 -11 -110 -11
-131 -16 -148 -36 -9 -11 -17 -26 -17 -34 0 -13 49 -123 60 -134 5 -5 21 -32
45 -75 13 -25 65 -105 76 -119 5 -6 24 -30 41 -52 77 -97 107 -132 168 -195
36 -37 94 -100 130 -140 148 -165 276 -284 440 -409 47 -36 87 -68 88 -72 2
-5 8 -8 13 -8 6 0 34 -18 64 -40 30 -22 56 -40 59 -40 2 0 40 -22 83 -49 95
-59 342 -186 438 -226 39 -16 75 -32 80 -36 6 -4 30 -13 55 -20 25 -7 50 -14
55 -15 44 -14 191 -48 290 -68 188 -38 164 -34 300 -51 28 -3 60 -7 73 -10
122 -22 647 -22 759 -1 12 3 48 7 80 11 32 3 69 8 83 10 94 15 148 25 170 30
14 3 39 8 55 11 17 3 75 16 130 30 55 14 107 27 115 29 8 2 44 13 80 25 36 12
72 24 81 25 28 6 313 117 323 126 6 5 18 9 28 9 10 0 18 4 18 8 0 4 10 8 22 9
11 1 24 6 27 10 8 11 134 73 149 73 7 0 12 4 12 8 0 4 26 23 58 42 31 19 59
37 62 40 3 3 33 24 68 48 35 23 69 47 75 52 7 6 41 33 77 61 36 27 83 64 104
82 21 18 66 51 100 74 34 23 66 45 71 50 6 5 26 19 45 33 168 116 373 320 516
515 41 55 78 105 84 112 5 7 10 15 10 19 0 4 10 21 23 38 12 17 28 42 35 56
20 38 35 56 55 63 9 3 21 17 26 29 11 28 24 61 26 68 0 3 22 70 47 150 55 171
58 183 56 190 -1 3 4 14 10 26 6 11 13 32 16 45 3 13 17 68 31 122 23 89 26
120 30 340 2 133 5 244 6 247 1 3 0 10 -1 15 -1 6 -3 46 -4 90 -1 44 -5 86 -9
93 -5 6 -10 40 -12 75 -2 34 -6 76 -9 92 -6 32 -153 465 -179 528 -9 20 -14
37 -11 37 3 0 -5 15 -18 33 -13 17 -22 33 -20 35 4 4 -46 98 -82 155 -18 29
-54 92 -80 141 -42 79 -111 189 -141 222 -57 66 -100 120 -140 178 -26 38 -60
83 -76 100 -16 17 -29 34 -29 38 0 19 -270 278 -289 278 -3 0 -29 -13 -56 -29z"/>
<path d="M665 6608 c-10 -41 -12 -132 -3 -163 4 -16 11 -43 14 -60 5 -30 35
-158 52 -228 6 -21 26 -82 45 -135 42 -118 67 -200 67 -218 0 -8 4 -14 10 -14
5 0 9 -3 8 -7 -3 -18 51 -130 87 -178 12 -16 26 -41 30 -55 14 -47 108 -240
117 -240 4 0 8 -7 8 -15 0 -12 107 -186 141 -229 5 -6 30 -38 56 -71 26 -33
63 -77 83 -98 19 -22 35 -42 35 -46 0 -13 67 -91 87 -102 12 -6 35 -13 52 -15
17 -2 45 -7 61 -10 17 -3 44 -8 60 -10 17 -3 64 -14 105 -24 41 -10 82 -18 90
-18 8 0 38 -3 65 -6 44 -6 73 -10 190 -32 35 -6 231 -61 260 -73 11 -4 81 -27
155 -51 140 -44 158 -50 200 -68 14 -6 36 -14 50 -17 14 -4 39 -13 55 -20 17
-7 68 -27 115 -45 47 -17 94 -36 105 -41 11 -4 49 -20 85 -35 36 -14 79 -32
95 -39 128 -55 182 -81 193 -92 7 -7 19 -13 26 -13 7 0 64 -26 127 -58 124
-64 408 -211 504 -262 33 -17 71 -32 85 -34 14 -1 59 -19 100 -39 93 -44 111
-51 165 -62 17 -3 38 -8 48 -11 25 -8 21 16 -8 51 -29 36 -32 39 -69 90 -17
22 -33 42 -36 45 -3 3 -19 23 -35 45 -17 22 -32 42 -35 45 -3 3 -17 21 -30 40
-25 35 -54 71 -77 96 -7 7 -13 17 -13 22 0 5 -9 17 -19 26 -11 10 -79 138
-153 284 -140 281 -200 392 -267 490 -42 62 -173 226 -201 252 -9 8 -51 58
-94 110 -121 147 -176 203 -336 340 -35 30 -74 65 -87 77 -13 11 -43 36 -65
55 -74 59 -172 142 -193 163 -23 23 -71 53 -97 62 -10 3 -18 9 -18 14 0 5 -6
9 -14 9 -7 0 -19 7 -26 15 -7 8 -16 12 -21 9 -5 -3 -9 0 -9 5 0 6 -4 11 -10
11 -5 0 -39 18 -75 40 -36 22 -67 40 -70 40 -3 0 -37 21 -77 47 -67 42 -224
124 -323 168 -22 9 -53 23 -70 31 -137 60 -404 147 -545 178 -14 3 -47 11 -75
17 -27 7 -63 13 -80 15 -16 1 -30 3 -30 4 0 3 -93 19 -145 25 -14 2 -45 6 -70
9 -50 7 -119 13 -257 21 -90 6 -93 5 -98 -17z"/>
<path d="M9627 6623 c-1 0 -38 -4 -82 -8 -134 -11 -221 -22 -330 -41 -16 -3
-41 -7 -55 -9 -14 -2 -36 -6 -50 -9 -14 -3 -38 -8 -55 -11 -31 -6 -40 -9 -65
-17 -8 -3 -79 -26 -156 -51 -78 -26 -155 -52 -170 -58 -16 -7 -33 -13 -39 -14
-15 -4 -180 -73 -255 -107 -156 -71 -311 -150 -442 -226 -21 -12 -54 -31 -73
-42 -109 -62 -274 -180 -345 -247 -45 -43 -96 -83 -112 -88 -17 -6 -39 -22
-50 -35 -96 -118 -108 -133 -191 -224 -40 -43 -73 -82 -75 -87 -2 -5 -8 -9
-13 -9 -6 0 -52 -42 -102 -92 -99 -99 -183 -207 -318 -408 -46 -69 -86 -127
-89 -130 -10 -9 -62 -118 -64 -134 -1 -8 -5 -19 -9 -22 -4 -4 -7 -15 -7 -25 0
-9 -33 -73 -73 -140 -39 -68 -90 -160 -112 -204 -22 -44 -43 -81 -47 -83 -5
-2 -8 -8 -8 -13 0 -20 -252 -337 -305 -384 -6 -5 -17 -18 -25 -29 -14 -17 -13
-18 15 -12 17 3 39 8 50 10 42 8 133 47 178 76 26 16 52 30 57 30 6 0 10 5 10
10 0 6 5 10 12 10 6 0 30 9 52 19 23 11 88 41 146 66 58 26 130 58 160 72 90
42 145 66 150 68 3 1 23 10 45 20 22 10 42 19 45 20 3 1 32 14 65 29 33 15
105 48 160 73 98 44 121 54 278 127 43 20 80 36 82 36 2 0 39 16 82 36 77 36
135 57 348 129 61 20 117 39 125 42 8 3 20 7 25 9 71 17 174 48 189 56 13 7
16 7 12 -1 -5 -8 -1 -8 16 -1 24 10 101 31 128 35 8 2 47 10 85 18 39 8 86 18
105 21 19 3 62 10 94 16 32 5 63 7 67 4 5 -3 9 -1 9 4 0 5 6 9 13 9 65 2 147
16 183 32 24 11 69 46 101 79 68 70 69 71 130 159 26 38 50 70 53 73 14 13 60
87 60 97 0 6 4 13 8 15 11 4 82 123 82 137 0 6 4 11 9 11 5 0 13 10 16 22 4
11 20 43 36 70 16 27 29 55 29 63 0 8 5 15 10 15 6 0 10 9 10 20 0 11 5 20 10
20 6 0 10 8 10 18 0 9 15 34 34 55 19 21 33 46 32 55 -2 9 1 24 5 32 5 8 29
69 55 135 25 66 61 152 79 190 18 39 36 88 40 110 10 61 12 69 18 85 6 16 24
98 31 140 3 14 5 25 6 25 1 0 3 14 5 30 1 17 5 48 9 70 3 22 8 68 11 102 l5
63 -81 -3 c-44 -1 -81 -3 -82 -4z"/>
<path d="M9428 4504 c-2 -1 -50 -5 -108 -8 -58 -4 -125 -9 -150 -12 -25 -2
-63 -7 -85 -9 -58 -6 -135 -15 -170 -21 -16 -3 -43 -7 -60 -10 -16 -2 -41 -6
-55 -9 -14 -3 -38 -7 -55 -10 -16 -2 -82 -16 -145 -30 -63 -15 -122 -28 -130
-30 -8 -1 -35 -9 -60 -16 -25 -7 -49 -13 -55 -15 -5 -1 -37 -10 -70 -20 -33
-10 -63 -19 -67 -20 -5 -1 -9 -2 -10 -3 -2 -2 -14 -4 -27 -7 -14 -2 -30 -9
-38 -15 -7 -6 -13 -8 -13 -5 0 4 -9 2 -21 -4 -11 -7 -30 -13 -42 -16 -12 -2
-49 -15 -82 -28 -32 -14 -63 -22 -67 -20 -4 3 -8 1 -8 -4 0 -6 -12 -13 -27
-18 -36 -10 -32 -8 -75 -27 -21 -10 -40 -17 -43 -17 -7 0 -247 -93 -300 -116
-22 -10 -42 -18 -45 -19 -18 -5 -137 -60 -275 -125 -55 -26 -138 -66 -185 -88
-47 -22 -182 -84 -300 -137 -118 -53 -228 -104 -245 -113 -16 -9 -32 -17 -35
-17 -3 -1 -23 -9 -45 -19 -33 -14 -110 -46 -220 -91 -11 -5 -24 -7 -29 -6 -4
1 -13 -2 -20 -7 -6 -5 -29 -15 -51 -21 -22 -7 -47 -15 -55 -18 -8 -4 -17 -7
-20 -8 -3 0 -43 -13 -90 -28 -47 -14 -103 -30 -125 -36 -22 -5 -74 -18 -115
-28 l-74 -18 24 -22 c13 -13 39 -33 59 -46 189 -124 333 -209 416 -244 44 -19
89 -38 100 -44 89 -41 513 -171 605 -185 19 -3 44 -8 55 -11 11 -3 29 -7 40
-9 11 -1 36 -5 55 -8 19 -4 61 -11 93 -17 33 -6 75 -12 95 -14 21 -1 75 -7
122 -11 110 -11 561 -11 665 0 44 4 94 9 110 11 40 4 171 23 209 31 11 2 35 6
51 9 32 6 64 12 105 21 14 3 36 7 49 10 13 3 32 9 43 15 10 5 18 8 18 5 0 -2
24 5 53 16 28 11 63 23 77 28 14 4 43 16 65 25 50 22 89 37 93 36 1 -1 29 12
62 29 33 16 66 30 75 30 8 0 15 3 15 8 0 4 33 22 73 41 39 19 96 50 125 68 28
18 52 29 52 25 0 -4 4 -2 8 3 10 14 89 65 101 65 5 0 11 4 13 8 2 5 35 30 73
55 74 50 100 70 209 156 134 107 435 403 436 429 0 4 16 18 35 32 19 14 38 35
41 48 4 12 14 28 23 35 22 15 186 235 248 331 25 39 53 82 61 96 46 71 52 89
40 114 -12 28 -48 42 -123 51 -27 3 -61 7 -75 10 -14 2 -43 7 -65 10 -23 3
-50 7 -60 9 -76 14 -160 18 -401 21 -151 1 -275 1 -276 -1z"/>
<path d="M5199 3072 c-13 -9 -28 -20 -34 -24 -5 -5 -28 -22 -50 -38 -22 -16
-45 -34 -52 -40 -7 -5 -16 -10 -22 -10 -5 0 -11 -3 -13 -7 -4 -11 -128 -93
-139 -93 -5 0 -9 -4 -9 -8 0 -4 -12 -13 -27 -20 -41 -17 -98 -53 -101 -63 -2
-5 -10 -9 -18 -9 -8 0 -31 -10 -52 -23 -35 -22 -137 -73 -192 -96 -14 -6 -32
-15 -40 -20 -49 -30 -390 -155 -390 -143 0 4 -4 2 -8 -5 -4 -6 -19 -14 -32
-17 -14 -2 -68 -16 -120 -31 -52 -14 -104 -28 -115 -30 -11 -1 -53 -10 -93
-19 -40 -9 -91 -19 -115 -22 -23 -3 -53 -8 -67 -10 -34 -6 -74 -12 -140 -19
-101 -11 -125 -14 -169 -16 -49 -3 -65 -15 -210 -160 -106 -106 -150 -155
-222 -244 -72 -91 -169 -230 -169 -243 0 -6 -4 -12 -8 -14 -12 -5 -73 -108
-64 -108 4 0 2 -4 -4 -8 -6 -4 -23 -30 -38 -59 -35 -70 -26 -93 45 -115 59
-19 134 -31 191 -32 21 -1 38 -3 38 -6 0 -10 382 1 495 14 39 5 125 17 150 21
11 2 34 6 50 9 51 9 77 15 155 36 41 11 84 23 94 25 75 18 280 98 388 152 48
24 89 43 91 41 2 -2 20 9 40 25 19 15 39 27 42 27 6 0 142 89 230 150 54 37
114 90 167 143 48 50 82 87 181 201 10 12 31 36 45 55 15 18 34 41 42 51 64
76 123 154 217 288 l71 102 21 -27 c11 -16 24 -32 29 -38 4 -5 25 -37 47 -70
21 -33 43 -64 48 -70 4 -5 40 -53 80 -106 70 -93 109 -142 172 -218 17 -20 35
-42 40 -49 89 -113 350 -320 550 -437 75 -44 178 -95 192 -95 6 0 13 -4 15 -8
3 -8 256 -110 293 -119 6 -1 46 -12 90 -24 44 -11 85 -22 90 -23 134 -29 186
-38 315 -52 73 -8 419 -8 495 0 238 25 248 27 263 62 19 41 14 80 -18 134 -16
28 -30 55 -30 60 0 6 -4 10 -10 10 -5 0 -10 4 -10 10 0 10 -76 131 -88 140 -5
3 -18 21 -29 40 -12 19 -30 44 -40 55 -10 11 -30 37 -45 57 -37 48 -242 255
-297 299 -24 18 -48 39 -55 45 -6 5 -36 28 -67 51 -55 41 -57 41 -160 47 -57
3 -126 8 -154 11 -113 12 -130 14 -130 15 0 1 -11 3 -25 5 -14 1 -36 5 -50 8
-14 3 -43 8 -65 12 -137 24 -396 102 -560 170 -95 39 -320 149 -345 169 -8 6
-35 22 -60 36 -25 13 -56 31 -70 40 -14 9 -99 66 -190 125 -91 60 -181 121
-201 136 -34 27 -37 27 -60 11z"/>
</g>
</svg>
