<svg width="90" height="62" viewBox="0 0 90 62" fill="none" xmlns="http://www.w3.org/2000/svg">
<path d="M19.3 21.6001C14.4 26.9001 11.5 27.7001 11.5 27.7001C11.5 27.7001 14.2 29.4001 18.7 28.3001C18.2 29.2001 17.8 30.2001 17.4 31.2001C17.2 31.7001 17 32.2001 16.8 32.6001C9.4 32.5001 3.2 28.7001 0 26.3001C5.4 28.7001 13.2 21.3001 19.4 16.4001C32.9 6.00006 42.8 14.1001 42.8 14.1001C37.8 11.0001 28.2 11.8001 19.3 21.6001Z" fill="#B49561"/>
<path d="M27.8 8.50009C22.3 9.30009 20.2 8.4001 20.2 8.4001C20.2 8.4001 21 10.7001 24.2 12.2001C23.5 12.5001 22.8 12.9001 22 13.3001C21.7 13.5001 21.3 13.7001 21 13.9001C16.6 10.3001 14.7 5.1001 14 2.1001C16.1 6.1001 24.3 5.40009 30.3 5.50009C43.3 5.70009 45.4 15.3001 45.4 15.3001C44 11.1001 37.8 7.00009 27.8 8.50009Z" fill="#A17A3A"/>
<path d="M18.5001 31.6001C15.2001 40.1001 11.9001 52.1001 5.1001 52.9001C9.8001 53.4001 18.4001 53.4001 25.9001 48.9001C26.1001 46.7001 26.2001 44.3001 26.3001 42.0001C22.0001 47.4001 17.3001 47.4001 17.3001 47.4001C17.3001 47.4001 19.7001 44.9001 21.4001 36.8001C24.5001 21.8001 33.5001 15.3001 40.3001 15.5001C40.4001 15.5001 25.7001 13.3001 18.5001 31.6001Z" fill="#A17A3A"/>
<path d="M27.8002 37.5003C27.3002 46.6003 27.9002 59.0003 21.7002 61.9003C26.8002 60.8003 36.1002 57.7003 41.8002 49.6003C49.0002 39.3003 40.4002 27.5003 42.0002 18.9003C40.6002 21.6003 39.3002 26.3003 39.7002 34.3003C40.4002 50.1003 31.5002 52.9003 31.5002 52.9003C31.5002 52.9003 33.0002 49.8003 32.1002 41.5003C30.3002 26.3003 36.9002 17.3003 43.4002 15.3003C43.5002 15.4003 28.9002 17.9003 27.8002 37.5003Z" fill="#B49561"/>
<path d="M70.1001 41.0996C75.0001 35.7996 77.9001 34.9996 77.9001 34.9996C77.9001 34.9996 75.2001 33.2996 70.7001 34.3996C71.2001 33.4996 71.6001 32.4996 72.0001 31.4996C72.2001 30.9996 72.4001 30.4996 72.6001 30.0996C79.9001 30.1996 86.0001 33.8996 89.3001 36.2996C83.9001 34.0996 76.2001 41.3996 70.0001 46.1996C56.5001 56.5996 46.6001 48.4996 46.6001 48.4996C51.6001 51.6996 61.2001 50.8996 70.1001 41.0996Z" fill="#B49561"/>
<path d="M61.6 54.2004C67.1 53.4004 69.2 54.3004 69.2 54.3004C69.2 54.3004 68.4 52.0004 65.2 50.5004C65.9 50.2004 66.6 49.8004 67.4 49.4004C67.7 49.2004 68.1 49.0004 68.4 48.8004C72.8 52.4004 74.7 57.6004 75.4 60.6004C73.3 56.6004 65.1 57.3004 59.1 57.2004C46.1 57.0004 44 47.4004 44 47.4004C45.4 51.6004 51.5 55.7004 61.6 54.2004Z" fill="#A17A3A"/>
<path d="M70.9001 31.1003C74.2001 22.6003 77.5001 10.6003 84.3001 9.80029C79.6001 9.30029 71.0001 9.30029 63.5001 13.8003C63.3001 16.0003 63.2001 18.4003 63.1001 20.7003C67.4001 15.3003 72.1001 15.3003 72.1001 15.3003C72.1001 15.3003 69.7001 17.8003 68.0001 25.9003C64.9001 40.9003 55.9001 47.4003 49.1001 47.2003C49.0001 47.2003 63.7001 49.4003 70.9001 31.1003Z" fill="#A17A3A"/>
<path d="M61.5999 25.2003C62.0999 16.1003 61.4999 3.70029 67.6999 0.800293C62.5999 1.90029 53.2999 5.0003 47.5999 13.1003C40.3999 23.4003 48.9999 35.2003 47.3999 43.8003C48.7999 41.1003 50.0999 36.4003 49.6999 28.4003C48.9999 12.6003 57.8999 9.80029 57.8999 9.80029C57.8999 9.80029 56.3999 12.9003 57.2999 21.2003C59.0999 36.4003 52.4999 45.4003 45.9999 47.4003C45.8999 47.3003 60.4999 44.8003 61.5999 25.2003Z" fill="#B49561"/>
</svg>
