<svg width="261" height="197" viewBox="0 0 261 197" fill="none" xmlns="http://www.w3.org/2000/svg">
<path d="M52.0879 51.51C52.0879 53.1903 52.0879 54.8705 52.0879 56.5508C52.7869 58.4785 53.2534 60.5318 53.4881 62.7117C53.7485 63.5132 54.2157 64.1663 54.8883 64.6721C58.465 66.4604 62.0126 68.2342 65.5299 69.9929C69.3497 72.7441 73.2704 75.3574 77.2917 77.8341C81.3843 81.739 85.4914 85.6596 89.6136 89.5959C91.4546 92.0933 93.4149 94.5202 95.4945 96.877C95.7689 96.1528 95.8625 95.4057 95.7745 94.6367C95.5701 88.4001 96.1302 82.2392 97.4548 76.1538C99.3955 70.9108 101.542 65.6835 103.896 60.4714C106.752 55.1125 109.646 49.8853 112.577 44.789C113.166 44.8724 113.726 44.7794 114.257 44.509C116.194 41.3591 118.621 38.6516 121.538 36.3877C122.642 35.095 123.762 33.7878 124.899 32.4672C126.278 31.3689 127.586 30.1552 128.82 28.8266C129.753 28.453 130.686 28.453 131.62 28.8266C136.601 33.6221 141.549 38.3828 146.462 43.1088C146.733 43.6398 146.826 44.1998 146.742 44.7891C147.302 44.7891 147.862 44.7891 148.423 44.7891C148.816 47.6237 150.216 49.864 152.623 51.5101C153.252 52.5782 153.718 53.6983 154.023 54.8705C155.837 56.8107 157.237 59.051 158.224 61.5916C160.625 66.6474 162.398 71.8747 163.545 77.274C164.868 83.7339 165.428 90.2679 165.225 96.877C170.838 90.3307 176.813 84.1697 183.148 78.3941C184.803 77.4856 186.297 76.3655 187.629 75.0336C188.184 75.1299 188.557 74.9428 188.749 74.4735C194.589 70.5719 200.657 67.0248 206.952 63.8318C208.097 60.5749 208.75 57.2145 208.912 53.7503C208.912 53.0037 208.912 52.2566 208.912 51.51C210.636 43.9908 211.01 36.3361 210.032 28.5464C207.384 28.7027 204.771 29.0763 202.191 29.6666C199.622 31.325 196.821 32.7252 193.789 33.8673C193.321 34.4335 193.134 35.0871 193.229 35.8276C192.278 35.738 191.344 35.8309 190.429 36.1076C183.059 41.1478 176.525 47.0288 170.826 53.7503C169.928 55.6787 168.9 57.546 167.745 59.3512C167.138 59.7953 166.484 60.1689 165.785 60.4714C164.849 59.3456 164.476 58.0389 164.665 56.5508C164.902 55.2732 164.528 54.3396 163.545 53.7503C163.636 52.4302 163.543 51.1236 163.265 49.8298C161.957 44.7385 159.997 40.0713 157.384 35.8277C157.654 33.962 157.094 32.4687 155.704 31.347C155.792 30.5779 155.698 29.8308 155.424 29.1066C153.868 27.3043 152.748 25.2504 152.063 22.9457C149.999 20.8655 148.319 18.4387 147.022 15.6646C144.789 13.8488 143.015 11.7015 141.701 9.22357C140.977 8.94912 140.23 8.85561 139.461 8.94355C139.368 7.44926 138.808 6.14204 137.781 5.02297C136.069 3.77907 134.668 2.28529 133.58 0.542298C131.645 -0.180766 129.685 -0.180766 127.699 0.542298C126.101 2.60733 124.235 4.38057 122.098 5.86309C121.591 6.81463 121.404 7.84183 121.538 8.94355C120.792 8.94355 120.045 8.94355 119.298 8.94355C119.381 9.53277 119.288 10.0929 119.018 10.6238C117.47 12.3886 115.79 14.0689 113.977 15.6646C113.534 16.3619 113.254 17.1084 113.137 17.9049C110.185 20.628 108.225 23.9886 107.256 27.9864C105.147 29.7367 103.934 31.977 103.616 34.7075C101.235 39.546 99.2744 44.5868 97.7347 49.8298C97.3248 53.5224 96.4846 57.0695 95.2144 60.4714C92.4358 56.3873 89.2618 52.6532 85.6929 49.2697C80.8247 43.1239 74.8508 38.6432 67.7702 35.8277C67.8928 35.1696 67.7063 34.6095 67.2101 34.1475C64.4791 32.5002 61.6786 31.193 58.8088 30.2269C56.411 28.3467 53.7042 27.7866 50.6875 28.5467C50.1817 34.0848 50.4617 39.4991 51.5276 44.7891C51.3503 47.1424 51.5374 49.3828 52.0879 51.51Z" fill="#7B4B94"/>
<path d="M185.949 86.2359C185.45 86.5775 184.89 86.764 184.268 86.796C181.998 89.7112 179.571 92.5116 176.987 95.1973C174.918 96.8926 173.052 98.7594 171.386 100.798C169.014 103.855 166.774 107.029 164.665 110.32C163.279 112.159 162.345 114.213 161.865 116.481C159.831 119.664 157.963 123.024 156.264 126.562C153.608 130.436 150.621 134.077 147.303 137.484C150.191 137.174 152.804 136.147 155.144 134.403C166.751 129.158 178.326 123.931 189.869 118.721C191.034 118.457 192.154 118.084 193.23 117.601C202.478 114.215 212 111.975 221.794 110.88C223.415 110.106 224.815 108.986 225.995 107.519C230.351 101.981 233.992 96.0061 236.917 89.5965C237.29 89.2229 237.663 88.8498 238.037 88.4763C238.037 88.2898 238.037 88.1027 238.037 87.9162C238.885 85.4603 239.818 83.0334 240.837 80.6351C241.231 79.4427 241.791 78.3225 242.517 77.2746C242.517 76.901 242.517 76.528 242.517 76.1544C243.732 71.9476 244.479 67.6535 244.758 63.2725C238.332 63.4293 231.985 64.1765 225.715 65.5128C213.795 68.9506 202.593 74.0848 192.11 80.9151C189.766 82.4441 187.713 84.2173 185.949 86.2359Z" fill="#7B4B94"/>
<path d="M20.1632 80.6351C20.8823 83.934 22.189 86.9215 24.0837 89.5965C26.7139 96.3186 30.448 102.293 35.2855 107.519C35.8982 108.839 36.8319 109.866 38.0859 110.6C40.6326 110.84 43.0601 111.306 45.367 112C48.3758 112.285 51.3628 112.752 54.3284 113.4C65.0994 116.456 75.5539 120.283 85.6932 124.882C85.8847 125.351 86.2578 125.538 86.8133 125.442C92.5811 128.426 98.3685 131.412 104.176 134.403C104.55 134.403 104.923 134.403 105.296 134.403C107.796 136.043 110.41 136.977 113.137 137.204C109.933 133.073 106.759 128.965 103.616 124.882C101.925 121.5 100.245 118.139 98.5751 114.8C95.8072 108.699 92.073 103.285 87.3734 98.5579C84.9679 95.2181 82.1675 92.2311 78.9721 89.5965C77.4929 88.3061 75.9992 86.9989 74.4914 85.676C72.5602 84.232 70.6935 82.6453 68.8905 80.9152C66.8216 79.6954 64.7678 78.4817 62.7296 77.2746C60.7665 76.2542 58.8998 75.134 57.1288 73.9141C55.6501 73.1748 54.1564 72.4282 52.6481 71.6738C41.3892 66.3681 29.4409 63.5676 16.8026 63.2725C16.1921 65.054 16.1921 66.9214 16.8026 68.8733C17.5006 72.981 18.6208 76.9016 20.1632 80.6351Z" fill="#7B4B94"/>
<path d="M259.32 117.881C256.062 117.427 252.888 116.961 249.798 116.48C248.865 116.48 247.932 116.48 246.998 116.48C228.899 115.584 211.536 118.571 194.91 125.442C187.774 127.984 180.866 130.972 174.187 134.403C170.45 136.084 166.716 137.765 162.985 139.444C155.159 143.363 146.944 146.257 138.341 148.125C139.378 149.106 140.498 149.947 141.702 150.645C144.141 152.158 146.568 153.652 148.983 155.126C168.585 163.993 188.935 166.047 210.032 161.287C226.101 156.242 239.543 147.28 250.358 134.403C250.919 134.216 251.292 133.843 251.479 133.283C251.479 133.096 251.479 132.909 251.479 132.723C252.225 132.349 252.785 131.789 253.159 131.043C256.076 127.463 258.69 123.635 261 119.561C260.821 118.635 260.261 118.075 259.32 117.881Z" fill="#7B4B94"/>
<path d="M115.938 153.447C120.902 150.498 125.569 147.137 129.94 143.365C133.815 140.963 137.362 138.163 140.582 134.964C144.756 130.787 148.304 126.12 151.223 120.962C151.597 120.775 151.97 120.588 152.343 120.401C154.371 114.723 156.145 108.935 157.664 103.039C157.944 97.4413 158.037 91.8404 157.944 86.2362C158.041 85.6806 157.854 85.3076 157.384 85.1161C157.476 83.6112 157.383 82.1174 157.104 80.6354C155.851 77.0358 154.637 73.4887 153.464 69.9938C152.231 66.356 150.551 62.9955 148.423 59.9122C146.736 56.1613 144.496 52.8008 141.702 49.8307C138.714 45.1763 135.074 41.0692 130.78 37.5088C129.35 37.9137 128.137 38.6602 127.14 39.7491C124.657 42.5982 122.416 45.5857 120.419 48.7105C120.045 48.897 119.672 49.0841 119.298 49.2706C116.683 51.5098 114.909 54.3103 113.978 57.6719C113.581 58.1653 113.114 58.5384 112.577 58.7921C111.055 61.6764 109.748 64.6634 108.657 67.7534C105.743 73.1381 104.063 78.926 103.616 85.1161C102.821 92.5277 103.008 99.9953 104.176 107.52C106.706 115.269 110.44 122.363 115.378 128.803C117.05 131.221 118.918 133.461 120.979 135.524C122.144 136.685 123.077 137.992 123.779 139.444C122.238 143.04 119.624 145.467 115.938 146.725C111.657 145.485 107.549 143.805 103.616 141.685C97.5043 139.189 91.5299 136.389 85.6932 133.283C85.0166 132.872 84.27 132.686 83.4529 132.723C78.3164 129.763 72.902 127.336 67.2104 125.442C64.4099 124.322 61.6095 123.202 58.809 122.082C44.2037 117.656 29.2685 115.79 14.0022 116.481C9.50134 116.722 5.02066 117.188 0.560098 117.881C0.234674 118.381 0.047656 118.941 0 119.561C2.75954 125.402 6.4936 130.536 11.2017 134.964C18.2079 143.416 26.6092 150.137 36.4056 155.127C39.3108 156.672 42.2977 158.072 45.367 159.327C69.6703 166.576 93.1939 164.615 115.938 153.447Z" fill="#7B4B94"/>
<path d="M180.348 170.808C168.031 170.529 156.456 167.448 145.623 161.566C140.391 158.578 135.35 155.311 130.5 151.765C115.4 163.603 98.2241 170.137 78.9723 171.368C71.6946 177.518 65.9073 184.8 61.6097 193.211C61.4893 194.151 61.8628 194.711 62.7298 194.891C65.4424 195.753 68.2428 196.127 71.1311 196.011C87.7948 196.587 102.544 191.639 115.378 181.169C121.03 175.354 126.071 169.099 130.5 162.406C134.378 168.336 138.673 173.937 143.382 179.209C159.032 193.29 177.328 198.611 198.271 195.171C199.314 194.377 199.594 193.35 199.111 192.091C194.533 183.48 188.279 176.386 180.348 170.808Z" fill="#6D9F71"/>
</svg>
