<svg width="1213" height="337" viewBox="0 0 1213 337" fill="none" xmlns="http://www.w3.org/2000/svg">
<path d="M6.8 141.4H33.8C34.3333 145.933 36.4 150.067 40 153.8C43.7333 157.4 48.6 160.267 54.6 162.4C60.6 164.4 67.3333 165.4 74.8 165.4C81.6 165.4 87.2 164.667 91.6 163.2C96 161.733 99.2667 159.667 101.4 157C103.533 154.333 104.6 151.133 104.6 147.4C104.6 143.8 103.267 141.067 100.6 139.2C97.9333 137.2 93.7333 135.6 88 134.4C82.2667 133.067 74.7333 131.733 65.4 130.4C58.0667 129.333 51.1333 127.867 44.6 126C38.0667 124 32.2667 121.467 27.2 118.4C22.2667 115.333 18.3333 111.6 15.4 107.2C12.6 102.667 11.2 97.3333 11.2 91.2C11.2 83.6 13.3333 76.9333 17.6 71.2C22 65.4667 28.4667 61 37 57.8C45.5333 54.6 56 53 68.4 53C87.0667 53 101.4 57 111.4 65C121.533 72.8667 126.467 83.7333 126.2 97.6H100.2C99.6667 89.7333 96.3333 84.0667 90.2 80.6C84.2 77.1333 76.6 75.4 67.4 75.4C58.8667 75.4 51.8 76.6667 46.2 79.2C40.7333 81.7333 38 86.0667 38 92.2C38 94.6 38.6667 96.7333 40 98.6C41.3333 100.333 43.6 101.867 46.8 103.2C50 104.533 54.3333 105.8 59.8 107C65.2667 108.2 72.0667 109.4 80.2 110.6C87.8 111.667 94.6667 113.133 100.8 115C107.067 116.733 112.4 119.067 116.8 122C121.333 124.8 124.8 128.4 127.2 132.8C129.6 137.2 130.8 142.6 130.8 149C130.8 156.867 128.733 163.733 124.6 169.6C120.6 175.333 114.333 179.8 105.8 183C97.4 186.2 86.4667 187.8 73 187.8C63.4 187.8 54.9333 186.8 47.6 184.8C40.2667 182.667 33.9333 179.867 28.6 176.4C23.2667 172.933 18.9333 169.133 15.6 165C12.2667 160.867 9.86667 156.733 8.4 152.6C7.06667 148.467 6.53333 144.733 6.8 141.4ZM199.267 187.2C189.401 187.2 180.401 185.067 172.267 180.8C164.267 176.4 157.867 170.333 153.067 162.6C148.401 154.733 146.067 145.667 146.067 135.4C146.067 124.867 148.467 115.733 153.267 108C158.067 100.267 164.534 94.2667 172.667 90C180.934 85.6 190.267 83.4 200.667 83.4C212.134 83.4 221.334 85.7333 228.267 90.4C235.334 94.9333 240.467 101.133 243.667 109C246.867 116.867 248.467 125.667 248.467 135.4C248.467 141.267 247.534 147.267 245.667 153.4C243.801 159.4 240.934 165 237.067 170.2C233.201 175.267 228.134 179.4 221.867 182.6C215.601 185.667 208.067 187.2 199.267 187.2ZM207.667 167.2C215.534 167.2 222.334 165.867 228.067 163.2C233.801 160.533 238.201 156.8 241.267 152C244.334 147.2 245.867 141.667 245.867 135.4C245.867 128.6 244.267 122.867 241.067 118.2C238.001 113.4 233.601 109.8 227.867 107.4C222.267 104.867 215.534 103.6 207.667 103.6C196.601 103.6 188.001 106.533 181.867 112.4C175.734 118.133 172.667 125.8 172.667 135.4C172.667 141.8 174.134 147.4 177.067 152.2C180.001 156.867 184.067 160.533 189.267 163.2C194.601 165.867 200.734 167.2 207.667 167.2ZM245.867 85.6H271.867V185H247.667C247.667 185 247.467 183.733 247.067 181.2C246.801 178.533 246.534 175.2 246.267 171.2C246.001 167.2 245.867 163.267 245.867 159.4V85.6ZM370.045 187.2C361.245 187.2 353.712 185.667 347.445 182.6C341.179 179.4 336.112 175.267 332.245 170.2C328.379 165 325.512 159.4 323.645 153.4C321.779 147.267 320.845 141.267 320.845 135.4C320.845 128.067 321.712 121.267 323.445 115C325.312 108.733 328.179 103.267 332.045 98.6C335.912 93.8 340.979 90.0667 347.245 87.4C353.512 84.7333 361.112 83.4 370.045 83.4C380.312 83.4 389.379 85.6 397.245 90C405.245 94.2667 411.512 100.267 416.045 108C420.712 115.733 423.045 124.867 423.045 135.4C423.045 145.667 420.712 154.733 416.045 162.6C411.379 170.333 405.045 176.4 397.045 180.8C389.045 185.067 380.045 187.2 370.045 187.2ZM361.645 167.2C368.712 167.2 374.845 165.867 380.045 163.2C385.245 160.533 389.245 156.867 392.045 152.2C394.979 147.4 396.445 141.8 396.445 135.4C396.445 125.8 393.379 118.067 387.245 112.2C381.245 106.333 372.712 103.4 361.645 103.4C353.912 103.4 347.179 104.667 341.445 107.2C335.712 109.733 331.245 113.4 328.045 118.2C324.979 122.867 323.445 128.6 323.445 135.4C323.445 141.667 324.979 147.2 328.045 152C331.112 156.8 335.512 160.533 341.245 163.2C346.979 165.867 353.779 167.2 361.645 167.2ZM323.445 45.6V159.4C323.445 163.667 323.245 168.267 322.845 173.2C322.445 178 322.045 181.933 321.645 185H297.445V45.6H323.445ZM490.673 187.2C480.807 187.2 471.807 185.067 463.673 180.8C455.673 176.4 449.273 170.333 444.473 162.6C439.807 154.733 437.473 145.667 437.473 135.4C437.473 124.867 439.873 115.733 444.673 108C449.473 100.267 455.94 94.2667 464.073 90C472.34 85.6 481.673 83.4 492.073 83.4C503.54 83.4 512.74 85.7333 519.673 90.4C526.74 94.9333 531.873 101.133 535.073 109C538.273 116.867 539.873 125.667 539.873 135.4C539.873 141.267 538.94 147.267 537.073 153.4C535.207 159.4 532.34 165 528.473 170.2C524.607 175.267 519.54 179.4 513.273 182.6C507.007 185.667 499.473 187.2 490.673 187.2ZM499.073 167.2C506.94 167.2 513.74 165.867 519.473 163.2C525.207 160.533 529.607 156.8 532.673 152C535.74 147.2 537.273 141.667 537.273 135.4C537.273 128.6 535.673 122.867 532.473 118.2C529.407 113.4 525.007 109.8 519.273 107.4C513.673 104.867 506.94 103.6 499.073 103.6C488.007 103.6 479.407 106.533 473.273 112.4C467.14 118.133 464.073 125.8 464.073 135.4C464.073 141.8 465.54 147.4 468.473 152.2C471.407 156.867 475.473 160.533 480.673 163.2C486.007 165.867 492.14 167.2 499.073 167.2ZM537.273 85.6H563.273V185H539.073C539.073 185 538.873 183.733 538.473 181.2C538.207 178.533 537.94 175.2 537.673 171.2C537.407 167.2 537.273 163.267 537.273 159.4V85.6ZM616.605 42V64.8H586.405V42H616.605ZM588.405 85.6H614.405V185H588.405V85.6Z" fill="white"/>
<path d="M704.088 60.4368C704.088 62.117 704.088 63.7972 704.088 65.4775C704.787 67.4053 705.254 69.4586 705.488 71.6385C705.749 72.4399 706.216 73.093 706.888 73.5988C710.465 75.3872 714.013 77.161 717.53 78.9197C721.35 81.6708 725.27 84.2842 729.292 86.7609C733.384 90.6657 737.492 94.5864 741.614 98.5227C743.455 101.02 745.415 103.447 747.495 105.804C747.769 105.08 747.863 104.332 747.775 103.563C747.57 97.3269 748.13 91.166 749.455 85.0806C751.396 79.8376 753.542 74.6103 755.896 69.3982C758.752 64.0393 761.646 58.812 764.577 53.7158C765.166 53.7992 765.727 53.7062 766.257 53.4357C768.194 50.2858 770.621 47.5784 773.539 45.3145C774.642 44.0218 775.763 42.7145 776.899 41.3939C778.279 40.2956 779.586 39.0819 780.82 37.7534C781.753 37.3798 782.686 37.3798 783.62 37.7534C788.601 42.5488 793.549 47.3096 798.462 52.0356C798.733 52.5665 798.826 53.1266 798.742 53.7158C799.303 53.7158 799.863 53.7158 800.423 53.7158C800.816 56.5504 802.216 58.7908 804.623 60.4368C805.252 61.5049 805.718 62.6251 806.024 63.7973C807.837 65.7375 809.237 67.9778 810.224 70.5183C812.625 75.5742 814.399 80.8015 815.545 86.2007C816.869 92.6607 817.429 99.1947 817.225 105.804C822.838 99.2574 828.813 93.0965 835.148 87.3209C836.803 86.4124 838.297 85.2922 839.629 83.9603C840.184 84.0567 840.557 83.8696 840.749 83.4002C846.589 79.4986 852.657 75.9516 858.952 72.7586C860.098 69.5017 860.751 66.1412 860.912 62.6771C860.912 61.9304 860.912 61.1833 860.912 60.4367C862.636 52.9176 863.01 45.2629 862.032 37.4732C859.385 37.6295 856.771 38.003 854.191 38.5934C851.622 40.2518 848.821 41.652 845.79 42.794C845.321 43.3603 845.134 44.0139 845.229 44.7544C844.278 44.6647 843.344 44.7577 842.429 45.0344C835.059 50.0746 828.525 55.9555 822.826 62.6771C821.928 64.6055 820.901 66.4728 819.746 68.278C819.138 68.7221 818.484 69.0957 817.785 69.3981C816.849 68.2723 816.476 66.9656 816.665 65.4775C816.902 64.1999 816.528 63.2663 815.545 62.6771C815.636 61.357 815.543 60.0503 815.265 58.7565C813.957 53.6653 811.997 48.9981 809.384 44.7544C809.654 42.8887 809.094 41.3955 807.704 40.2737C807.792 39.5047 807.698 38.7576 807.424 38.0334C805.868 36.231 804.748 34.1772 804.063 31.8724C801.999 29.7923 800.319 27.3654 799.022 24.5913C796.789 22.7755 795.016 20.6282 793.702 18.1503C792.977 17.8759 792.23 17.7824 791.461 17.8703C791.368 16.376 790.808 15.0688 789.781 13.9497C788.069 12.7058 786.669 11.212 785.58 9.46906C783.645 8.74599 781.685 8.74599 779.699 9.46906C778.101 11.5341 776.235 13.3073 774.099 14.7898C773.591 15.7414 773.405 16.7686 773.538 17.8703C772.792 17.8703 772.045 17.8703 771.298 17.8703C771.382 18.4595 771.289 19.0196 771.018 19.5505C769.471 21.3154 767.79 22.9956 765.977 24.5913C765.534 25.2886 765.254 26.0352 765.137 26.8317C762.185 29.5548 760.225 32.9153 759.256 36.9132C757.148 38.6635 755.934 40.9038 755.616 43.6342C753.235 48.4728 751.275 53.5135 749.735 58.7565C749.325 62.4492 748.485 65.9962 747.214 69.3982C744.436 65.3141 741.262 61.5799 737.693 58.1965C732.825 52.0507 726.851 47.5699 719.77 44.7545C719.893 44.0964 719.706 43.5362 719.21 43.0742C716.479 41.427 713.679 40.1198 710.809 39.1536C708.411 37.2735 705.704 36.7134 702.688 37.4734C702.182 43.0115 702.462 48.4258 703.528 53.7159C703.35 56.0691 703.538 58.3095 704.088 60.4368Z" fill="white"/>
<path d="M837.949 95.1626C837.45 95.5043 836.889 95.6908 836.268 95.7227C833.998 98.638 831.571 101.438 828.987 104.124C826.918 105.819 825.051 107.686 823.386 109.725C821.014 112.781 818.774 115.955 816.665 119.246C815.279 121.086 814.345 123.14 813.865 125.407C811.831 128.59 809.963 131.951 808.264 135.489C805.608 139.363 802.621 143.004 799.303 146.411C802.19 146.101 804.804 145.074 807.144 143.33C818.751 138.085 830.326 132.858 841.869 127.648C843.034 127.384 844.154 127.011 845.23 126.528C854.478 123.142 864 120.901 873.794 119.807C875.415 119.032 876.815 117.912 877.995 116.446C882.351 110.907 885.992 104.933 888.916 98.5232C889.29 98.1496 889.663 97.7766 890.037 97.4031C890.037 97.2166 890.037 97.0295 890.037 96.843C890.885 94.387 891.818 91.9602 892.837 89.5619C893.231 88.3695 893.791 87.2493 894.517 86.2014C894.517 85.8278 894.517 85.4548 894.517 85.0812C895.732 80.8744 896.479 76.5802 896.758 72.1992C890.332 72.356 883.985 73.1032 877.715 74.4396C865.794 77.8773 854.593 83.0116 844.11 89.8419C841.766 91.3708 839.713 93.1441 837.949 95.1626Z" fill="white"/>
<path d="M672.163 89.5619C672.882 92.8608 674.189 95.8483 676.084 98.5232C678.714 105.245 682.448 111.22 687.286 116.446C687.898 117.766 688.832 118.793 690.086 119.526C692.633 119.767 695.06 120.233 697.367 120.927C700.376 121.212 703.363 121.678 706.328 122.327C717.099 125.383 727.554 129.21 737.693 133.809C737.885 134.278 738.258 134.465 738.813 134.369C744.581 137.352 750.369 140.339 756.176 143.33C756.55 143.33 756.923 143.33 757.296 143.33C759.796 144.97 762.41 145.904 765.137 146.131C761.933 141.999 758.759 137.892 755.616 133.809C753.925 130.426 752.245 127.066 750.575 123.727C747.807 117.626 744.073 112.212 739.374 107.485C736.968 104.145 734.168 101.158 730.972 98.5233C729.493 97.2329 727.999 95.9257 726.492 94.6027C724.56 93.1588 722.694 91.572 720.891 89.842C718.822 88.6221 716.768 87.4084 714.73 86.2014C712.767 85.1809 710.9 84.0608 709.129 82.8409C707.65 82.1015 706.157 81.3549 704.648 80.6005C693.389 75.2948 681.441 72.4944 668.803 72.1992C668.192 73.9808 668.192 75.8482 668.803 77.8001C669.501 81.9077 670.621 85.8284 672.163 89.5619Z" fill="white"/>
<path d="M911.32 126.807C908.062 126.354 904.888 125.888 901.798 125.407C900.865 125.407 899.932 125.407 898.998 125.407C880.899 124.511 863.536 127.498 846.91 134.368C839.774 136.911 832.866 139.899 826.187 143.33C822.45 145.011 818.716 146.691 814.985 148.371C807.159 152.29 798.944 155.183 790.341 157.052C791.378 158.033 792.498 158.873 793.702 159.572C796.141 161.085 798.568 162.579 800.983 164.053C820.585 172.92 840.935 174.974 862.032 170.214C878.101 165.169 891.543 156.207 902.358 143.33C902.919 143.143 903.292 142.77 903.479 142.21C903.479 142.023 903.479 141.836 903.479 141.65C904.225 141.276 904.785 140.716 905.159 139.969C908.076 136.39 910.69 132.562 913 128.488C912.821 127.562 912.261 127.002 911.32 126.807Z" fill="white"/>
<path d="M767.938 162.373C772.902 159.424 777.569 156.064 781.94 152.292C785.815 149.89 789.362 147.09 792.582 143.89C796.756 139.714 800.304 135.047 803.223 129.888C803.597 129.702 803.97 129.515 804.343 129.328C806.371 123.649 808.145 117.862 809.664 111.966C809.944 106.368 810.037 100.767 809.944 95.163C810.041 94.6074 809.854 94.2344 809.384 94.0428C809.476 92.5379 809.383 91.0441 809.104 89.5622C807.851 85.9625 806.637 82.4155 805.464 78.9205C804.231 75.2828 802.551 71.9223 800.423 68.839C798.736 65.0881 796.496 61.7275 793.702 58.7574C790.714 54.1031 787.074 49.9959 782.78 46.4355C781.35 46.8405 780.137 47.587 779.14 48.6759C776.657 51.525 774.416 54.5125 772.419 57.6372C772.045 57.8237 771.672 58.0108 771.298 58.1973C768.683 60.4366 766.909 63.237 765.978 66.5986C765.581 67.0921 765.114 67.4651 764.577 67.7188C763.055 70.6032 761.748 73.5902 760.657 76.6802C757.743 82.0649 756.063 87.8528 755.616 94.0428C754.821 101.454 755.008 108.922 756.176 116.446C758.706 124.196 762.44 131.29 767.378 137.73C769.05 140.147 770.918 142.388 772.979 144.451C774.144 145.612 775.077 146.919 775.779 148.371C774.238 151.966 771.624 154.394 767.938 155.652C763.657 154.412 759.549 152.731 755.616 150.611C749.504 148.116 743.53 145.315 737.693 142.21C737.017 141.799 736.27 141.613 735.453 141.65C730.316 138.689 724.902 136.263 719.21 134.369C716.41 133.249 713.609 132.129 710.809 131.008C696.204 126.583 681.268 124.716 666.002 125.408C661.501 125.648 657.021 126.115 652.56 126.808C652.235 127.308 652.048 127.868 652 128.488C654.76 134.329 658.494 139.463 663.202 143.89C670.208 152.343 678.609 159.064 688.406 164.053C691.311 165.599 694.298 166.999 697.367 168.254C721.67 175.502 745.194 173.542 767.938 162.373Z" fill="white"/>
<path d="M832.348 179.734C820.031 179.455 808.456 176.375 797.622 170.493C792.391 167.505 787.35 164.238 782.5 160.691C767.4 172.529 750.224 179.064 730.972 180.294C723.695 186.445 717.907 193.726 713.61 202.138C713.489 203.078 713.863 203.638 714.73 203.818C717.442 204.68 720.243 205.054 723.131 204.938C739.795 205.513 754.543 200.566 767.378 190.096C773.03 184.281 778.07 178.026 782.5 171.333C786.378 177.263 790.672 182.864 795.382 188.136C811.031 202.217 829.328 207.538 850.271 204.098C851.314 203.304 851.594 202.277 851.111 201.018C846.533 192.407 840.279 185.313 832.348 179.734Z" fill="white"/>
<path d="M2.2 235.83H77.22V248.04H2.2V235.83ZM32.45 246.5H47.08V307H32.45V246.5ZM130.231 307V276.97C130.231 273.963 129.718 271.47 128.691 269.49C127.665 267.51 126.015 266.007 123.741 264.98C121.541 263.953 118.571 263.44 114.831 263.44C111.238 263.44 107.975 264.137 105.041 265.53C102.108 266.85 99.7247 268.61 97.8914 270.81C96.0581 272.937 95.0314 275.21 94.8114 277.63L94.7014 271.58C95.0681 269.16 95.9114 266.74 97.2314 264.32C98.5514 261.9 100.311 259.7 102.511 257.72C104.711 255.74 107.351 254.163 110.431 252.99C113.585 251.743 117.105 251.12 120.991 251.12C124.365 251.12 127.481 251.56 130.341 252.44C133.201 253.247 135.695 254.53 137.821 256.29C139.948 258.05 141.598 260.25 142.771 262.89C143.945 265.457 144.531 268.5 144.531 272.02V307H130.231ZM81.2814 307V230.33H95.5814V307H81.2814ZM184.148 308.21C178.721 308.21 173.771 307.037 169.298 304.69C164.898 302.27 161.378 298.933 158.738 294.68C156.171 290.353 154.888 285.367 154.888 279.72C154.888 273.927 156.208 268.903 158.848 264.65C161.488 260.397 165.044 257.097 169.518 254.75C174.064 252.33 179.198 251.12 184.918 251.12C191.224 251.12 196.284 252.403 200.098 254.97C203.984 257.463 206.808 260.873 208.568 265.2C210.328 269.527 211.208 274.367 211.208 279.72C211.208 282.947 210.694 286.247 209.668 289.62C208.641 292.92 207.064 296 204.938 298.86C202.811 301.647 200.024 303.92 196.578 305.68C193.131 307.367 188.988 308.21 184.148 308.21ZM188.768 297.21C193.094 297.21 196.834 296.477 199.988 295.01C203.141 293.543 205.561 291.49 207.248 288.85C208.934 286.21 209.778 283.167 209.778 279.72C209.778 275.98 208.898 272.827 207.138 270.26C205.451 267.62 203.031 265.64 199.878 264.32C196.798 262.927 193.094 262.23 188.768 262.23C182.681 262.23 177.951 263.843 174.578 267.07C171.204 270.223 169.518 274.44 169.518 279.72C169.518 283.24 170.324 286.32 171.938 288.96C173.551 291.527 175.788 293.543 178.648 295.01C181.581 296.477 184.954 297.21 188.768 297.21ZM209.778 252.33H224.078V307H210.768C210.768 307 210.658 306.303 210.438 304.91C210.291 303.443 210.144 301.61 209.998 299.41C209.851 297.21 209.778 295.047 209.778 292.92V252.33ZM253.41 228.35V240.89H236.8V228.35H253.41ZM237.9 252.33H252.2V307H237.9V252.33ZM350.187 299.74H343.257L384.177 235.83H398.807V307H384.177V255.3L387.697 256.29L355.027 307H338.637L305.967 256.51L309.487 255.52V307H294.857V235.83H309.487L350.187 299.74ZM440.456 308.21C435.03 308.21 430.08 307.037 425.606 304.69C421.206 302.27 417.686 298.933 415.046 294.68C412.48 290.353 411.196 285.367 411.196 279.72C411.196 273.927 412.516 268.903 415.156 264.65C417.796 260.397 421.353 257.097 425.826 254.75C430.373 252.33 435.506 251.12 441.226 251.12C447.533 251.12 452.593 252.403 456.406 254.97C460.293 257.463 463.116 260.873 464.876 265.2C466.636 269.527 467.516 274.367 467.516 279.72C467.516 282.947 467.003 286.247 465.976 289.62C464.95 292.92 463.373 296 461.246 298.86C459.12 301.647 456.333 303.92 452.886 305.68C449.44 307.367 445.296 308.21 440.456 308.21ZM445.076 297.21C449.403 297.21 453.143 296.477 456.296 295.01C459.45 293.543 461.87 291.49 463.556 288.85C465.243 286.21 466.086 283.167 466.086 279.72C466.086 275.98 465.206 272.827 463.446 270.26C461.76 267.62 459.34 265.64 456.186 264.32C453.106 262.927 449.403 262.23 445.076 262.23C438.99 262.23 434.26 263.843 430.886 267.07C427.513 270.223 425.826 274.44 425.826 279.72C425.826 283.24 426.633 286.32 428.246 288.96C429.86 291.527 432.096 293.543 434.956 295.01C437.89 296.477 441.263 297.21 445.076 297.21ZM466.086 252.33H480.386V307H467.076C467.076 307 466.966 306.303 466.746 304.91C466.6 303.443 466.453 301.61 466.306 299.41C466.16 297.21 466.086 295.047 466.086 292.92V252.33ZM491.129 288.85H504.329C505.135 291.343 506.785 293.397 509.279 295.01C511.845 296.55 515.182 297.32 519.289 297.32C522.075 297.32 524.239 297.063 525.779 296.55C527.319 296.037 528.382 295.303 528.969 294.35C529.555 293.323 529.849 292.187 529.849 290.94C529.849 289.4 529.372 288.227 528.419 287.42C527.465 286.54 525.999 285.843 524.019 285.33C522.039 284.817 519.509 284.34 516.429 283.9C513.349 283.387 510.379 282.763 507.519 282.03C504.659 281.297 502.129 280.343 499.929 279.17C497.729 277.923 495.969 276.383 494.649 274.55C493.402 272.643 492.779 270.333 492.779 267.62C492.779 264.98 493.402 262.633 494.649 260.58C495.969 258.527 497.765 256.803 500.039 255.41C502.385 254.017 505.099 252.953 508.179 252.22C511.332 251.487 514.705 251.12 518.299 251.12C523.725 251.12 528.235 251.927 531.829 253.54C535.422 255.08 538.099 257.28 539.859 260.14C541.692 262.927 542.609 266.153 542.609 269.82H529.959C529.372 267.107 528.199 265.163 526.439 263.99C524.679 262.743 521.965 262.12 518.299 262.12C514.705 262.12 511.992 262.67 510.159 263.77C508.325 264.87 507.409 266.373 507.409 268.28C507.409 269.82 507.959 271.03 509.059 271.91C510.232 272.717 511.919 273.377 514.119 273.89C516.392 274.403 519.215 274.953 522.589 275.54C525.449 276.127 528.162 276.787 530.729 277.52C533.369 278.253 535.715 279.207 537.769 280.38C539.822 281.48 541.435 282.983 542.609 284.89C543.855 286.723 544.479 289.07 544.479 291.93C544.479 295.45 543.452 298.42 541.399 300.84C539.419 303.26 536.559 305.13 532.819 306.45C529.079 307.697 524.605 308.32 519.399 308.32C514.779 308.32 510.782 307.843 507.409 306.89C504.109 305.863 501.359 304.58 499.159 303.04C496.959 301.427 495.235 299.74 493.989 297.98C492.815 296.147 492.009 294.423 491.569 292.81C491.129 291.197 490.982 289.877 491.129 288.85ZM553.218 288.85H566.418C567.225 291.343 568.875 293.397 571.368 295.01C573.935 296.55 577.272 297.32 581.378 297.32C584.165 297.32 586.328 297.063 587.868 296.55C589.408 296.037 590.472 295.303 591.058 294.35C591.645 293.323 591.938 292.187 591.938 290.94C591.938 289.4 591.462 288.227 590.508 287.42C589.555 286.54 588.088 285.843 586.108 285.33C584.128 284.817 581.598 284.34 578.518 283.9C575.438 283.387 572.468 282.763 569.608 282.03C566.748 281.297 564.218 280.343 562.018 279.17C559.818 277.923 558.058 276.383 556.738 274.55C555.492 272.643 554.868 270.333 554.868 267.62C554.868 264.98 555.492 262.633 556.738 260.58C558.058 258.527 559.855 256.803 562.128 255.41C564.475 254.017 567.188 252.953 570.268 252.22C573.422 251.487 576.795 251.12 580.388 251.12C585.815 251.12 590.325 251.927 593.918 253.54C597.512 255.08 600.188 257.28 601.948 260.14C603.782 262.927 604.698 266.153 604.698 269.82H592.048C591.462 267.107 590.288 265.163 588.528 263.99C586.768 262.743 584.055 262.12 580.388 262.12C576.795 262.12 574.082 262.67 572.248 263.77C570.415 264.87 569.498 266.373 569.498 268.28C569.498 269.82 570.048 271.03 571.148 271.91C572.322 272.717 574.008 273.377 576.208 273.89C578.482 274.403 581.305 274.953 584.678 275.54C587.538 276.127 590.252 276.787 592.818 277.52C595.458 278.253 597.805 279.207 599.858 280.38C601.912 281.48 603.525 282.983 604.698 284.89C605.945 286.723 606.568 289.07 606.568 291.93C606.568 295.45 605.542 298.42 603.488 300.84C601.508 303.26 598.648 305.13 594.908 306.45C591.168 307.697 586.695 308.32 581.488 308.32C576.868 308.32 572.872 307.843 569.498 306.89C566.198 305.863 563.448 304.58 561.248 303.04C559.048 301.427 557.325 299.74 556.078 297.98C554.905 296.147 554.098 294.423 553.658 292.81C553.218 291.197 553.072 289.877 553.218 288.85ZM644.128 308.21C638.702 308.21 633.752 307.037 629.278 304.69C624.878 302.27 621.358 298.933 618.718 294.68C616.152 290.353 614.868 285.367 614.868 279.72C614.868 273.927 616.188 268.903 618.828 264.65C621.468 260.397 625.025 257.097 629.498 254.75C634.045 252.33 639.178 251.12 644.898 251.12C651.205 251.12 656.265 252.403 660.078 254.97C663.965 257.463 666.788 260.873 668.548 265.2C670.308 269.527 671.188 274.367 671.188 279.72C671.188 282.947 670.675 286.247 669.648 289.62C668.622 292.92 667.045 296 664.918 298.86C662.792 301.647 660.005 303.92 656.558 305.68C653.112 307.367 648.968 308.21 644.128 308.21ZM648.748 297.21C653.075 297.21 656.815 296.477 659.968 295.01C663.122 293.543 665.542 291.49 667.228 288.85C668.915 286.21 669.758 283.167 669.758 279.72C669.758 275.98 668.878 272.827 667.118 270.26C665.432 267.62 663.012 265.64 659.858 264.32C656.778 262.927 653.075 262.23 648.748 262.23C642.662 262.23 637.932 263.843 634.558 267.07C631.185 270.223 629.498 274.44 629.498 279.72C629.498 283.24 630.305 286.32 631.918 288.96C633.532 291.527 635.768 293.543 638.628 295.01C641.562 296.477 644.935 297.21 648.748 297.21ZM669.758 252.33H684.058V307H670.748C670.748 307 670.638 306.303 670.418 304.91C670.272 303.443 670.125 301.61 669.978 299.41C669.832 297.21 669.758 295.047 669.758 292.92V252.33ZM724.28 298.64C718.34 298.64 713.097 297.76 708.55 296C704.077 294.167 700.594 291.49 698.1 287.97C695.607 284.45 694.36 280.197 694.36 275.21C694.36 270.297 695.57 266.043 697.99 262.45C700.41 258.857 703.857 256.07 708.33 254.09C712.877 252.11 718.194 251.12 724.28 251.12C725.967 251.12 727.58 251.23 729.12 251.45C730.734 251.67 732.31 251.963 733.85 252.33L761.46 252.44V263.22C757.72 263.293 753.907 262.853 750.02 261.9C746.207 260.873 742.834 259.773 739.9 258.6L739.57 257.83C742.064 259.003 744.41 260.47 746.61 262.23C748.81 263.917 750.57 265.897 751.89 268.17C753.284 270.37 753.98 272.937 753.98 275.87C753.98 280.637 752.77 284.743 750.35 288.19C747.93 291.563 744.484 294.167 740.01 296C735.61 297.76 730.367 298.64 724.28 298.64ZM742.65 329.55V326.91C742.65 323.537 741.55 321.19 739.35 319.87C737.224 318.55 734.29 317.89 730.55 317.89H713.5C710.2 317.89 707.414 317.633 705.14 317.12C702.94 316.607 701.18 315.873 699.86 314.92C698.54 313.967 697.587 312.83 697 311.51C696.414 310.263 696.12 308.907 696.12 307.44C696.12 304.507 697.074 302.307 698.98 300.84C700.887 299.3 703.454 298.273 706.68 297.76C709.907 297.247 713.464 297.137 717.35 297.43L724.28 298.64C719.66 298.787 716.214 299.19 713.94 299.85C711.74 300.437 710.64 301.647 710.64 303.48C710.64 304.58 711.08 305.46 711.96 306.12C712.84 306.707 714.087 307 715.7 307H733.63C738.544 307 742.724 307.513 746.17 308.54C749.69 309.64 752.367 311.437 754.2 313.93C756.034 316.497 756.95 319.98 756.95 324.38V329.55H742.65ZM724.28 288.3C727.434 288.3 730.184 287.787 732.53 286.76C734.95 285.733 736.82 284.267 738.14 282.36C739.46 280.38 740.12 278.033 740.12 275.32C740.12 272.533 739.46 270.15 738.14 268.17C736.82 266.19 734.987 264.687 732.64 263.66C730.294 262.56 727.507 262.01 724.28 262.01C721.127 262.01 718.34 262.56 715.92 263.66C713.5 264.687 711.63 266.19 710.31 268.17C708.99 270.15 708.33 272.533 708.33 275.32C708.33 278.033 708.99 280.38 710.31 282.36C711.63 284.267 713.464 285.733 715.81 286.76C718.23 287.787 721.054 288.3 724.28 288.3ZM819.662 288.85H833.522C832.936 292.59 831.359 295.927 828.792 298.86C826.299 301.793 822.889 304.103 818.562 305.79C814.236 307.477 808.956 308.32 802.722 308.32C795.756 308.32 789.596 307.22 784.242 305.02C778.889 302.747 774.709 299.483 771.702 295.23C768.696 290.977 767.192 285.843 767.192 279.83C767.192 273.817 768.659 268.683 771.592 264.43C774.526 260.103 778.596 256.803 783.802 254.53C789.082 252.257 795.242 251.12 802.282 251.12C809.469 251.12 815.446 252.257 820.212 254.53C824.979 256.803 828.499 260.25 830.772 264.87C833.119 269.417 834.109 275.247 833.742 282.36H781.602C781.969 285.147 782.996 287.677 784.682 289.95C786.442 292.223 788.789 294.02 791.722 295.34C794.729 296.66 798.286 297.32 802.392 297.32C806.939 297.32 810.716 296.55 813.722 295.01C816.802 293.397 818.782 291.343 819.662 288.85ZM801.622 262.01C796.342 262.01 792.052 263.183 788.752 265.53C785.452 267.803 783.326 270.627 782.372 274H819.552C819.186 270.333 817.426 267.437 814.272 265.31C811.192 263.11 806.976 262.01 801.622 262.01ZM893.246 308.21C889.873 308.21 886.646 307.77 883.566 306.89C880.56 306.01 877.92 304.763 875.646 303.15C873.373 301.537 871.576 299.593 870.256 297.32C868.936 294.973 868.276 292.37 868.276 289.51C868.276 285.99 869.12 283.02 870.806 280.6C872.493 278.107 874.803 276.09 877.736 274.55C880.743 273.01 884.19 271.873 888.076 271.14C891.963 270.333 896.106 269.857 900.506 269.71L900.946 270.37C896.766 270.223 892.843 269.893 889.176 269.38C885.583 268.793 882.43 267.877 879.716 266.63C877.076 265.383 874.986 263.77 873.446 261.79C871.98 259.737 871.246 257.17 871.246 254.09C871.246 250.13 872.493 246.683 874.986 243.75C877.48 240.743 881.073 238.433 885.766 236.82C890.46 235.207 896.033 234.4 902.486 234.4C906.96 234.4 911.03 234.84 914.696 235.72C918.436 236.6 921.626 237.957 924.266 239.79C926.98 241.55 929.07 243.787 930.536 246.5C932.003 249.14 932.736 252.257 932.736 255.85H919.316C919.243 252.843 917.703 250.57 914.696 249.03C911.763 247.417 907.766 246.61 902.706 246.61C897.28 246.61 893.173 247.49 890.386 249.25C887.6 250.937 886.206 253.283 886.206 256.29C886.206 258.417 886.866 260.25 888.186 261.79C889.506 263.33 891.523 264.503 894.236 265.31C897.023 266.117 900.506 266.52 904.686 266.52H947.476V274.77H933.616V307H920.306C920.013 304.873 919.793 302.783 919.646 300.73C919.5 298.603 919.39 296.257 919.316 293.69C919.316 291.05 919.316 287.897 919.316 284.23L920.306 287.2C919.72 289.693 918.803 292.187 917.556 294.68C916.383 297.173 914.733 299.447 912.606 301.5C910.553 303.553 907.913 305.203 904.686 306.45C901.533 307.623 897.72 308.21 893.246 308.21ZM899.296 297.21C903.77 297.21 907.473 296.44 910.406 294.9C913.34 293.287 915.54 291.233 917.006 288.74C918.546 286.173 919.316 283.533 919.316 280.82V274.77H904.686C898.306 274.77 893.173 275.723 889.286 277.63C885.4 279.463 883.456 282.397 883.456 286.43C883.456 289.583 884.813 292.187 887.526 294.24C890.24 296.22 894.163 297.21 899.296 297.21ZM980.312 283.02H995.162C995.456 285.513 996.592 287.787 998.572 289.84C1000.63 291.82 1003.3 293.397 1006.6 294.57C1009.9 295.67 1013.61 296.22 1017.71 296.22C1021.45 296.22 1024.53 295.817 1026.95 295.01C1029.37 294.203 1031.17 293.067 1032.34 291.6C1033.52 290.133 1034.1 288.373 1034.1 286.32C1034.1 284.34 1033.37 282.837 1031.9 281.81C1030.44 280.71 1028.13 279.83 1024.97 279.17C1021.82 278.437 1017.68 277.703 1012.54 276.97C1008.51 276.383 1004.7 275.577 1001.1 274.55C997.509 273.45 994.319 272.057 991.532 270.37C988.819 268.683 986.656 266.63 985.042 264.21C983.502 261.717 982.732 258.783 982.732 255.41C982.732 251.23 983.906 247.563 986.252 244.41C988.672 241.257 992.229 238.8 996.922 237.04C1001.62 235.28 1007.37 234.4 1014.19 234.4C1024.46 234.4 1032.34 236.6 1037.84 241C1043.42 245.327 1046.13 251.303 1045.98 258.93H1031.68C1031.39 254.603 1029.56 251.487 1026.18 249.58C1022.88 247.673 1018.7 246.72 1013.64 246.72C1008.95 246.72 1005.06 247.417 1001.98 248.81C998.976 250.203 997.472 252.587 997.472 255.96C997.472 257.28 997.839 258.453 998.572 259.48C999.306 260.433 1000.55 261.277 1002.31 262.01C1004.07 262.743 1006.46 263.44 1009.46 264.1C1012.47 264.76 1016.21 265.42 1020.68 266.08C1024.86 266.667 1028.64 267.473 1032.01 268.5C1035.46 269.453 1038.39 270.737 1040.81 272.35C1043.31 273.89 1045.21 275.87 1046.53 278.29C1047.85 280.71 1048.51 283.68 1048.51 287.2C1048.51 291.527 1047.38 295.303 1045.1 298.53C1042.9 301.683 1039.46 304.14 1034.76 305.9C1030.14 307.66 1024.13 308.54 1016.72 308.54C1011.44 308.54 1006.79 307.99 1002.75 306.89C998.719 305.717 995.236 304.177 992.302 302.27C989.369 300.363 986.986 298.273 985.152 296C983.319 293.727 981.999 291.453 981.192 289.18C980.459 286.907 980.166 284.853 980.312 283.02ZM1099.37 308.32C1094.53 308.32 1090.39 307.477 1086.94 305.79C1083.57 304.03 1080.82 301.757 1078.69 298.97C1076.56 296.11 1074.99 292.993 1073.96 289.62C1072.93 286.247 1072.42 282.947 1072.42 279.72C1072.42 275.687 1072.9 271.947 1073.85 268.5C1074.88 265.053 1076.45 262.047 1078.58 259.48C1080.71 256.84 1083.46 254.787 1086.83 253.32C1090.28 251.853 1094.46 251.12 1099.37 251.12C1104.87 251.12 1109.82 252.33 1114.22 254.75C1118.62 257.17 1122.1 260.543 1124.67 264.87C1127.31 269.123 1128.63 274.073 1128.63 279.72C1128.63 285.513 1127.31 290.573 1124.67 294.9C1122.03 299.153 1118.51 302.453 1114.11 304.8C1109.71 307.147 1104.8 308.32 1099.37 308.32ZM1094.75 297.21C1098.64 297.21 1102.01 296.477 1104.87 295.01C1107.8 293.543 1110.04 291.527 1111.58 288.96C1113.19 286.32 1114 283.24 1114 279.72C1114 274.44 1112.31 270.187 1108.94 266.96C1105.64 263.733 1100.91 262.12 1094.75 262.12C1090.86 262.12 1087.31 262.817 1084.08 264.21C1080.93 265.603 1078.43 267.62 1076.6 270.26C1074.77 272.827 1073.85 275.98 1073.85 279.72C1073.85 283.24 1074.69 286.32 1076.38 288.96C1078.07 291.527 1080.49 293.543 1083.64 295.01C1086.79 296.477 1090.5 297.21 1094.75 297.21ZM1059.55 252.33H1073.19L1073.85 266.85V329H1059.55V252.33ZM1165.77 308.21C1160.34 308.21 1155.39 307.037 1150.92 304.69C1146.52 302.27 1143 298.933 1140.36 294.68C1137.79 290.353 1136.51 285.367 1136.51 279.72C1136.51 273.927 1137.83 268.903 1140.47 264.65C1143.11 260.397 1146.67 257.097 1151.14 254.75C1155.69 252.33 1160.82 251.12 1166.54 251.12C1172.85 251.12 1177.91 252.403 1181.72 254.97C1185.61 257.463 1188.43 260.873 1190.19 265.2C1191.95 269.527 1192.83 274.367 1192.83 279.72C1192.83 282.947 1192.32 286.247 1191.29 289.62C1190.26 292.92 1188.69 296 1186.56 298.86C1184.43 301.647 1181.65 303.92 1178.2 305.68C1174.75 307.367 1170.61 308.21 1165.77 308.21ZM1170.39 297.21C1174.72 297.21 1178.46 296.477 1181.61 295.01C1184.76 293.543 1187.18 291.49 1188.87 288.85C1190.56 286.21 1191.4 283.167 1191.4 279.72C1191.4 275.98 1190.52 272.827 1188.76 270.26C1187.07 267.62 1184.65 265.64 1181.5 264.32C1178.42 262.927 1174.72 262.23 1170.39 262.23C1164.3 262.23 1159.57 263.843 1156.2 267.07C1152.83 270.223 1151.14 274.44 1151.14 279.72C1151.14 283.24 1151.95 286.32 1153.56 288.96C1155.17 291.527 1157.41 293.543 1160.27 295.01C1163.2 296.477 1166.58 297.21 1170.39 297.21ZM1191.4 252.33H1205.7V307H1192.39C1192.39 307 1192.28 306.303 1192.06 304.91C1191.91 303.443 1191.77 301.61 1191.62 299.41C1191.47 297.21 1191.4 295.047 1191.4 292.92V252.33Z" fill="white"/>
</svg>
