<svg width="296" height="87" viewBox="0 0 296 87" fill="none" xmlns="http://www.w3.org/2000/svg">
<path d="M136.2 51.9001C136.2 52.9001 136.9 53.3001 138.2 53.3001C140.2 53.3001 142.5 52.5001 145.2 50.9001C146.1 50.4001 146.9 49.8001 147.5 49.1001C147.6 49.2001 147.7 49.3001 147.7 49.5001C147.7 49.9001 147.6 50.2001 147.5 50.3001C145.3 52.1001 142.7 53.3001 139.6 53.9001C138.8 54.1001 137.9 54.2001 136.9 54.2001C135.9 54.2001 135.1 53.9001 134.4 53.3001C133.7 52.7001 133.4 52.1001 133.4 51.4001C133.4 50.8001 133.5 50.2001 133.6 49.7001C133.7 49.2001 134 48.6001 134.3 47.8001C135.8 44.4001 138.7 40.1001 142.7 34.9001L148 28.4001L153.6 22.0001L159.1 16.1001L164.3 10.8001L168.8 6.30009C168.1 6.80009 167.4 7.3001 166.6 7.9001L164.1 10.0001L156.7 16.8001L144.5 28.4001C138.2 34.4001 131.2 41.9001 123.5 50.9001C121.8 52.9001 120.6 53.9001 120 53.9001C119.8 53.9001 119.7 53.8001 119.5 53.6001C119.3 53.4001 119.2 52.8001 119.2 51.9001C119.2 51.0001 119.5 49.6001 120.1 47.8001C120.7 46.0001 121.6 43.9001 122.7 41.7001C123.8 39.5001 125.2 37.0001 126.8 34.4001C128.4 31.8001 130.2 29.1001 132.2 26.3001C136.4 20.4001 141.1 14.6001 146.3 8.7001L143.6 11.3001L139.3 15.7001L133.2 22.1001L125.3 30.7001C115.5 41.4001 107.2 48.6001 100.4 52.0001C97.6998 53.4001 95.2998 54.0001 93.1998 54.0001C91.0998 54.0001 89.4998 53.6001 88.3998 52.8001C87.2998 52.0001 86.7998 50.9001 86.7998 49.7001C86.7998 48.7001 87.0998 48.1001 87.5998 47.6001C88.3998 46.9001 89.0998 46.6001 89.5998 46.6001C90.9998 46.6001 91.6998 47.1001 91.6998 48.2001C91.6998 48.7001 91.4998 49.1001 91.0998 49.4001C90.6998 49.7001 90.1998 49.9001 89.5998 49.9001C88.9998 49.9001 88.4998 49.8001 88.0998 49.5001V49.9001C88.0998 50.9001 88.4998 51.7001 89.3998 52.3001C90.2998 52.9001 91.3998 53.2001 92.7998 53.2001C94.1998 53.2001 95.5998 53.0001 96.8998 52.6001C98.1998 52.2001 99.6998 51.5001 101.3 50.5001C102.9 49.5001 104.8 48.3001 106.8 46.7001C108.8 45.1001 111 43.2001 113.5 41.0001C115.9 38.7001 118.7 36.1001 121.6 33.0001L131.4 22.6001C137.2 16.2001 142.2 11.2001 146.3 7.6001C149.3 5.0001 151 3.7001 151.5 3.7001C152.1 3.7001 152.4 3.80009 152.4 4.00009C152.4 4.10009 152.3 4.3001 152 4.6001L151 5.4001C149.9 6.4001 148.8 7.6001 147.7 9.2001L144 14.5001L135.1 28.3001C126.8 41.8001 122.1 49.6001 121.1 51.9001L126.8 45.4001L131.7 39.9001L136.4 34.9001L141.3 29.9001L146.8 24.5001L153.5 18.1001C163.8 8.4001 170.3 3.6001 173 3.6001C173.2 3.6001 173.3 3.7001 173.3 3.9001C173.3 4.1001 173 4.40009 172.4 4.80009C171.8 5.20009 171 5.90009 169.9 6.80009C168.8 7.80009 167.4 9.10009 165.8 11.0001C164.1 12.8001 162.4 14.8001 160.6 17.0001L155.2 23.9001L149.8 31.3001C141.6 42.8001 137.3 48.9001 136.9 49.7001C136.5 50.8001 136.2 51.5001 136.2 51.9001Z" fill="black"/>
<path d="M161.1 41.9999C157.9 45.8999 156.3 48.9999 156.3 51.4999C156.3 52.5999 156.8 53.1999 157.8 53.1999C161.1 53.1999 165.9 49.4999 172.1 42.1999L175 38.7999C176.4 36.6999 177 35.1999 177 34.2999C177 32.6999 176.2 31.8999 174.6 31.8999C172.4 31.8999 169.4 33.6999 165.3 37.3999C164 38.7999 162.5 40.2999 161.1 41.9999ZM170.5 54.2999C168.2 54.2999 167.1 53.5999 167.1 52.1999C167.1 50.9999 167.8 49.5999 169.1 47.7999L171.2 45.0999L170.9 44.9999C167.1 49.6999 163.5 52.5999 160.1 53.7999C159.2 54.0999 158.4 54.2999 157.7 54.2999C154.9 54.2999 153.5 52.7999 153.5 49.7999C153.5 46.2999 154.9 42.9999 157.7 39.7999C161.8 34.9999 166 32.1999 170.1 31.2999C171.3 31.0999 172.4 30.8999 173.3 30.8999C174.2 30.8999 174.9 30.9999 175.4 31.0999C175.9 31.1999 176.4 31.3999 176.7 31.5999C177.5 32.0999 177.9 32.7999 177.9 33.4999C177.9 34.2999 177.8 34.9999 177.5 35.6999L180.8 31.5999C181.4 31.7999 182 31.8999 182.5 31.8999C183.8 31.8999 184.8 31.8999 185.4 31.7999L173.9 45.5999C171.2 48.7999 169.8 50.9999 169.8 52.2999C169.8 52.9999 170.2 53.3999 171.1 53.3999C172 53.3999 173 53.0999 174.1 52.5999C175.2 52.0999 176.3 51.3999 177.4 50.5999C178.5 49.7999 179.6 48.8999 180.6 47.8999C181.7 46.8999 182.6 45.8999 183.5 44.9999C184.4 43.9999 185.2 43.1999 185.9 42.2999L187.5 40.4999L188.2 41.0999L186.5 43.0999C180.2 50.4999 174.8 54.2999 170.5 54.2999Z" fill="black"/>
<path d="M204.3 47.5003L207.3 44.5003C208.2 43.6003 209 42.7003 209.6 42.0003L211 40.4003L211.7 41.0003C211.3 41.4003 210.7 42.0003 210 42.8003L207.6 45.5003C202.1 51.3003 197.3 54.3003 193.3 54.3003C192 54.3003 191 54.0003 190.2 53.3003C189.4 52.7003 189 51.8003 189 50.8003C189 47.4003 193.9 42.4003 203.8 35.8003C199 35.0003 195.7 34.2003 193.8 33.4003C192.3 36.5003 190 39.6003 186.9 42.8003C186.2 43.5003 185.7 44.0003 185.6 44.0003C185.4 44.1003 185.3 44.1003 185.3 44.2003C185.3 44.2003 185.2 44.2003 185.2 44.0003C185.2 43.8003 185.2 43.7003 185.2 43.6003C185.2 43.5003 185.3 43.4003 185.3 43.3003C186.4 42.1003 187.4 40.9003 188.3 39.8003C190.4 37.2003 192 34.8003 193 32.8003C192.2 32.3003 191.7 31.7003 191.6 31.1003C191.5 30.5003 191.5 30.0003 191.6 29.5003C191.7 29.0003 191.9 28.5003 192.2 28.1003C192.8 27.2003 193.5 26.8003 194.2 26.8003C195.6 26.8003 196.3 27.3003 196.3 28.4003C196.3 28.9003 196.2 29.4003 196 29.7003L195.4 30.8003C195 31.3003 194.8 31.9003 194.8 32.6003C194.8 33.0003 195.7 33.4003 197.4 33.8003C199.1 34.2003 200.4 34.4003 201.1 34.5003C202.7 34.8003 203.9 35.0003 204.9 35.0003C205.5 35.0003 205.9 35.2003 205.9 35.5003C205.9 35.7003 205.5 36.1003 204.8 36.7003C204.1 37.3003 203.3 38.0003 202.4 38.8003C201.5 39.6003 200.7 40.5003 199.8 41.4003C199 42.3003 198.2 43.3003 197.4 44.2003C196.7 45.2003 196 46.1003 195.4 47.0003C194 49.0003 197 49.1003 204.3 47.5003Z" fill="black"/>
<path d="M228.3 33.8001C228.3 32.5001 227.4 31.8001 225.8 31.8001C222.5 31.8001 218.3 35.2001 213.1 42.1001C210.9 45.0001 209.9 47.5001 209.9 49.9001C209.9 50.9001 210.2 51.7001 210.7 52.2001C211.7 53.1001 212.9 53.5001 214.4 53.5001C215.9 53.5001 217.5 53.2001 219.1 52.6001C220.8 52.0001 222.3 51.2001 223.7 50.3001C225.1 49.4001 226.4 48.4001 227.6 47.3001C228.8 46.2001 229.8 45.2001 230.7 44.2001C231.6 43.2001 232.2 42.4001 232.7 41.7001C233.2 41.0001 233.5 40.6001 233.6 40.5001L234.3 41.1001L233.4 42.3001C229.1 47.9001 224.4 51.6001 219.1 53.6001C217.3 54.2001 215.7 54.6001 214.1 54.6001C212.5 54.6001 211.3 54.4001 210.4 54.1001C209.5 53.8001 208.8 53.4001 208.2 52.8001C207.1 51.7001 206.5 50.3001 206.5 48.7001C206.5 45.5001 207.9 42.2001 210.7 38.8001C212.9 36.2001 215.5 34.2001 218.5 32.7001C220.9 31.6001 223.3 31.0001 225.6 31.1001C227.6 31.2001 228.9 31.9001 229.5 33.2001C230 34.5001 229.7 35.8001 228.6 36.9001C227.9 37.7001 227.1 38.1001 226.4 38.1001C224.8 38.1001 223.9 37.4001 223.9 36.1001C223.9 35.5001 224.1 34.9001 224.6 34.5001C225.1 34.1001 225.6 33.8001 226.1 33.8001C226.8 33.8001 227.5 33.9001 228.1 34.2001V33.8001H228.3Z" fill="black"/>
<path d="M229.5 53.6C228.9 53.5 228.2 53.4 227.5 53.4C226.2 53.4 225.1 53.5 224.3 53.7L261.9 0C263.4 0.2 265 0.2 266.6 0L232.9 46.8L233.1 47.2C234.8 45.2 236.4 43.4 237.9 41.9L241.9 37.8C244.2 35.6 246.1 34 247.5 33C249.7 31.6 251.7 30.9 253.6 30.9C255.6 30.9 256.9 31.6 257.4 33.1C258.4 35.9 255.2 41.3 247.8 49.2L246.5 50.7C245.8 51.5 245.4 52.1 245.4 52.6C245.4 52.8 245.6 53 246.1 53.2C246.6 53.3 247.3 53.4 248.2 53.4C249.1 53.4 250.2 53.1 251.4 52.5C252.6 51.9 253.8 51.2 255 50.3C256.2 49.4 257.3 48.4 258.3 47.4C259.3 46.3 260.3 45.3 261.1 44.4C261.9 43.4 262.6 42.6 263.2 41.9C263.8 41.2 264.2 40.7 264.4 40.5L265.1 41.1C264.9 41.3 264.5 41.8 263.9 42.6C263.3 43.3 262.6 44.2 261.7 45.2C260.8 46.2 259.8 47.2 258.7 48.3C257.6 49.4 256.4 50.4 255.2 51.3C252.3 53.4 249.7 54.4 247.4 54.4C245.5 54.4 244.2 53.9 243.3 52.9C243 52.6 242.9 52.2 242.9 51.8C242.9 51.4 243 50.9 243.1 50.3C243.2 49.7 243.5 49 244 48.2C245.2 46.3 246.7 44.2 248.6 42.1C250.5 40 251.8 38.5 252.4 37.7C253 36.9 253.5 36.3 253.9 35.7C254.6 34.6 254.9 33.8 254.9 33.2C254.9 32.4 254.4 32 253.3 32C251.9 32 250.2 32.6 248.4 33.9C243.9 36.9 238.6 42.2 232.6 49.6L229.5 53.6Z" fill="black"/>
<path d="M268.3 41.9999C265.1 45.8999 263.5 48.9999 263.5 51.4999C263.5 52.5999 264 53.1999 265 53.1999C268.3 53.1999 273.1 49.4999 279.3 42.1999L282.2 38.7999C283.6 36.6999 284.2 35.1999 284.2 34.2999C284.2 32.6999 283.4 31.8999 281.8 31.8999C279.6 31.8999 276.6 33.6999 272.5 37.3999C271.2 38.7999 269.8 40.2999 268.3 41.9999ZM277.7 54.2999C275.4 54.2999 274.3 53.5999 274.3 52.1999C274.3 50.9999 275 49.5999 276.3 47.7999L278.4 45.0999L278.1 44.9999C274.3 49.6999 270.7 52.5999 267.3 53.7999C266.4 54.0999 265.6 54.2999 264.9 54.2999C262.1 54.2999 260.7 52.7999 260.7 49.7999C260.7 46.2999 262.1 42.9999 264.9 39.7999C269 34.9999 273.2 32.1999 277.3 31.2999C278.5 31.0999 279.6 30.8999 280.5 30.8999C281.4 30.8999 282.1 30.9999 282.6 31.0999C283.1 31.1999 283.6 31.3999 283.9 31.5999C284.7 32.0999 285.1 32.7999 285.1 33.4999C285.1 34.2999 285 34.9999 284.7 35.6999L288 31.5999C288.6 31.7999 289.2 31.8999 289.7 31.8999C291 31.8999 292 31.8999 292.6 31.7999L281.1 45.5999C278.4 48.7999 277 50.9999 277 52.2999C277 52.9999 277.4 53.3999 278.3 53.3999C279.2 53.3999 280.2 53.0999 281.3 52.5999C282.4 52.0999 283.5 51.3999 284.6 50.5999C285.7 49.7999 286.8 48.8999 287.8 47.8999C288.9 46.8999 289.8 45.8999 290.7 44.9999C291.6 43.9999 292.4 43.1999 293.1 42.2999L294.7 40.4999L295.4 41.0999L293.7 43.0999C287.4 50.4999 282 54.2999 277.7 54.2999Z" fill="black"/>
<path d="M19.3 22.6001C14.4 27.9001 11.5 28.7001 11.5 28.7001C11.5 28.7001 14.2 30.4001 18.7 29.3001C18.2 30.2001 17.8 31.2001 17.4 32.2001C17.2 32.7001 17 33.2001 16.8 33.6001C9.4 33.5001 3.2 29.7001 0 27.3001C5.4 29.7001 13.2 22.3001 19.4 17.4001C32.9 7.00006 42.8 15.1001 42.8 15.1001C37.8 12.0001 28.2 12.8001 19.3 22.6001Z" fill="#B49561"/>
<path d="M27.8 9.50009C22.3 10.3001 20.2 9.4001 20.2 9.4001C20.2 9.4001 21 11.7001 24.2 13.2001C23.5 13.5001 22.8 13.9001 22 14.3001C21.7 14.5001 21.3 14.7001 21 14.9001C16.6 11.3001 14.7 6.1001 14 3.1001C16.1 7.1001 24.3 6.40009 30.3 6.50009C43.3 6.70009 45.4 16.3001 45.4 16.3001C44 12.1001 37.8 8.00009 27.8 9.50009Z" fill="#A17A3A"/>
<path d="M18.5001 32.6001C15.2001 41.1001 11.9001 53.1001 5.1001 53.9001C9.8001 54.4001 18.4001 54.4001 25.9001 49.9001C26.1001 47.7001 26.2001 45.3001 26.3001 43.0001C22.0001 48.4001 17.3001 48.4001 17.3001 48.4001C17.3001 48.4001 19.7001 45.9001 21.4001 37.8001C24.5001 22.8001 33.5001 16.3001 40.3001 16.5001C40.4001 16.5001 25.7001 14.3001 18.5001 32.6001Z" fill="#A17A3A"/>
<path d="M27.8002 38.5003C27.3002 47.6003 27.9002 60.0003 21.7002 62.9003C26.8002 61.8003 36.1002 58.7003 41.8002 50.6003C49.0002 40.3003 40.4002 28.5003 42.0002 19.9003C40.6002 22.6003 39.3002 27.3003 39.7002 35.3003C40.4002 51.1003 31.5002 53.9003 31.5002 53.9003C31.5002 53.9003 33.0002 50.8003 32.1002 42.5003C30.3002 27.3003 36.9002 18.3003 43.4002 16.3003C43.5002 16.4003 28.9002 18.9003 27.8002 38.5003Z" fill="#B49561"/>
<path d="M70.1001 42.1001C75.0001 36.8001 77.9001 36.0001 77.9001 36.0001C77.9001 36.0001 75.2001 34.3001 70.7001 35.4001C71.2001 34.5001 71.6001 33.5001 72.0001 32.5001C72.2001 32.0001 72.4001 31.5001 72.6001 31.1001C79.9001 31.2001 86.0001 34.9001 89.3001 37.3001C83.9001 35.1001 76.2001 42.4001 70.0001 47.2001C56.5001 57.6001 46.6001 49.5001 46.6001 49.5001C51.6001 52.7001 61.2001 51.9001 70.1001 42.1001Z" fill="#B49561"/>
<path d="M61.6 55.1999C67.1 54.3999 69.2 55.2999 69.2 55.2999C69.2 55.2999 68.4 52.9999 65.2 51.4999C65.9 51.1999 66.6 50.7999 67.4 50.3999C67.7 50.1999 68.1 49.9999 68.4 49.7999C72.8 53.3999 74.7 58.5999 75.4 61.5999C73.3 57.5999 65.1 58.2999 59.1 58.1999C46.1 57.9999 44 48.3999 44 48.3999C45.4 52.5999 51.5 56.6999 61.6 55.1999Z" fill="#A17A3A"/>
<path d="M70.9001 32.1003C74.2001 23.6003 77.5001 11.6003 84.3001 10.8003C79.6001 10.3003 71.0001 10.3003 63.5001 14.8003C63.3001 17.0003 63.2001 19.4003 63.1001 21.7003C67.4001 16.3003 72.1001 16.3003 72.1001 16.3003C72.1001 16.3003 69.7001 18.8003 68.0001 26.9003C64.9001 41.9003 55.9001 48.4003 49.1001 48.2003C49.0001 48.2003 63.7001 50.4003 70.9001 32.1003Z" fill="#A17A3A"/>
<path d="M61.5999 26.2003C62.0999 17.1003 61.4999 4.70029 67.6999 1.80029C62.5999 2.90029 53.2999 6.0003 47.5999 14.1003C40.3999 24.4003 48.9999 36.2003 47.3999 44.8003C48.7999 42.1003 50.0999 37.4003 49.6999 29.4003C48.9999 13.6003 57.8999 10.8003 57.8999 10.8003C57.8999 10.8003 56.3999 13.9003 57.2999 22.2003C59.0999 37.4003 52.4999 46.4003 45.9999 48.4003C45.8999 48.3003 60.4999 45.8003 61.5999 26.2003Z" fill="#B49561"/>
<path d="M12.6 73.7001H9V86.1001H7.2V73.7001H3.5V72.1001H12.6V73.7001Z" fill="black"/>
<path d="M18.8 78.9001H20.9C21.6 78.9001 22.2 78.7001 22.7 78.2001C23.1 77.7001 23.4 77.1001 23.4 76.3001C23.4 74.5001 22.6 73.6001 21 73.6001H18.9V78.9001H18.8ZM21.3 80.5001H18.8V86.1001H17V72.1001H20.9C22.3 72.1001 23.3 72.5001 24 73.2001C24.7 73.9001 25.1 75.0001 25.1 76.3001C25.1 77.2001 24.9 77.9001 24.5 78.6001C24.1 79.2001 23.6 79.7001 22.9 80.1001L25.6 86.0001V86.1001H23.7L21.3 80.5001Z" fill="black"/>
<path d="M32.1002 80.9001H35.9002L34.0002 74.6001L32.1002 80.9001ZM36.3002 82.5001H31.6002L30.5002 86.1001H28.7002L33.2002 72.1001H34.7002L39.2002 86.1001H37.4002L36.3002 82.5001Z" fill="black"/>
<path d="M45.3 73.7001V84.6001H46.7C47.9 84.6001 48.8 84.2001 49.4 83.5001C50 82.8001 50.3 81.7001 50.3 80.4001V77.9001C50.3 76.4001 50 75.4001 49.5 74.7001C48.9 74.0001 48.1 73.7001 46.9 73.7001H45.3ZM43.5 86.1001V72.1001H46.8C48.4 72.1001 49.7 72.6001 50.6 73.6001C51.5 74.6001 52 76.1001 52 77.9001V80.2001C52 82.0001 51.5 83.5001 50.6 84.5001C49.7 85.5001 48.4 86.0001 46.6 86.0001H43.5V86.1001Z" fill="black"/>
<path d="M58.9001 72.1001H57.1001V86.1001H58.9001V72.1001Z" fill="black"/>
<path d="M72.4999 73.7001H68.7999V86.1001H67.0999V73.7001H63.3999V72.1001H72.4999V73.7001Z" fill="black"/>
<path d="M78.8 72.1001H77V86.1001H78.8V72.1001Z" fill="black"/>
<path d="M91.4999 77.8999C91.4999 76.3999 91.2999 75.2999 90.7999 74.5999C90.2999 73.8999 89.5999 73.4999 88.5999 73.4999C87.5999 73.4999 86.8999 73.8999 86.3999 74.5999C85.8999 75.2999 85.6999 76.3999 85.5999 77.7999V80.2999C85.5999 81.6999 85.7999 82.7999 86.2999 83.5999C86.7999 84.2999 87.4999 84.6999 88.4999 84.6999C89.4999 84.6999 90.1999 84.3999 90.6999 83.6999C91.1999 82.9999 91.3999 81.9999 91.3999 80.4999V77.8999H91.4999ZM93.2999 80.2999C93.2999 82.1999 92.8999 83.6999 92.0999 84.6999C91.2999 85.6999 90.0999 86.1999 88.5999 86.1999C87.1999 86.1999 85.9999 85.6999 85.1999 84.6999C84.3999 83.6999 83.8999 82.2999 83.8999 80.4999V77.8999C83.8999 75.9999 84.2999 74.5999 85.0999 73.4999C85.8999 72.3999 87.0999 71.8999 88.5999 71.8999C90.0999 71.8999 91.1999 72.3999 91.9999 73.3999C92.7999 74.3999 93.1999 75.8999 93.2999 77.6999V80.2999Z" fill="black"/>
<path d="M107.5 86.1001H105.7L100.1 75.3001V86.1001H98.2998V72.1001H100.1L105.7 82.9001V72.1001H107.5V86.1001Z" fill="black"/>
<path d="M115.1 80.9001H118.9L117 74.6001L115.1 80.9001ZM119.4 82.5001H114.7L113.6 86.1001H111.8L116.3 72.1001H117.8L122.3 86.1001H120.5L119.4 82.5001Z" fill="black"/>
<path d="M128.3 84.6001H133.8V86.1001H126.5V72.1001H128.3V84.6001Z" fill="black"/>
<path d="M153.2 73.7001H149.5V86.1001H147.8V73.7001H144.1V72.1001H153.2V73.7001Z" fill="black"/>
<path d="M166.8 86.1001H165V79.6001H159.4V86.1001H157.6V72.1001H159.4V78.1001H165V72.1001H166.8V86.1001Z" fill="black"/>
<path d="M174.4 80.9001H178.2L176.3 74.6001L174.4 80.9001ZM178.7 82.5001H174L172.9 86.1001H171.1L175.6 72.1001H177.1L181.6 86.1001H179.8L178.7 82.5001Z" fill="black"/>
<path d="M187.7 72.1001H185.9V86.1001H187.7V72.1001Z" fill="black"/>
<path d="M202.2 72.1001L205.9 83.5001L209.5 72.1001H211.8V86.1001H210V80.7001L210.2 75.2001L206.5 86.1001H205.2L201.6 75.3001L201.7 80.7001V86.1001H200V72.1001H202.2Z" fill="black"/>
<path d="M219.4 80.9001H223.2L221.3 74.6001L219.4 80.9001ZM223.7 82.5001H219L217.9 86.1001H216.1L220.6 72.1001H222.1L226.6 86.1001H224.8L223.7 82.5001Z" fill="black"/>
<path d="M236.9 82.6C236.9 81.9 236.7 81.4 236.3 81C235.9 80.6 235.2 80.3 234.3 79.9C233.3 79.5 232.6 79.2 232 78.8C231.5 78.4 231.1 78 230.8 77.5C230.5 77 230.4 76.4 230.4 75.8C230.4 74.7 230.8 73.8 231.5 73.1C232.2 72.4 233.2 72 234.4 72C235.2 72 235.9 72.2 236.6 72.6C237.2 73 237.7 73.5 238.1 74.1C238.4 74.8 238.6 75.5 238.6 76.2H236.8C236.8 75.3 236.6 74.7 236.2 74.2C235.8 73.7 235.2 73.5 234.4 73.5C233.7 73.5 233.1 73.7 232.8 74.1C232.4 74.5 232.2 75.1 232.2 75.8C232.2 76.4 232.4 76.9 232.8 77.3C233.2 77.7 233.9 78.1 234.8 78.4C236.2 78.9 237.2 79.4 237.7 80.1C238.3 80.8 238.6 81.6 238.6 82.7C238.6 83.8 238.2 84.7 237.5 85.4C236.8 86.1 235.8 86.4 234.5 86.4C233.7 86.4 232.9 86.2 232.3 85.9C231.6 85.5 231.1 85 230.7 84.4C230.3 83.8 230.1 83 230.1 82.2H231.9C231.9 83.1 232.1 83.7 232.6 84.2C233.1 84.7 233.7 84.9 234.6 84.9C235.4 84.9 236 84.7 236.3 84.3C236.7 83.8 236.9 83.3 236.9 82.6Z" fill="black"/>
<path d="M249.5 82.6C249.5 81.9 249.3 81.4 248.9 81C248.5 80.6 247.8 80.3 246.9 79.9C245.9 79.5 245.2 79.2 244.6 78.8C244.1 78.4 243.7 78 243.4 77.5C243.1 77 243 76.4 243 75.8C243 74.7 243.4 73.8 244.1 73.1C244.8 72.4 245.8 72 247 72C247.8 72 248.5 72.2 249.2 72.6C249.8 73 250.3 73.5 250.7 74.1C251 74.8 251.2 75.5 251.2 76.2H249.5C249.5 75.3 249.3 74.7 248.9 74.2C248.5 73.7 247.9 73.5 247.1 73.5C246.4 73.5 245.8 73.7 245.5 74.1C245.1 74.5 244.9 75.1 244.9 75.8C244.9 76.4 245.1 76.9 245.5 77.3C245.9 77.7 246.6 78.1 247.5 78.4C248.9 78.9 249.9 79.4 250.4 80.1C251 80.8 251.3 81.6 251.3 82.7C251.3 83.8 250.9 84.7 250.2 85.4C249.5 86.1 248.5 86.4 247.2 86.4C246.4 86.4 245.6 86.2 245 85.9C244.3 85.5 243.8 85 243.4 84.4C243 83.8 242.8 83 242.8 82.2H244.6C244.6 83.1 244.8 83.7 245.3 84.2C245.8 84.7 246.4 84.9 247.3 84.9C248.1 84.9 248.7 84.7 249 84.3C249.3 83.8 249.5 83.3 249.5 82.6Z" fill="black"/>
<path d="M258.1 80.9001H261.9L260 74.6001L258.1 80.9001ZM262.4 82.5001H257.7L256.6 86.1001H254.8L259.3 72.1001H260.8L265.3 86.1001H263.5L262.4 82.5001Z" fill="black"/>
<path d="M278.3 84.4L278 84.8C277.1 85.8 275.8 86.3 274.1 86.3C272.6 86.3 271.4 85.8 270.5 84.8C269.6 83.8 269.2 82.4 269.2 80.6V77.9C269.2 75.9 269.6 74.5 270.4 73.5C271.2 72.5 272.4 72 273.9 72C275.2 72 276.3 72.4 277 73.1C277.8 73.8 278.2 74.9 278.2 76.3H276.5C276.4 75.4 276.2 74.8 275.8 74.3C275.4 73.8 274.8 73.6 273.9 73.6C272.9 73.6 272.2 73.9 271.7 74.6C271.2 75.3 271 76.3 271 77.7V80.5C271 81.9 271.3 83 271.8 83.7C272.3 84.5 273.1 84.8 274.1 84.8C275 84.8 275.8 84.6 276.3 84.1L276.6 83.9V80.6H274V79.1H278.3V84.4Z" fill="black"/>
<path d="M290.2 79.6001H285.3V84.6001H291V86.1001H283.5V72.1001H290.9V73.7001H285.3V78.1001H290.2V79.6001Z" fill="black"/>
</svg>
