<svg width="1303" height="271" viewBox="0 0 1303 271" fill="none" xmlns="http://www.w3.org/2000/svg">
<path d="M409.2 262.92C400.24 262.92 391.373 261.8 382.6 259.56C373.827 257.507 365.8 254.147 358.52 249.48C351.24 244.813 345.453 238.84 341.16 231.56C336.867 224.28 334.72 215.507 334.72 205.24C334.72 195.533 336.68 186.2 340.6 177.24C344.52 168.28 349.56 159.88 355.72 152.04C362.067 144.2 368.6 137.2 375.32 131.04C384.84 122.453 395.667 114.147 407.8 106.12C419.933 98.0933 432.813 90.9067 446.44 84.56C460.253 78.2133 474.16 73.1733 488.16 69.44C502.16 65.7067 515.6 63.84 528.48 63.84C534.08 63.84 540.147 64.68 546.68 66.36C553.4 68.04 559.093 70.84 563.76 74.76C568.613 78.68 571.04 84.1867 571.04 91.28C571.04 97.6267 568.893 103.88 564.6 110.04C560.307 116.2 554.613 121.987 547.52 127.4C540.427 132.813 532.587 137.853 524 142.52C515.413 147 506.64 151.013 497.68 154.56C488.907 157.92 480.6 160.627 472.76 162.68C464.92 164.733 458.293 166.04 452.88 166.6C451.573 166.787 450.267 166.88 448.96 166.88C447.653 166.88 446.347 166.88 445.04 166.88C443.92 166.88 441.587 166.787 438.04 166.6C434.493 166.227 431.133 165.573 427.96 164.64C424.787 163.707 423.2 162.307 423.2 160.44C423.2 159.507 423.76 159.04 424.88 159.04C425.627 159.04 426.56 159.227 427.68 159.6C428.8 159.973 430.2 160.16 431.88 160.16C436.36 160.16 442.147 159.04 449.24 156.8C456.333 154.56 463.987 151.573 472.2 147.84C480.6 143.92 488.907 139.533 497.12 134.68C505.333 129.827 512.893 124.693 519.8 119.28C526.707 113.867 532.213 108.453 536.32 103.04C540.427 97.6267 542.48 92.4933 542.48 87.64C542.48 83.16 540.893 79.8933 537.72 77.84C534.547 75.6 530.813 74.1067 526.52 73.36C522.227 72.6133 518.493 72.24 515.32 72.24C503.56 72.24 491.427 74.0133 478.92 77.56C466.6 81.1067 454.373 85.96 442.24 92.12C430.293 98.0933 418.907 104.813 408.08 112.28C397.44 119.747 387.92 127.4 379.52 135.24C373.733 140.653 367.947 146.907 362.16 154C356.56 160.907 351.893 168.373 348.16 176.4C344.427 184.24 342.56 192.36 342.56 200.76C342.56 210.093 344.8 217.933 349.28 224.28C353.76 230.627 359.547 235.76 366.64 239.68C373.92 243.413 381.76 246.12 390.16 247.8C398.56 249.48 406.587 250.32 414.24 250.32C419.093 250.32 423.947 250.133 428.8 249.76C433.653 249.2 438.413 248.547 443.08 247.8C455.587 245.56 466.973 242.853 477.24 239.68C487.693 236.507 497.68 232.4 507.2 227.36C516.72 222.32 526.427 215.787 536.32 207.76C537.067 207.387 537.533 207.2 537.72 207.2C538.653 207.2 539.12 207.76 539.12 208.88C539.12 209.44 538.747 210.28 538 211.4C530.72 219.24 521.853 226.333 511.4 232.68C501.133 239.027 490.12 244.44 478.36 248.92C466.6 253.4 454.747 256.853 442.8 259.28C430.853 261.707 419.653 262.92 409.2 262.92ZM589.73 252.28C585.063 252.28 581.33 250.973 578.53 248.36C575.917 245.747 574.61 242.2 574.61 237.72C574.61 234.92 575.263 231.747 576.57 228.2C577.877 224.653 579.93 221.013 582.73 217.28C587.023 211.493 591.13 206.453 595.05 202.16C598.97 197.68 601.863 193.667 603.73 190.12C605.597 186.76 606.53 184.147 606.53 182.28C606.53 179.48 604.85 178.08 601.49 178.08C598.503 178.08 594.21 179.76 588.61 183.12C583.197 186.293 577.503 191.52 571.53 198.8C568.17 202.907 564.343 207.76 560.05 213.36C555.757 218.773 552.303 223.813 549.69 228.48C548.57 230.533 547.45 232.68 546.33 234.92C545.397 236.973 543.903 240.52 541.85 245.56C541.29 246.867 539.703 248.267 537.09 249.76C534.663 251.253 532.703 252 531.21 252C530.09 252 529.53 251.533 529.53 250.6C529.53 249.853 529.81 248.92 530.37 247.8C531.303 246.12 533.357 240.8 536.53 231.84C539.89 222.88 544.09 212.333 549.13 200.2C546.33 203.187 543.25 206.453 539.89 210C536.53 213.36 532.797 216.627 528.69 219.8C527.943 220.547 527.103 220.92 526.17 220.92C525.05 220.92 524.49 220.453 524.49 219.52C524.49 218.773 525.33 217.747 527.01 216.44C531.303 212.707 535.597 208.787 539.89 204.68C544.183 200.387 548.85 195.067 553.89 188.72C555.57 184.613 558.557 178.733 562.85 171.08C567.143 163.24 572.277 154.56 578.25 145.04C584.223 135.52 590.85 126 598.13 116.48C605.41 106.96 612.877 98.4667 620.53 91C627.437 84.28 634.623 79.1467 642.09 75.6C649.743 72.0533 656.65 70.28 662.81 70.28C668.223 70.28 672.61 71.5867 675.97 74.2C679.33 76.8133 681.01 81.0133 681.01 86.8C681.01 92.5867 679.423 98.7467 676.25 105.28C673.077 111.813 669.717 117.04 666.17 120.96C658.143 129.92 648.623 138.133 637.61 145.6C626.783 153.067 615.397 159.413 603.45 164.64C603.077 164.827 602.703 165.013 602.33 165.2C601.957 165.2 601.583 165.2 601.21 165.2C599.903 165.2 599.25 164.733 599.25 163.8C599.25 162.68 600.277 161.747 602.33 161C609.423 157.827 616.61 153.907 623.89 149.24C631.357 144.573 638.263 139.533 644.61 134.12C650.957 128.707 656.277 123.293 660.57 117.88C665.61 111.533 668.877 106.4 670.37 102.48C671.863 98.3733 672.61 94.92 672.61 92.12C672.61 88.3867 670.557 86.52 666.45 86.52C664.583 86.52 661.877 87.4533 658.33 89.32C654.783 91 650.583 93.8 645.73 97.72C638.263 103.693 630.517 110.973 622.49 119.56C614.65 128.147 606.903 137.48 599.25 147.56C591.783 157.64 584.69 167.907 577.97 178.36C571.25 188.813 565.183 198.987 559.77 208.88C562.01 205.707 564.343 202.533 566.77 199.36C569.197 196 571.623 193.013 574.05 190.4C579.65 184.24 585.157 179.76 590.57 176.96C595.983 174.16 600.837 172.76 605.13 172.76C609.983 172.76 613.903 174.253 616.89 177.24C619.877 180.04 621.37 183.867 621.37 188.72C621.37 191.333 620.903 193.947 619.97 196.56C619.223 198.987 618.29 201.227 617.17 203.28C615.677 206.453 613.717 210.187 611.29 214.48C608.863 218.773 606.53 222.787 604.29 226.52C599.997 233.427 597.85 238.373 597.85 241.36C597.85 243.04 598.597 243.88 600.09 243.88C601.957 243.88 605.037 242.573 609.33 239.96C612.69 237.907 616.423 235.293 620.53 232.12C624.823 228.76 629.023 225.307 633.13 221.76C637.423 218.213 641.063 215.133 644.05 212.52C647.223 209.72 649.277 207.853 650.21 206.92C651.33 205.8 652.17 205.24 652.73 205.24C653.29 205.24 653.57 205.52 653.57 206.08C653.57 207.013 652.917 208.32 651.61 210C646.757 215.04 640.69 220.733 633.41 227.08C626.13 233.427 617.917 239.587 608.77 245.56C605.223 247.987 601.77 249.76 598.41 250.88C595.237 251.813 592.343 252.28 589.73 252.28ZM657.58 252.28C651.793 252.28 647.313 250.507 644.14 246.96C640.966 243.227 639.38 238.467 639.38 232.68C639.38 227.267 640.78 221.293 643.58 214.76C646.566 208.227 651.233 201.6 657.58 194.88C664.113 187.787 672.233 182.093 681.94 177.8C691.646 173.32 700.886 171.08 709.66 171.08C716.753 171.08 722.82 172.667 727.86 175.84C732.9 178.827 736.26 182.653 737.94 187.32C739.993 187.32 742.513 187.88 745.5 189C748.673 190.12 750.26 192.173 750.26 195.16C750.26 197.213 749.233 199.547 747.18 202.16C745.873 204.027 743.54 206.827 740.18 210.56C737.006 214.293 734.02 218.307 731.22 222.6C728.98 225.96 727.206 229.133 725.9 232.12C724.593 234.92 723.94 237.347 723.94 239.4C723.94 242.2 725.34 243.6 728.14 243.6C731.313 243.6 736.073 241.827 742.42 238.28C749.326 234.36 755.953 229.88 762.3 224.84C768.646 219.8 773.593 215.787 777.14 212.8C778.073 212.053 778.726 211.68 779.1 211.68C779.846 211.68 780.22 212.147 780.22 213.08C780.22 214.2 779.753 215.227 778.82 216.16C777.14 217.653 773.873 220.453 769.02 224.56C764.166 228.667 758.566 232.96 752.22 237.44C746.06 241.92 739.993 245.56 734.02 248.36C731.033 249.667 728.233 250.693 725.62 251.44C723.193 252 720.953 252.28 718.9 252.28C713.86 252.28 710.033 250.88 707.42 248.08C704.806 245.093 703.5 241.267 703.5 236.6C703.5 234.733 703.78 232.773 704.34 230.72C704.9 228.667 705.553 226.613 706.3 224.56L708.26 219.8C703.406 225.773 698.553 230.813 693.7 234.92C688.846 238.84 683.993 242.293 679.14 245.28C675.033 247.707 671.113 249.48 667.38 250.6C663.833 251.72 660.566 252.28 657.58 252.28ZM666.26 245C669.62 245 674.473 243.04 680.82 239.12C687.166 235.013 694.54 228.76 702.94 220.36C704.06 219.24 706.113 217.28 709.1 214.48C712.273 211.493 715.633 208.227 719.18 204.68C722.726 200.947 725.713 197.307 728.14 193.76C730.753 190.027 732.06 186.947 732.06 184.52C732.06 180.973 728.98 179.2 722.82 179.2C717.406 179.2 710.873 181.347 703.22 185.64C695.753 189.747 688.566 195.907 681.66 204.12C674.566 212.52 669.34 219.8 665.98 225.96C662.806 231.933 661.22 236.507 661.22 239.68C661.22 243.227 662.9 245 666.26 245ZM931.192 262.92C922.232 262.92 913.366 261.8 904.592 259.56C895.819 257.507 887.792 254.147 880.512 249.48C873.232 244.813 867.446 238.84 863.152 231.56C858.859 224.28 856.712 215.507 856.712 205.24C856.712 195.533 858.672 186.2 862.592 177.24C866.512 168.28 871.552 159.88 877.712 152.04C884.059 144.2 890.592 137.2 897.312 131.04C906.832 122.453 917.659 114.147 929.792 106.12C941.926 98.0933 954.806 90.9067 968.432 84.56C982.246 78.2133 996.152 73.1733 1010.15 69.44C1024.15 65.7067 1037.59 63.84 1050.47 63.84C1056.07 63.84 1062.14 64.68 1068.67 66.36C1075.39 68.04 1081.09 70.84 1085.75 74.76C1090.61 78.68 1093.03 84.1867 1093.03 91.28C1093.03 97.6267 1090.89 103.88 1086.59 110.04C1082.3 116.2 1076.61 121.987 1069.51 127.4C1062.42 132.813 1054.58 137.853 1045.99 142.52C1037.41 147 1028.63 151.013 1019.67 154.56C1010.9 157.92 1002.59 160.627 994.752 162.68C986.912 164.733 980.286 166.04 974.872 166.6C973.566 166.787 972.259 166.88 970.952 166.88C969.646 166.88 968.339 166.88 967.032 166.88C965.912 166.88 963.579 166.787 960.032 166.6C956.486 166.227 953.126 165.573 949.952 164.64C946.779 163.707 945.192 162.307 945.192 160.44C945.192 159.507 945.752 159.04 946.872 159.04C947.619 159.04 948.552 159.227 949.672 159.6C950.792 159.973 952.192 160.16 953.872 160.16C958.352 160.16 964.139 159.04 971.232 156.8C978.326 154.56 985.979 151.573 994.192 147.84C1002.59 143.92 1010.9 139.533 1019.11 134.68C1027.33 129.827 1034.89 124.693 1041.79 119.28C1048.7 113.867 1054.21 108.453 1058.31 103.04C1062.42 97.6267 1064.47 92.4933 1064.47 87.64C1064.47 83.16 1062.89 79.8933 1059.71 77.84C1056.54 75.6 1052.81 74.1067 1048.51 73.36C1044.22 72.6133 1040.49 72.24 1037.31 72.24C1025.55 72.24 1013.42 74.0133 1000.91 77.56C988.592 81.1067 976.366 85.96 964.232 92.12C952.286 98.0933 940.899 104.813 930.072 112.28C919.432 119.747 909.912 127.4 901.512 135.24C895.726 140.653 889.939 146.907 884.152 154C878.552 160.907 873.886 168.373 870.152 176.4C866.419 184.24 864.552 192.36 864.552 200.76C864.552 210.093 866.792 217.933 871.272 224.28C875.752 230.627 881.539 235.76 888.632 239.68C895.912 243.413 903.752 246.12 912.152 247.8C920.552 249.48 928.579 250.32 936.232 250.32C941.086 250.32 945.939 250.133 950.792 249.76C955.646 249.2 960.406 248.547 965.072 247.8C977.579 245.56 988.966 242.853 999.232 239.68C1009.69 236.507 1019.67 232.4 1029.19 227.36C1038.71 222.32 1048.42 215.787 1058.31 207.76C1059.06 207.387 1059.53 207.2 1059.71 207.2C1060.65 207.2 1061.11 207.76 1061.11 208.88C1061.11 209.44 1060.74 210.28 1059.99 211.4C1052.71 219.24 1043.85 226.333 1033.39 232.68C1023.13 239.027 1012.11 244.44 1000.35 248.92C988.592 253.4 976.739 256.853 964.792 259.28C952.846 261.707 941.646 262.92 931.192 262.92ZM1111.72 252.28C1107.06 252.28 1103.32 250.973 1100.52 248.36C1097.91 245.747 1096.6 242.2 1096.6 237.72C1096.6 234.92 1097.26 231.747 1098.56 228.2C1099.87 224.653 1101.92 221.013 1104.72 217.28C1109.02 211.493 1113.12 206.453 1117.04 202.16C1120.96 197.68 1123.86 193.667 1125.72 190.12C1127.59 186.76 1128.52 184.147 1128.52 182.28C1128.52 179.48 1126.84 178.08 1123.48 178.08C1120.5 178.08 1116.2 179.76 1110.6 183.12C1105.19 186.293 1099.5 191.52 1093.52 198.8C1090.16 202.907 1086.34 207.76 1082.04 213.36C1077.75 218.773 1074.3 223.813 1071.68 228.48C1070.56 230.533 1069.44 232.68 1068.32 234.92C1067.39 236.973 1065.9 240.52 1063.84 245.56C1063.28 246.867 1061.7 248.267 1059.08 249.76C1056.66 251.253 1054.7 252 1053.2 252C1052.08 252 1051.52 251.533 1051.52 250.6C1051.52 249.853 1051.8 248.92 1052.36 247.8C1053.3 246.12 1055.35 240.8 1058.52 231.84C1061.88 222.88 1066.08 212.333 1071.12 200.2C1068.32 203.187 1065.24 206.453 1061.88 210C1058.52 213.36 1054.79 216.627 1050.68 219.8C1049.94 220.547 1049.1 220.92 1048.16 220.92C1047.04 220.92 1046.48 220.453 1046.48 219.52C1046.48 218.773 1047.32 217.747 1049 216.44C1053.3 212.707 1057.59 208.787 1061.88 204.68C1066.18 200.387 1070.84 195.067 1075.88 188.72C1077.56 184.613 1080.55 178.733 1084.84 171.08C1089.14 163.24 1094.27 154.56 1100.24 145.04C1106.22 135.52 1112.84 126 1120.12 116.48C1127.4 106.96 1134.87 98.4667 1142.52 91C1149.43 84.28 1156.62 79.1467 1164.08 75.6C1171.74 72.0533 1178.64 70.28 1184.8 70.28C1190.22 70.28 1194.6 71.5867 1197.96 74.2C1201.32 76.8133 1203 81.0133 1203 86.8C1203 92.5867 1201.42 98.7467 1198.24 105.28C1195.07 111.813 1191.71 117.04 1188.16 120.96C1180.14 129.92 1170.62 138.133 1159.6 145.6C1148.78 153.067 1137.39 159.413 1125.44 164.64C1125.07 164.827 1124.7 165.013 1124.32 165.2C1123.95 165.2 1123.58 165.2 1123.2 165.2C1121.9 165.2 1121.24 164.733 1121.24 163.8C1121.24 162.68 1122.27 161.747 1124.32 161C1131.42 157.827 1138.6 153.907 1145.88 149.24C1153.35 144.573 1160.26 139.533 1166.6 134.12C1172.95 128.707 1178.27 123.293 1182.56 117.88C1187.6 111.533 1190.87 106.4 1192.36 102.48C1193.86 98.3733 1194.6 94.92 1194.6 92.12C1194.6 88.3867 1192.55 86.52 1188.44 86.52C1186.58 86.52 1183.87 87.4533 1180.32 89.32C1176.78 91 1172.58 93.8 1167.72 97.72C1160.26 103.693 1152.51 110.973 1144.48 119.56C1136.64 128.147 1128.9 137.48 1121.24 147.56C1113.78 157.64 1106.68 167.907 1099.96 178.36C1093.24 188.813 1087.18 198.987 1081.76 208.88C1084 205.707 1086.34 202.533 1088.76 199.36C1091.19 196 1093.62 193.013 1096.04 190.4C1101.64 184.24 1107.15 179.76 1112.56 176.96C1117.98 174.16 1122.83 172.76 1127.12 172.76C1131.98 172.76 1135.9 174.253 1138.88 177.24C1141.87 180.04 1143.36 183.867 1143.36 188.72C1143.36 191.333 1142.9 193.947 1141.96 196.56C1141.22 198.987 1140.28 201.227 1139.16 203.28C1137.67 206.453 1135.71 210.187 1133.28 214.48C1130.86 218.773 1128.52 222.787 1126.28 226.52C1121.99 233.427 1119.84 238.373 1119.84 241.36C1119.84 243.04 1120.59 243.88 1122.08 243.88C1123.95 243.88 1127.03 242.573 1131.32 239.96C1134.68 237.907 1138.42 235.293 1142.52 232.12C1146.82 228.76 1151.02 225.307 1155.12 221.76C1159.42 218.213 1163.06 215.133 1166.04 212.52C1169.22 209.72 1171.27 207.853 1172.2 206.92C1173.32 205.8 1174.16 205.24 1174.72 205.24C1175.28 205.24 1175.56 205.52 1175.56 206.08C1175.56 207.013 1174.91 208.32 1173.6 210C1168.75 215.04 1162.68 220.733 1155.4 227.08C1148.12 233.427 1139.91 239.587 1130.76 245.56C1127.22 247.987 1123.76 249.76 1120.4 250.88C1117.23 251.813 1114.34 252.28 1111.72 252.28ZM1179.57 252.28C1173.79 252.28 1169.31 250.507 1166.13 246.96C1162.96 243.227 1161.37 238.467 1161.37 232.68C1161.37 227.267 1162.77 221.293 1165.57 214.76C1168.56 208.227 1173.23 201.6 1179.57 194.88C1186.11 187.787 1194.23 182.093 1203.93 177.8C1213.64 173.32 1222.88 171.08 1231.65 171.08C1238.75 171.08 1244.81 172.667 1249.85 175.84C1254.89 178.827 1258.25 182.653 1259.93 187.32C1261.99 187.32 1264.51 187.88 1267.49 189C1270.67 190.12 1272.25 192.173 1272.25 195.16C1272.25 197.213 1271.23 199.547 1269.17 202.16C1267.87 204.027 1265.53 206.827 1262.17 210.56C1259 214.293 1256.01 218.307 1253.21 222.6C1250.97 225.96 1249.2 229.133 1247.89 232.12C1246.59 234.92 1245.93 237.347 1245.93 239.4C1245.93 242.2 1247.33 243.6 1250.13 243.6C1253.31 243.6 1258.07 241.827 1264.41 238.28C1271.32 234.36 1277.95 229.88 1284.29 224.84C1290.64 219.8 1295.59 215.787 1299.13 212.8C1300.07 212.053 1300.72 211.68 1301.09 211.68C1301.84 211.68 1302.21 212.147 1302.21 213.08C1302.21 214.2 1301.75 215.227 1300.81 216.16C1299.13 217.653 1295.87 220.453 1291.01 224.56C1286.16 228.667 1280.56 232.96 1274.21 237.44C1268.05 241.92 1261.99 245.56 1256.01 248.36C1253.03 249.667 1250.23 250.693 1247.61 251.44C1245.19 252 1242.95 252.28 1240.89 252.28C1235.85 252.28 1232.03 250.88 1229.41 248.08C1226.8 245.093 1225.49 241.267 1225.49 236.6C1225.49 234.733 1225.77 232.773 1226.33 230.72C1226.89 228.667 1227.55 226.613 1228.29 224.56L1230.25 219.8C1225.4 225.773 1220.55 230.813 1215.69 234.92C1210.84 238.84 1205.99 242.293 1201.13 245.28C1197.03 247.707 1193.11 249.48 1189.37 250.6C1185.83 251.72 1182.56 252.28 1179.57 252.28ZM1188.25 245C1191.61 245 1196.47 243.04 1202.81 239.12C1209.16 235.013 1216.53 228.76 1224.93 220.36C1226.05 219.24 1228.11 217.28 1231.09 214.48C1234.27 211.493 1237.63 208.227 1241.17 204.68C1244.72 200.947 1247.71 197.307 1250.13 193.76C1252.75 190.027 1254.05 186.947 1254.05 184.52C1254.05 180.973 1250.97 179.2 1244.81 179.2C1239.4 179.2 1232.87 181.347 1225.21 185.64C1217.75 189.747 1210.56 195.907 1203.65 204.12C1196.56 212.52 1191.33 219.8 1187.97 225.96C1184.8 231.933 1183.21 236.507 1183.21 239.68C1183.21 243.227 1184.89 245 1188.25 245Z" fill="white"/>
<path fill-rule="evenodd" clip-rule="evenodd" d="M49.8183 117.619C40.8096 100.41 15.6615 98.3315 4.03358 76.7466C3.70783 76.1659 2.8187 76.4891 2.95125 77.129C6.32617 94.4189 5.95602 122.807 9.7202 138.245C15.2383 160.904 23.7825 177.663 36.0856 188.499C23.144 194.86 13.8716 208.552 0.735877 215.093C0.188522 215.37 0.396659 216.198 1.00797 216.186C22.4579 215.922 44.7185 227.229 66.352 229.494C63.6862 238.526 67.4871 257.631 63.6889 265.734C63.4482 266.233 63.9456 266.688 64.3983 266.538C73.6484 263.209 97.199 269.498 120.098 249.858L120.397 249.596C128.642 256.98 138.456 263.771 140.55 268.986C140.626 269.19 141.298 269.195 141.376 268.992C143.543 263.811 153.475 257.178 161.82 249.927L162.115 250.194C184.697 270.198 208.346 264.286 217.541 267.762C217.991 267.92 218.496 267.472 218.28 266.97C214.617 258.807 218.701 239.765 216.197 230.692C237.864 228.773 260.286 217.824 281.729 218.43C282.351 218.452 282.561 217.627 282.018 217.342C268.994 210.586 259.942 196.748 247.098 190.186C259.578 179.548 268.406 162.934 274.28 140.36C278.274 124.985 278.374 96.5939 282.025 79.3602C282.157 78.7225 281.268 78.385 280.949 78.9606C268.961 100.357 243.789 102.028 234.517 119.095C235.275 110.329 235.485 101.278 235.327 92.1309C234.946 71.572 233.725 50.8468 232.746 36.1971C232.702 35.525 231.705 35.473 231.59 36.1549C226.273 70.3408 187.757 65.8369 180.251 94.8733C169.059 63.5013 147.209 33.9384 143.575 12.5991C143.453 11.9759 142.55 11.9687 142.435 12.59C138.443 33.8628 116.118 63.0781 104.431 94.2671C97.4069 65.1145 58.8192 69.0075 54.0382 34.7353C53.9501 34.0463 52.9531 34.0879 52.8816 34.7591C51.6744 49.3912 50.1157 70.0888 49.4228 90.6445C49.1184 99.7884 49.2002 108.842 49.8183 117.619Z" fill="#BDA375"/>
<path fill-rule="evenodd" clip-rule="evenodd" d="M142.477 80.3212C142.23 80.3192 141.975 80.4603 141.912 80.7682C137.686 99.6988 112.787 127.77 112.564 155.659C112.472 167.101 118.941 195.527 132.807 204.383C106.584 190.781 93.8208 143.119 98.4897 115.652C90.4791 106.518 77.9821 101.347 75.1714 86.4955C75.05 85.8393 74.086 85.8921 74.031 86.5635C73.2023 96.5457 72.2012 110.194 71.7348 123.758C70.6323 156.276 76.3629 188.855 109.047 202.899C118.643 205.255 130.043 206.486 141.468 206.577L142.477 80.3212Z" fill="#AA884E"/>
<path fill-rule="evenodd" clip-rule="evenodd" d="M51.6295 133.537C56.7315 164.843 71.0296 190.618 102.647 201.063C71.7099 206.78 38.6791 181.632 31.3379 151.452C29.1469 142.426 27.1537 126.568 24.6608 116.047C24.5116 115.424 25.3405 115.056 25.6942 115.587C32.2206 125.083 44.9207 127.575 51.6186 133.526L51.6295 133.537Z" fill="#AA884E"/>
<path fill-rule="evenodd" clip-rule="evenodd" d="M140.544 268.986C138.466 263.771 128.636 256.997 120.408 249.596L120.108 249.858C97.2096 269.499 73.6589 263.209 64.4089 266.538C63.9562 266.689 63.4587 266.233 63.6995 265.734C67.4977 257.631 63.6966 238.543 66.3625 229.495C44.7291 227.229 22.4685 215.923 1.01856 216.186C0.396236 216.198 0.199112 215.37 0.746467 215.094C13.8768 208.547 23.1491 194.855 36.0961 188.499C54.9117 205.054 79.2605 205.171 102.646 201.069C113.312 204.617 127.377 206.464 141.467 206.577L140.967 269.149C140.78 269.142 140.593 269.097 140.544 268.986Z" fill="#BDA375"/>
<path fill-rule="evenodd" clip-rule="evenodd" d="M140.885 246.307C138.499 240.374 120.23 231.236 120.3 222.388C120.37 213.71 133.896 206.511 141.467 206.572L141.149 246.42C141.022 246.419 140.918 246.385 140.885 246.307Z" fill="#AA884E"/>
<path fill-rule="evenodd" clip-rule="evenodd" d="M124.13 211.691C115.773 216.261 108.519 223.444 108.455 231.406C108.418 236.042 111.547 240.72 115.883 245.248C100.808 254.665 91.6117 249.206 78.8935 252.43C78.4851 252.537 78.0365 252.175 78.1945 251.692C80.0804 245.854 77.9886 236.129 80.9005 229.363C95.1088 227.12 110.575 217.629 123.997 211.773L124.13 211.691Z" fill="#AA884E"/>
<path fill-rule="evenodd" clip-rule="evenodd" d="M102.646 201.063C107.847 202.789 113.596 204.102 119.784 204.961C98.403 214.558 75.6258 220.356 52.5676 213.085C45.2788 210.78 39.5354 208.735 34.2202 208.225C33.6424 208.17 33.4942 207.42 33.981 207.143C38.9649 204.325 42.72 199.548 47.6299 196.344C61.9159 203.655 80.0087 205.237 102.646 201.063Z" fill="#AA884E"/>
<path fill-rule="evenodd" clip-rule="evenodd" d="M234.528 119.096C243.811 102.034 268.989 100.357 280.972 78.9611C281.29 78.3854 282.174 78.7229 282.031 79.3605C278.38 96.5942 278.296 124.985 274.286 140.36C260.969 191.574 232.49 212.156 180.378 201.684C169.657 205.062 155.553 206.684 141.474 206.571L143.028 12.127C143.276 12.1289 143.545 12.2853 143.586 12.5995C147.237 33.9333 169.087 63.5018 180.279 94.8738C187.769 65.8373 226.306 70.3468 231.618 36.1553C231.717 35.4678 232.713 35.5253 232.773 36.2141C233.747 50.8472 234.974 71.5725 235.355 92.1314C235.513 101.273 235.298 110.324 234.528 119.096Z" fill="#B49561"/>
<path fill-rule="evenodd" clip-rule="evenodd" d="M142.477 80.3203C142.725 80.3223 142.977 80.4675 143.035 80.7763C146.958 99.7721 171.394 128.238 171.171 156.127C171.08 167.568 164.174 195.888 150.162 204.521C176.6 191.34 190.123 143.888 185.894 116.35C194.05 107.346 206.628 102.375 209.676 87.57C209.808 86.9158 210.771 86.9841 210.815 87.6562C211.484 97.6504 212.267 111.313 212.516 124.883C213.099 157.414 206.848 189.897 173.943 203.417C164.311 205.619 152.893 206.668 141.468 206.577L142.477 80.3203Z" fill="#A17B3A"/>
<path fill-rule="evenodd" clip-rule="evenodd" d="M232.446 134.983C226.844 166.204 212.152 191.747 180.372 201.685C211.214 207.896 244.642 183.279 252.465 153.221C254.8 144.231 257.047 128.407 259.707 117.927C259.867 117.306 259.044 116.925 258.681 117.451C252.004 126.841 239.266 129.129 232.457 134.972L232.446 134.983Z" fill="#A17B3A"/>
<path fill-rule="evenodd" clip-rule="evenodd" d="M141.393 268.993C143.554 263.812 153.491 257.195 161.837 249.927L162.132 250.194C184.714 270.198 208.362 264.286 217.558 267.763C218.008 267.92 218.513 267.473 218.28 266.97C214.612 258.807 218.717 239.782 216.197 230.693C237.864 228.774 260.302 217.824 281.745 218.431C282.367 218.452 282.577 217.628 282.035 217.343C269.011 210.587 259.958 196.748 247.115 190.186C228.037 206.438 203.689 206.166 180.372 201.69C169.651 205.068 155.547 206.69 141.468 206.577L140.968 269.149C141.155 269.145 141.342 269.102 141.393 268.993Z" fill="#B49561"/>
<path fill-rule="evenodd" clip-rule="evenodd" d="M141.414 246.311C143.895 240.417 162.308 231.572 162.379 222.724C162.448 214.046 149.039 206.632 141.468 206.571L141.149 246.419C141.276 246.42 141.381 246.388 141.414 246.311Z" fill="#A17B3A"/>
<path fill-rule="evenodd" clip-rule="evenodd" d="M158.704 211.968C167.003 216.671 174.137 223.969 174.073 231.931C174.036 236.567 170.816 241.194 166.425 245.652C181.347 255.309 190.63 249.998 203.295 253.425C203.701 253.538 204.156 253.184 204.005 252.698C202.213 246.83 204.455 237.14 201.657 230.328C187.486 227.858 172.173 218.122 158.847 212.052L158.704 211.968Z" fill="#A17B3A"/>
<path fill-rule="evenodd" clip-rule="evenodd" d="M180.372 201.684C175.144 203.327 169.374 204.548 163.173 205.308C184.399 215.246 207.08 221.407 230.252 214.506C237.576 212.317 243.352 210.365 248.675 209.939C249.253 209.894 249.413 209.147 248.931 208.862C243.993 205.965 240.314 201.128 235.456 197.846C221.055 204.928 202.94 206.22 180.372 201.684Z" fill="#A17B3A"/>
</svg>
