<svg width="296" height="63" viewBox="0 0 296 63" fill="none" xmlns="http://www.w3.org/2000/svg">
<path d="M136.2 51.8996C136.2 52.8996 136.9 53.2996 138.2 53.2996C140.2 53.2996 142.5 52.4996 145.2 50.8996C146.1 50.3996 146.9 49.7996 147.5 49.0996C147.6 49.1996 147.7 49.2996 147.7 49.4996C147.7 49.8996 147.6 50.1996 147.5 50.2996C145.3 52.0996 142.7 53.2996 139.6 53.8996C138.8 54.0996 137.9 54.1996 136.9 54.1996C135.9 54.1996 135.1 53.8996 134.4 53.2996C133.7 52.6996 133.4 52.0996 133.4 51.3996C133.4 50.7996 133.5 50.1996 133.6 49.6996C133.7 49.1996 134 48.5996 134.3 47.7996C135.8 44.3996 138.7 40.0996 142.7 34.8996L148 28.3996L153.6 21.9996L159.1 16.0996L164.3 10.7996L168.8 6.29961C168.1 6.79961 167.4 7.29961 166.6 7.89961L164.1 9.9996L156.7 16.7996L144.5 28.3996C138.2 34.3996 131.2 41.8996 123.5 50.8996C121.8 52.8996 120.6 53.8996 120 53.8996C119.8 53.8996 119.7 53.7996 119.5 53.5996C119.3 53.3996 119.2 52.7996 119.2 51.8996C119.2 50.9996 119.5 49.5996 120.1 47.7996C120.7 45.9996 121.6 43.8996 122.7 41.6996C123.8 39.4996 125.2 36.9996 126.8 34.3996C128.4 31.7996 130.2 29.0996 132.2 26.2996C136.4 20.3996 141.1 14.5996 146.3 8.69962L143.6 11.2996L139.3 15.6996L133.2 22.0996L125.3 30.6996C115.5 41.3996 107.2 48.5996 100.4 51.9996C97.6998 53.3996 95.2998 53.9996 93.1998 53.9996C91.0998 53.9996 89.4998 53.5996 88.3998 52.7996C87.2998 51.9996 86.7998 50.8996 86.7998 49.6996C86.7998 48.6996 87.0998 48.0996 87.5998 47.5996C88.3998 46.8996 89.0998 46.5996 89.5998 46.5996C90.9998 46.5996 91.6998 47.0996 91.6998 48.1996C91.6998 48.6996 91.4998 49.0996 91.0998 49.3996C90.6998 49.6996 90.1998 49.8996 89.5998 49.8996C88.9998 49.8996 88.4998 49.7996 88.0998 49.4996V49.8996C88.0998 50.8996 88.4998 51.6996 89.3998 52.2996C90.2998 52.8996 91.3998 53.1996 92.7998 53.1996C94.1998 53.1996 95.5998 52.9996 96.8998 52.5996C98.1998 52.1996 99.6998 51.4996 101.3 50.4996C102.9 49.4996 104.8 48.2996 106.8 46.6996C108.8 45.0996 111 43.1996 113.5 40.9996C115.9 38.6996 118.7 36.0996 121.6 32.9996L131.4 22.5996C137.2 16.1996 142.2 11.1996 146.3 7.59961C149.3 4.99961 151 3.69962 151.5 3.69962C152.1 3.69962 152.4 3.7996 152.4 3.9996C152.4 4.0996 152.3 4.29961 152 4.59961L151 5.39961C149.9 6.39961 148.8 7.59962 147.7 9.19962L144 14.4996L135.1 28.2996C126.8 41.7996 122.1 49.5996 121.1 51.8996L126.8 45.3996L131.7 39.8996L136.4 34.8996L141.3 29.8996L146.8 24.4996L153.5 18.0996C163.8 8.39961 170.3 3.59961 173 3.59961C173.2 3.59961 173.3 3.69961 173.3 3.89961C173.3 4.09961 173 4.39961 172.4 4.79961C171.8 5.19961 171 5.89961 169.9 6.79961C168.8 7.79961 167.4 9.0996 165.8 10.9996C164.1 12.7996 162.4 14.7996 160.6 16.9996L155.2 23.8996L149.8 31.2996C141.6 42.7996 137.3 48.8996 136.9 49.6996C136.5 50.7996 136.2 51.4996 136.2 51.8996Z" fill="#B49561"/>
<path d="M161.1 42.0004C157.9 45.9004 156.3 49.0004 156.3 51.5004C156.3 52.6004 156.8 53.2004 157.8 53.2004C161.1 53.2004 165.9 49.5004 172.1 42.2004L175 38.8004C176.4 36.7004 177 35.2004 177 34.3004C177 32.7004 176.2 31.9004 174.6 31.9004C172.4 31.9004 169.4 33.7004 165.3 37.4004C164 38.8004 162.5 40.3004 161.1 42.0004ZM170.5 54.3004C168.2 54.3004 167.1 53.6004 167.1 52.2004C167.1 51.0004 167.8 49.6004 169.1 47.8004L171.2 45.1004L170.9 45.0004C167.1 49.7004 163.5 52.6004 160.1 53.8004C159.2 54.1004 158.4 54.3004 157.7 54.3004C154.9 54.3004 153.5 52.8004 153.5 49.8004C153.5 46.3004 154.9 43.0004 157.7 39.8004C161.8 35.0004 166 32.2004 170.1 31.3004C171.3 31.1004 172.4 30.9004 173.3 30.9004C174.2 30.9004 174.9 31.0004 175.4 31.1004C175.9 31.2004 176.4 31.4004 176.7 31.6004C177.5 32.1004 177.9 32.8004 177.9 33.5004C177.9 34.3004 177.8 35.0004 177.5 35.7004L180.8 31.6004C181.4 31.8004 182 31.9004 182.5 31.9004C183.8 31.9004 184.8 31.9004 185.4 31.8004L173.9 45.6004C171.2 48.8004 169.8 51.0004 169.8 52.3004C169.8 53.0004 170.2 53.4004 171.1 53.4004C172 53.4004 173 53.1004 174.1 52.6004C175.2 52.1004 176.3 51.4004 177.4 50.6004C178.5 49.8004 179.6 48.9004 180.6 47.9004C181.7 46.9004 182.6 45.9004 183.5 45.0004C184.4 44.0004 185.2 43.2004 185.9 42.3004L187.5 40.5004L188.2 41.1004L186.5 43.1004C180.2 50.5004 174.8 54.3004 170.5 54.3004Z" fill="#B49561"/>
<path d="M204.3 47.5008L207.3 44.5008C208.2 43.6008 209 42.7008 209.6 42.0008L211 40.4008L211.7 41.0008C211.3 41.4008 210.7 42.0008 210 42.8008L207.6 45.5008C202.1 51.3008 197.3 54.3008 193.3 54.3008C192 54.3008 191 54.0008 190.2 53.3008C189.4 52.7008 189 51.8008 189 50.8008C189 47.4008 193.9 42.4008 203.8 35.8008C199 35.0008 195.7 34.2008 193.8 33.4008C192.3 36.5008 190 39.6008 186.9 42.8008C186.2 43.5008 185.7 44.0008 185.6 44.0008C185.4 44.1008 185.3 44.1008 185.3 44.2008C185.3 44.2008 185.2 44.2008 185.2 44.0008C185.2 43.8008 185.2 43.7008 185.2 43.6008C185.2 43.5008 185.3 43.4008 185.3 43.3008C186.4 42.1008 187.4 40.9008 188.3 39.8008C190.4 37.2008 192 34.8008 193 32.8008C192.2 32.3008 191.7 31.7008 191.6 31.1008C191.5 30.5008 191.5 30.0008 191.6 29.5008C191.7 29.0008 191.9 28.5008 192.2 28.1008C192.8 27.2008 193.5 26.8008 194.2 26.8008C195.6 26.8008 196.3 27.3008 196.3 28.4008C196.3 28.9008 196.2 29.4008 196 29.7008L195.4 30.8008C195 31.3008 194.8 31.9008 194.8 32.6008C194.8 33.0008 195.7 33.4008 197.4 33.8008C199.1 34.2008 200.4 34.4008 201.1 34.5008C202.7 34.8008 203.9 35.0008 204.9 35.0008C205.5 35.0008 205.9 35.2008 205.9 35.5008C205.9 35.7008 205.5 36.1008 204.8 36.7008C204.1 37.3008 203.3 38.0008 202.4 38.8008C201.5 39.6008 200.7 40.5008 199.8 41.4008C199 42.3008 198.2 43.3008 197.4 44.2008C196.7 45.2008 196 46.1008 195.4 47.0008C194 49.0008 197 49.1008 204.3 47.5008Z" fill="#B49561"/>
<path d="M228.3 33.8006C228.3 32.5006 227.4 31.8006 225.8 31.8006C222.5 31.8006 218.3 35.2006 213.1 42.1006C210.9 45.0006 209.9 47.5006 209.9 49.9006C209.9 50.9006 210.2 51.7006 210.7 52.2006C211.7 53.1006 212.9 53.5006 214.4 53.5006C215.9 53.5006 217.5 53.2006 219.1 52.6006C220.8 52.0006 222.3 51.2006 223.7 50.3006C225.1 49.4006 226.4 48.4006 227.6 47.3006C228.8 46.2006 229.8 45.2006 230.7 44.2006C231.6 43.2006 232.2 42.4006 232.7 41.7006C233.2 41.0006 233.5 40.6006 233.6 40.5006L234.3 41.1006L233.4 42.3006C229.1 47.9006 224.4 51.6006 219.1 53.6006C217.3 54.2006 215.7 54.6006 214.1 54.6006C212.5 54.6006 211.3 54.4006 210.4 54.1006C209.5 53.8006 208.8 53.4006 208.2 52.8006C207.1 51.7006 206.5 50.3006 206.5 48.7006C206.5 45.5006 207.9 42.2006 210.7 38.8006C212.9 36.2006 215.5 34.2006 218.5 32.7006C220.9 31.6006 223.3 31.0006 225.6 31.1006C227.6 31.2006 228.9 31.9006 229.5 33.2006C230 34.5006 229.7 35.8006 228.6 36.9006C227.9 37.7006 227.1 38.1006 226.4 38.1006C224.8 38.1006 223.9 37.4006 223.9 36.1006C223.9 35.5006 224.1 34.9006 224.6 34.5006C225.1 34.1006 225.6 33.8006 226.1 33.8006C226.8 33.8006 227.5 33.9006 228.1 34.2006V33.8006H228.3Z" fill="#B49561"/>
<path d="M229.5 53.6C228.9 53.5 228.2 53.4 227.5 53.4C226.2 53.4 225.1 53.5 224.3 53.7L261.9 0C263.4 0.2 265 0.2 266.6 0L232.9 46.8L233.1 47.2C234.8 45.2 236.4 43.4 237.9 41.9L241.9 37.8C244.2 35.6 246.1 34 247.5 33C249.7 31.6 251.7 30.9 253.6 30.9C255.6 30.9 256.9 31.6 257.4 33.1C258.4 35.9 255.2 41.3 247.8 49.2L246.5 50.7C245.8 51.5 245.4 52.1 245.4 52.6C245.4 52.8 245.6 53 246.1 53.2C246.6 53.3 247.3 53.4 248.2 53.4C249.1 53.4 250.2 53.1 251.4 52.5C252.6 51.9 253.8 51.2 255 50.3C256.2 49.4 257.3 48.4 258.3 47.4C259.3 46.3 260.3 45.3 261.1 44.4C261.9 43.4 262.6 42.6 263.2 41.9C263.8 41.2 264.2 40.7 264.4 40.5L265.1 41.1C264.9 41.3 264.5 41.8 263.9 42.6C263.3 43.3 262.6 44.2 261.7 45.2C260.8 46.2 259.8 47.2 258.7 48.3C257.6 49.4 256.4 50.4 255.2 51.3C252.3 53.4 249.7 54.4 247.4 54.4C245.5 54.4 244.2 53.9 243.3 52.9C243 52.6 242.9 52.2 242.9 51.8C242.9 51.4 243 50.9 243.1 50.3C243.2 49.7 243.5 49 244 48.2C245.2 46.3 246.7 44.2 248.6 42.1C250.5 40 251.8 38.5 252.4 37.7C253 36.9 253.5 36.3 253.9 35.7C254.6 34.6 254.9 33.8 254.9 33.2C254.9 32.4 254.4 32 253.3 32C251.9 32 250.2 32.6 248.4 33.9C243.9 36.9 238.6 42.2 232.6 49.6L229.5 53.6Z" fill="#B49561"/>
<path d="M268.3 42.0004C265.1 45.9004 263.5 49.0004 263.5 51.5004C263.5 52.6004 264 53.2004 265 53.2004C268.3 53.2004 273.1 49.5004 279.3 42.2004L282.2 38.8004C283.6 36.7004 284.2 35.2004 284.2 34.3004C284.2 32.7004 283.4 31.9004 281.8 31.9004C279.6 31.9004 276.6 33.7004 272.5 37.4004C271.2 38.8004 269.8 40.3004 268.3 42.0004ZM277.7 54.3004C275.4 54.3004 274.3 53.6004 274.3 52.2004C274.3 51.0004 275 49.6004 276.3 47.8004L278.4 45.1004L278.1 45.0004C274.3 49.7004 270.7 52.6004 267.3 53.8004C266.4 54.1004 265.6 54.3004 264.9 54.3004C262.1 54.3004 260.7 52.8004 260.7 49.8004C260.7 46.3004 262.1 43.0004 264.9 39.8004C269 35.0004 273.2 32.2004 277.3 31.3004C278.5 31.1004 279.6 30.9004 280.5 30.9004C281.4 30.9004 282.1 31.0004 282.6 31.1004C283.1 31.2004 283.6 31.4004 283.9 31.6004C284.7 32.1004 285.1 32.8004 285.1 33.5004C285.1 34.3004 285 35.0004 284.7 35.7004L288 31.6004C288.6 31.8004 289.2 31.9004 289.7 31.9004C291 31.9004 292 31.9004 292.6 31.8004L281.1 45.6004C278.4 48.8004 277 51.0004 277 52.3004C277 53.0004 277.4 53.4004 278.3 53.4004C279.2 53.4004 280.2 53.1004 281.3 52.6004C282.4 52.1004 283.5 51.4004 284.6 50.6004C285.7 49.8004 286.8 48.9004 287.8 47.9004C288.9 46.9004 289.8 45.9004 290.7 45.0004C291.6 44.0004 292.4 43.2004 293.1 42.3004L294.7 40.5004L295.4 41.1004L293.7 43.1004C287.4 50.5004 282 54.3004 277.7 54.3004Z" fill="#B49561"/>
<path d="M19.3 22.6001C14.4 27.9001 11.5 28.7001 11.5 28.7001C11.5 28.7001 14.2 30.4001 18.7 29.3001C18.2 30.2001 17.8 31.2001 17.4 32.2001C17.2 32.7001 17 33.2001 16.8 33.6001C9.4 33.5001 3.2 29.7001 0 27.3001C5.4 29.7001 13.2 22.3001 19.4 17.4001C32.9 7.00006 42.8 15.1001 42.8 15.1001C37.8 12.0001 28.2 12.8001 19.3 22.6001Z" fill="#B49561"/>
<path d="M27.8 9.4996C22.3 10.2996 20.2 9.39961 20.2 9.39961C20.2 9.39961 21 11.6996 24.2 13.1996C23.5 13.4996 22.8 13.8996 22 14.2996C21.7 14.4996 21.3 14.6996 21 14.8996C16.6 11.2996 14.7 6.09961 14 3.09961C16.1 7.09961 24.3 6.3996 30.3 6.4996C43.3 6.6996 45.4 16.2996 45.4 16.2996C44 12.0996 37.8 7.9996 27.8 9.4996Z" fill="#A17A3A"/>
<path d="M18.5001 32.6006C15.2001 41.1006 11.9001 53.1006 5.1001 53.9006C9.8001 54.4006 18.4001 54.4006 25.9001 49.9006C26.1001 47.7006 26.2001 45.3006 26.3001 43.0006C22.0001 48.4006 17.3001 48.4006 17.3001 48.4006C17.3001 48.4006 19.7001 45.9006 21.4001 37.8006C24.5001 22.8006 33.5001 16.3006 40.3001 16.5006C40.4001 16.5006 25.7001 14.3006 18.5001 32.6006Z" fill="#A17A3A"/>
<path d="M27.8002 38.5008C27.3002 47.6008 27.9002 60.0008 21.7002 62.9008C26.8002 61.8008 36.1002 58.7008 41.8002 50.6008C49.0002 40.3008 40.4002 28.5008 42.0002 19.9008C40.6002 22.6008 39.3002 27.3008 39.7002 35.3008C40.4002 51.1008 31.5002 53.9008 31.5002 53.9008C31.5002 53.9008 33.0002 50.8008 32.1002 42.5008C30.3002 27.3008 36.9002 18.3008 43.4002 16.3008C43.5002 16.4008 28.9002 18.9008 27.8002 38.5008Z" fill="#B49561"/>
<path d="M70.1001 42.0996C75.0001 36.7996 77.9001 35.9996 77.9001 35.9996C77.9001 35.9996 75.2001 34.2996 70.7001 35.3996C71.2001 34.4996 71.6001 33.4996 72.0001 32.4996C72.2001 31.9996 72.4001 31.4996 72.6001 31.0996C79.9001 31.1996 86.0001 34.8996 89.3001 37.2996C83.9001 35.0996 76.2001 42.3996 70.0001 47.1996C56.5001 57.5996 46.6001 49.4996 46.6001 49.4996C51.6001 52.6996 61.2001 51.8996 70.1001 42.0996Z" fill="#B49561"/>
<path d="M61.6 55.2004C67.1 54.4004 69.2 55.3004 69.2 55.3004C69.2 55.3004 68.4 53.0004 65.2 51.5004C65.9 51.2004 66.6 50.8004 67.4 50.4004C67.7 50.2004 68.1 50.0004 68.4 49.8004C72.8 53.4004 74.7 58.6004 75.4 61.6004C73.3 57.6004 65.1 58.3004 59.1 58.2004C46.1 58.0004 44 48.4004 44 48.4004C45.4 52.6004 51.5 56.7004 61.6 55.2004Z" fill="#A17A3A"/>
<path d="M70.9001 32.1008C74.2001 23.6008 77.5001 11.6008 84.3001 10.8008C79.6001 10.3008 71.0001 10.3008 63.5001 14.8008C63.3001 17.0008 63.2001 19.4008 63.1001 21.7008C67.4001 16.3008 72.1001 16.3008 72.1001 16.3008C72.1001 16.3008 69.7001 18.8008 68.0001 26.9008C64.9001 41.9008 55.9001 48.4008 49.1001 48.2008C49.0001 48.2008 63.7001 50.4008 70.9001 32.1008Z" fill="#A17A3A"/>
<path d="M61.5999 26.2008C62.0999 17.1008 61.4999 4.70078 67.6999 1.80078C62.5999 2.90078 53.2999 6.00078 47.5999 14.1008C40.3999 24.4008 48.9999 36.2008 47.3999 44.8008C48.7999 42.1008 50.0999 37.4008 49.6999 29.4008C48.9999 13.6008 57.8999 10.8008 57.8999 10.8008C57.8999 10.8008 56.3999 13.9008 57.2999 22.2008C59.0999 37.4008 52.4999 46.4008 45.9999 48.4008C45.8999 48.3008 60.4999 45.8008 61.5999 26.2008Z" fill="#B49561"/>
</svg>
