<svg width="1318" height="423" viewBox="0 0 1318 423" fill="none" xmlns="http://www.w3.org/2000/svg">
<path d="M0.7624 330.678V320.29H47.2688V330.678H29.6383V387H18.2976V330.678H0.7624ZM69.1789 355.17H81.3773L103.963 387H90.4308L69.1789 355.17ZM55.4557 320.29H66.7011V387H55.4557V320.29ZM62.1267 330.011V320.29H76.0405C80.869 320.29 85.0622 321.148 88.6201 322.863C92.2415 324.578 95.0369 326.993 97.0065 330.106C98.976 333.155 99.9608 336.777 99.9608 340.97C99.9608 345.163 98.976 348.816 97.0065 351.93C95.0369 355.043 92.2415 357.457 88.6201 359.172C85.0622 360.888 80.869 361.745 76.0405 361.745H62.1267V352.501H75.564C78.1053 352.501 80.329 352.057 82.235 351.167C84.2045 350.278 85.7293 349.007 86.8094 347.355C87.8894 345.64 88.4295 343.607 88.4295 341.256C88.4295 338.842 87.8894 336.809 86.8094 335.157C85.7293 333.505 84.2045 332.234 82.235 331.345C80.329 330.455 78.1053 330.011 75.564 330.011H62.1267ZM120.138 369.846L122.235 360.316H153.207L155.399 369.846H120.138ZM137.578 339.159L127.095 363.651L126.905 366.129L117.661 387H104.986L137.578 316.573L170.171 387H157.496L148.442 366.701L148.157 363.937L137.578 339.159ZM177.931 320.29H189.367V387H177.931V320.29ZM199.469 387H184.888V376.422H199.183C202.487 376.422 205.536 375.945 208.332 374.992C211.127 374.039 213.542 372.61 215.575 370.704C217.671 368.798 219.291 366.415 220.435 363.556C221.642 360.697 222.246 357.393 222.246 353.645C222.246 349.897 221.642 346.593 220.435 343.734C219.291 340.875 217.671 338.492 215.575 336.586C213.542 334.68 211.127 333.251 208.332 332.298C205.536 331.345 202.487 330.868 199.183 330.868H184.888V320.29H199.469C206.267 320.29 212.239 321.688 217.385 324.483C222.531 327.215 226.534 331.091 229.393 336.11C232.316 341.065 233.777 346.91 233.777 353.645C233.777 360.38 232.316 366.256 229.393 371.275C226.534 376.231 222.531 380.107 217.385 382.902C212.239 385.634 206.267 387 199.469 387ZM244.753 320.29H256.093V387H244.753V320.29ZM264.326 330.678V320.29H310.833V330.678H293.202V387H281.862V330.678H264.326ZM319.02 320.29H330.36V387H319.02V320.29ZM353.365 353.645C353.365 358.219 354.318 362.317 356.224 365.939C358.193 369.497 360.894 372.292 364.324 374.325C367.755 376.358 371.663 377.375 376.046 377.375C380.494 377.375 384.401 376.358 387.768 374.325C391.199 372.292 393.867 369.497 395.773 365.939C397.743 362.317 398.728 358.219 398.728 353.645C398.728 349.071 397.775 345.004 395.869 341.447C393.963 337.825 391.294 334.998 387.864 332.965C384.496 330.932 380.557 329.915 376.046 329.915C371.663 329.915 367.755 330.932 364.324 332.965C360.894 334.998 358.193 337.825 356.224 341.447C354.318 345.004 353.365 349.071 353.365 353.645ZM341.452 353.645C341.452 348.626 342.31 344.02 344.026 339.826C345.741 335.633 348.155 332.012 351.268 328.962C354.445 325.849 358.13 323.435 362.323 321.719C366.58 320.004 371.154 319.146 376.046 319.146C381.065 319.146 385.672 320.004 389.865 321.719C394.058 323.435 397.711 325.849 400.824 328.962C404.001 332.012 406.447 335.633 408.162 339.826C409.878 344.02 410.736 348.626 410.736 353.645C410.736 358.601 409.878 363.207 408.162 367.463C406.447 371.72 404.033 375.405 400.92 378.518C397.807 381.631 394.122 384.077 389.865 385.856C385.672 387.572 381.065 388.43 376.046 388.43C371.091 388.43 366.485 387.572 362.228 385.856C357.971 384.077 354.286 381.631 351.173 378.518C348.123 375.405 345.741 371.72 344.026 367.463C342.31 363.207 341.452 358.601 341.452 353.645ZM470.37 320.29H481.425V390.336L432.727 342.209V387H421.672V316.954L470.37 365.081V320.29ZM504.223 369.846L506.32 360.316H537.292L539.484 369.846H504.223ZM521.663 339.159L511.18 363.651L510.99 366.129L501.746 387H489.071L521.663 316.573L554.256 387H541.581L532.527 366.701L532.242 363.937L521.663 339.159ZM562.016 320.29H573.262V376.898H599.755V387H562.016V320.29ZM629.798 330.678V320.29H676.305V330.678H658.674V387H647.333V330.678H629.798ZM688.971 356.409V346.021H736.525V356.409H688.971ZM729.283 320.29H740.528V387H729.283V320.29ZM684.492 320.29H695.737V387H684.492V320.29ZM763.413 369.846L765.51 360.316H796.482L798.674 369.846H763.413ZM780.853 339.159L770.37 363.651L770.18 366.129L760.936 387H748.261L780.853 316.573L813.446 387H800.771L791.717 366.701L791.432 363.937L780.853 339.159ZM821.206 320.29H832.547V387H821.206V320.29ZM888.411 346.402L883.837 387H872.21L881.359 316.954L908.71 362.222L936.157 316.954L945.305 387H933.679L929.009 346.402L908.71 380.805L888.411 346.402ZM964.251 369.846L966.347 360.316H997.32L999.512 369.846H964.251ZM981.691 339.159L971.208 363.651L971.017 366.129L961.773 387H949.098L981.691 316.573L1014.28 387H1001.61L992.555 366.701L992.269 363.937L981.691 339.159ZM1026.43 365.557C1027.89 368.099 1029.45 370.354 1031.1 372.324C1032.81 374.23 1034.69 375.723 1036.72 376.803C1038.75 377.819 1041.04 378.328 1043.58 378.328C1046.63 378.328 1049.11 377.502 1051.01 375.85C1052.92 374.198 1053.87 372.07 1053.87 369.465C1053.87 366.987 1053.27 365.017 1052.06 363.556C1050.86 362.031 1049.17 360.761 1047.01 359.744C1044.92 358.664 1042.47 357.616 1039.67 356.599C1038.02 356.027 1036.18 355.265 1034.15 354.312C1032.11 353.296 1030.18 352.057 1028.33 350.595C1026.49 349.071 1024.97 347.228 1023.76 345.068C1022.55 342.844 1021.95 340.176 1021.95 337.063C1021.95 333.505 1022.87 330.392 1024.71 327.723C1026.55 324.991 1029.03 322.895 1032.15 321.434C1035.32 319.909 1038.91 319.146 1042.91 319.146C1046.85 319.146 1050.28 319.845 1053.21 321.243C1056.13 322.641 1058.58 324.42 1060.54 326.58C1062.58 328.74 1064.17 330.995 1065.31 333.346L1056.16 338.492C1055.33 336.84 1054.29 335.316 1053.02 333.918C1051.75 332.457 1050.25 331.313 1048.54 330.487C1046.88 329.598 1044.95 329.153 1042.72 329.153C1039.61 329.153 1037.32 329.884 1035.86 331.345C1034.4 332.743 1033.67 334.394 1033.67 336.3C1033.67 338.016 1034.18 339.572 1035.19 340.97C1036.27 342.304 1037.93 343.575 1040.15 344.782C1042.37 345.989 1045.26 347.228 1048.82 348.499C1050.79 349.198 1052.76 350.087 1054.73 351.167C1056.76 352.247 1058.61 353.613 1060.26 355.265C1061.91 356.853 1063.21 358.728 1064.17 360.888C1065.18 363.048 1065.69 365.589 1065.69 368.512C1065.69 371.625 1065.09 374.42 1063.88 376.898C1062.67 379.376 1061.02 381.473 1058.92 383.188C1056.83 384.84 1054.45 386.111 1051.78 387C1049.17 387.953 1046.44 388.43 1043.58 388.43C1039.64 388.43 1035.99 387.667 1032.62 386.142C1029.32 384.554 1026.43 382.457 1023.95 379.852C1021.47 377.248 1019.5 374.42 1018.04 371.371L1026.43 365.557ZM1081.62 365.557C1083.08 368.099 1084.63 370.354 1086.29 372.324C1088 374.23 1089.87 375.723 1091.91 376.803C1093.94 377.819 1096.23 378.328 1098.77 378.328C1101.82 378.328 1104.3 377.502 1106.2 375.85C1108.11 374.198 1109.06 372.07 1109.06 369.465C1109.06 366.987 1108.46 365.017 1107.25 363.556C1106.04 362.031 1104.36 360.761 1102.2 359.744C1100.1 358.664 1097.66 357.616 1094.86 356.599C1093.21 356.027 1091.37 355.265 1089.33 354.312C1087.3 353.296 1085.36 352.057 1083.52 350.595C1081.68 349.071 1080.15 347.228 1078.95 345.068C1077.74 342.844 1077.14 340.176 1077.14 337.063C1077.14 333.505 1078.06 330.392 1079.9 327.723C1081.74 324.991 1084.22 322.895 1087.33 321.434C1090.51 319.909 1094.1 319.146 1098.1 319.146C1102.04 319.146 1105.47 319.845 1108.39 321.243C1111.32 322.641 1113.76 324.42 1115.73 326.58C1117.77 328.74 1119.35 330.995 1120.5 333.346L1111.35 338.492C1110.52 336.84 1109.47 335.316 1108.2 333.918C1106.93 332.457 1105.44 331.313 1103.73 330.487C1102.07 329.598 1100.14 329.153 1097.91 329.153C1094.8 329.153 1092.51 329.884 1091.05 331.345C1089.59 332.743 1088.86 334.394 1088.86 336.3C1088.86 338.016 1089.37 339.572 1090.38 340.97C1091.46 342.304 1093.12 343.575 1095.34 344.782C1097.56 345.989 1100.45 347.228 1104.01 348.499C1105.98 349.198 1107.95 350.087 1109.92 351.167C1111.95 352.247 1113.8 353.613 1115.45 355.265C1117.1 356.853 1118.4 358.728 1119.35 360.888C1120.37 363.048 1120.88 365.589 1120.88 368.512C1120.88 371.625 1120.28 374.42 1119.07 376.898C1117.86 379.376 1116.21 381.473 1114.11 383.188C1112.02 384.84 1109.63 386.111 1106.97 387C1104.36 387.953 1101.63 388.43 1098.77 388.43C1094.83 388.43 1091.18 387.667 1087.81 386.142C1084.51 384.554 1081.62 382.457 1079.14 379.852C1076.66 377.248 1074.69 374.42 1073.23 371.371L1081.62 365.557ZM1140.43 369.846L1142.52 360.316H1173.49L1175.69 369.846H1140.43ZM1157.87 339.159L1147.38 363.651L1147.19 366.129L1137.95 387H1125.27L1157.87 316.573L1190.46 387H1177.78L1168.73 366.701L1168.44 363.937L1157.87 339.159ZM1227.07 361.65V352.12H1259.18C1259.31 357.012 1258.68 361.65 1257.28 366.034C1255.88 370.354 1253.78 374.198 1250.99 377.565C1248.19 380.933 1244.7 383.601 1240.51 385.57C1236.38 387.477 1231.67 388.43 1226.4 388.43C1221.38 388.43 1216.74 387.604 1212.49 385.952C1208.23 384.236 1204.51 381.822 1201.34 378.709C1198.22 375.596 1195.81 371.911 1194.09 367.654C1192.38 363.397 1191.52 358.728 1191.52 353.645C1191.52 348.562 1192.38 343.924 1194.09 339.731C1195.87 335.474 1198.32 331.821 1201.43 328.772C1204.61 325.659 1208.33 323.276 1212.58 321.624C1216.9 319.972 1221.57 319.146 1226.59 319.146C1230.98 319.146 1234.95 319.75 1238.5 320.957C1242.06 322.101 1245.24 323.784 1248.03 326.008C1250.89 328.168 1253.31 330.805 1255.28 333.918L1246.13 340.017C1244.29 336.84 1241.71 334.299 1238.41 332.393C1235.17 330.487 1231.23 329.534 1226.59 329.534C1222.27 329.534 1218.36 330.551 1214.87 332.584C1211.38 334.553 1208.58 337.349 1206.48 340.97C1204.39 344.528 1203.34 348.753 1203.34 353.645C1203.34 358.474 1204.35 362.73 1206.39 366.415C1208.48 370.037 1211.28 372.864 1214.77 374.897C1218.27 376.93 1222.21 377.946 1226.59 377.946C1229.58 377.946 1232.25 377.534 1234.6 376.708C1236.95 375.882 1238.98 374.706 1240.7 373.181C1242.41 371.657 1243.84 369.91 1244.98 367.94C1246.13 365.97 1246.99 363.874 1247.56 361.65H1227.07ZM1277.67 387V377.089H1311.31V387H1277.67ZM1277.67 330.201V320.29H1311.31V330.201H1277.67ZM1277.67 356.123V346.402H1309.41V356.123H1277.67ZM1270.72 320.29H1281.77V387H1270.72V320.29Z" fill="white"/>
<path d="M424.764 262.92C415.804 262.92 406.937 261.8 398.164 259.56C389.39 257.507 381.364 254.147 374.084 249.48C366.804 244.813 361.017 238.84 356.724 231.56C352.43 224.28 350.284 215.507 350.284 205.24C350.284 195.533 352.244 186.2 356.164 177.24C360.084 168.28 365.124 159.88 371.284 152.04C377.63 144.2 384.164 137.2 390.884 131.04C400.404 122.453 411.23 114.147 423.364 106.12C435.497 98.0933 448.377 90.9067 462.004 84.56C475.817 78.2133 489.724 73.1733 503.724 69.44C517.724 65.7067 531.164 63.84 544.044 63.84C549.644 63.84 555.71 64.68 562.244 66.36C568.964 68.04 574.657 70.84 579.324 74.76C584.177 78.68 586.604 84.1867 586.604 91.28C586.604 97.6267 584.457 103.88 580.164 110.04C575.87 116.2 570.177 121.987 563.084 127.4C555.99 132.813 548.15 137.853 539.564 142.52C530.977 147 522.204 151.013 513.244 154.56C504.47 157.92 496.164 160.627 488.324 162.68C480.484 164.733 473.857 166.04 468.444 166.6C467.137 166.787 465.83 166.88 464.524 166.88C463.217 166.88 461.91 166.88 460.604 166.88C459.484 166.88 457.15 166.787 453.604 166.6C450.057 166.227 446.697 165.573 443.524 164.64C440.35 163.707 438.764 162.307 438.764 160.44C438.764 159.507 439.324 159.04 440.444 159.04C441.19 159.04 442.124 159.227 443.244 159.6C444.364 159.973 445.764 160.16 447.444 160.16C451.924 160.16 457.71 159.04 464.804 156.8C471.897 154.56 479.55 151.573 487.764 147.84C496.164 143.92 504.47 139.533 512.684 134.68C520.897 129.827 528.457 124.693 535.364 119.28C542.27 113.867 547.777 108.453 551.884 103.04C555.99 97.6267 558.044 92.4933 558.044 87.64C558.044 83.16 556.457 79.8933 553.284 77.84C550.11 75.6 546.377 74.1067 542.084 73.36C537.79 72.6133 534.057 72.24 530.884 72.24C519.124 72.24 506.99 74.0133 494.484 77.56C482.164 81.1067 469.937 85.96 457.804 92.12C445.857 98.0933 434.47 104.813 423.644 112.28C413.004 119.747 403.484 127.4 395.084 135.24C389.297 140.653 383.51 146.907 377.724 154C372.124 160.907 367.457 168.373 363.724 176.4C359.99 184.24 358.124 192.36 358.124 200.76C358.124 210.093 360.364 217.933 364.844 224.28C369.324 230.627 375.11 235.76 382.204 239.68C389.484 243.413 397.324 246.12 405.724 247.8C414.124 249.48 422.15 250.32 429.804 250.32C434.657 250.32 439.51 250.133 444.364 249.76C449.217 249.2 453.977 248.547 458.644 247.8C471.15 245.56 482.537 242.853 492.804 239.68C503.257 236.507 513.244 232.4 522.764 227.36C532.284 222.32 541.99 215.787 551.884 207.76C552.63 207.387 553.097 207.2 553.284 207.2C554.217 207.2 554.684 207.76 554.684 208.88C554.684 209.44 554.31 210.28 553.564 211.4C546.284 219.24 537.417 226.333 526.964 232.68C516.697 239.027 505.684 244.44 493.924 248.92C482.164 253.4 470.31 256.853 458.364 259.28C446.417 261.707 435.217 262.92 424.764 262.92ZM605.294 252.28C600.627 252.28 596.894 250.973 594.094 248.36C591.48 245.747 590.174 242.2 590.174 237.72C590.174 234.92 590.827 231.747 592.134 228.2C593.44 224.653 595.494 221.013 598.294 217.28C602.587 211.493 606.694 206.453 610.614 202.16C614.534 197.68 617.427 193.667 619.294 190.12C621.16 186.76 622.094 184.147 622.094 182.28C622.094 179.48 620.414 178.08 617.054 178.08C614.067 178.08 609.774 179.76 604.174 183.12C598.76 186.293 593.067 191.52 587.094 198.8C583.734 202.907 579.907 207.76 575.614 213.36C571.32 218.773 567.867 223.813 565.254 228.48C564.134 230.533 563.014 232.68 561.894 234.92C560.96 236.973 559.467 240.52 557.414 245.56C556.854 246.867 555.267 248.267 552.654 249.76C550.227 251.253 548.267 252 546.774 252C545.654 252 545.094 251.533 545.094 250.6C545.094 249.853 545.374 248.92 545.934 247.8C546.867 246.12 548.92 240.8 552.094 231.84C555.454 222.88 559.654 212.333 564.694 200.2C561.894 203.187 558.814 206.453 555.454 210C552.094 213.36 548.36 216.627 544.254 219.8C543.507 220.547 542.667 220.92 541.734 220.92C540.614 220.92 540.054 220.453 540.054 219.52C540.054 218.773 540.894 217.747 542.574 216.44C546.867 212.707 551.16 208.787 555.454 204.68C559.747 200.387 564.414 195.067 569.454 188.72C571.134 184.613 574.12 178.733 578.414 171.08C582.707 163.24 587.84 154.56 593.814 145.04C599.787 135.52 606.414 126 613.694 116.48C620.974 106.96 628.44 98.4667 636.094 91C643 84.28 650.187 79.1467 657.654 75.6C665.307 72.0533 672.214 70.28 678.374 70.28C683.787 70.28 688.174 71.5867 691.534 74.2C694.894 76.8133 696.574 81.0133 696.574 86.8C696.574 92.5867 694.987 98.7467 691.814 105.28C688.64 111.813 685.28 117.04 681.734 120.96C673.707 129.92 664.187 138.133 653.174 145.6C642.347 153.067 630.96 159.413 619.014 164.64C618.64 164.827 618.267 165.013 617.894 165.2C617.52 165.2 617.147 165.2 616.774 165.2C615.467 165.2 614.814 164.733 614.814 163.8C614.814 162.68 615.84 161.747 617.894 161C624.987 157.827 632.174 153.907 639.454 149.24C646.92 144.573 653.827 139.533 660.174 134.12C666.52 128.707 671.84 123.293 676.134 117.88C681.174 111.533 684.44 106.4 685.934 102.48C687.427 98.3733 688.174 94.92 688.174 92.12C688.174 88.3867 686.12 86.52 682.014 86.52C680.147 86.52 677.44 87.4533 673.894 89.32C670.347 91 666.147 93.8 661.294 97.72C653.827 103.693 646.08 110.973 638.054 119.56C630.214 128.147 622.467 137.48 614.814 147.56C607.347 157.64 600.254 167.907 593.534 178.36C586.814 188.813 580.747 198.987 575.334 208.88C577.574 205.707 579.907 202.533 582.334 199.36C584.76 196 587.187 193.013 589.614 190.4C595.214 184.24 600.72 179.76 606.134 176.96C611.547 174.16 616.4 172.76 620.694 172.76C625.547 172.76 629.467 174.253 632.454 177.24C635.44 180.04 636.934 183.867 636.934 188.72C636.934 191.333 636.467 193.947 635.534 196.56C634.787 198.987 633.854 201.227 632.734 203.28C631.24 206.453 629.28 210.187 626.854 214.48C624.427 218.773 622.094 222.787 619.854 226.52C615.56 233.427 613.414 238.373 613.414 241.36C613.414 243.04 614.16 243.88 615.654 243.88C617.52 243.88 620.6 242.573 624.894 239.96C628.254 237.907 631.987 235.293 636.094 232.12C640.387 228.76 644.587 225.307 648.694 221.76C652.987 218.213 656.627 215.133 659.614 212.52C662.787 209.72 664.84 207.853 665.774 206.92C666.894 205.8 667.734 205.24 668.294 205.24C668.854 205.24 669.134 205.52 669.134 206.08C669.134 207.013 668.48 208.32 667.174 210C662.32 215.04 656.254 220.733 648.974 227.08C641.694 233.427 633.48 239.587 624.334 245.56C620.787 247.987 617.334 249.76 613.974 250.88C610.8 251.813 607.907 252.28 605.294 252.28ZM673.143 252.28C667.357 252.28 662.877 250.507 659.703 246.96C656.53 243.227 654.943 238.467 654.943 232.68C654.943 227.267 656.343 221.293 659.143 214.76C662.13 208.227 666.797 201.6 673.143 194.88C679.677 187.787 687.797 182.093 697.503 177.8C707.21 173.32 716.45 171.08 725.223 171.08C732.317 171.08 738.383 172.667 743.423 175.84C748.463 178.827 751.823 182.653 753.503 187.32C755.557 187.32 758.077 187.88 761.063 189C764.237 190.12 765.823 192.173 765.823 195.16C765.823 197.213 764.797 199.547 762.743 202.16C761.437 204.027 759.103 206.827 755.743 210.56C752.57 214.293 749.583 218.307 746.783 222.6C744.543 225.96 742.77 229.133 741.463 232.12C740.157 234.92 739.503 237.347 739.503 239.4C739.503 242.2 740.903 243.6 743.703 243.6C746.877 243.6 751.637 241.827 757.983 238.28C764.89 234.36 771.517 229.88 777.863 224.84C784.21 219.8 789.157 215.787 792.703 212.8C793.637 212.053 794.29 211.68 794.663 211.68C795.41 211.68 795.783 212.147 795.783 213.08C795.783 214.2 795.317 215.227 794.383 216.16C792.703 217.653 789.437 220.453 784.583 224.56C779.73 228.667 774.13 232.96 767.783 237.44C761.623 241.92 755.557 245.56 749.583 248.36C746.597 249.667 743.797 250.693 741.183 251.44C738.757 252 736.517 252.28 734.463 252.28C729.423 252.28 725.597 250.88 722.983 248.08C720.37 245.093 719.063 241.267 719.063 236.6C719.063 234.733 719.343 232.773 719.903 230.72C720.463 228.667 721.117 226.613 721.863 224.56L723.823 219.8C718.97 225.773 714.117 230.813 709.263 234.92C704.41 238.84 699.557 242.293 694.703 245.28C690.597 247.707 686.677 249.48 682.943 250.6C679.397 251.72 676.13 252.28 673.143 252.28ZM681.823 245C685.183 245 690.037 243.04 696.383 239.12C702.73 235.013 710.103 228.76 718.503 220.36C719.623 219.24 721.677 217.28 724.663 214.48C727.837 211.493 731.197 208.227 734.743 204.68C738.29 200.947 741.277 197.307 743.703 193.76C746.317 190.027 747.623 186.947 747.623 184.52C747.623 180.973 744.543 179.2 738.383 179.2C732.97 179.2 726.437 181.347 718.783 185.64C711.317 189.747 704.13 195.907 697.223 204.12C690.13 212.52 684.903 219.8 681.543 225.96C678.37 231.933 676.783 236.507 676.783 239.68C676.783 243.227 678.463 245 681.823 245ZM946.756 262.92C937.796 262.92 928.929 261.8 920.156 259.56C911.383 257.507 903.356 254.147 896.076 249.48C888.796 244.813 883.009 238.84 878.716 231.56C874.423 224.28 872.276 215.507 872.276 205.24C872.276 195.533 874.236 186.2 878.156 177.24C882.076 168.28 887.116 159.88 893.276 152.04C899.623 144.2 906.156 137.2 912.876 131.04C922.396 122.453 933.223 114.147 945.356 106.12C957.489 98.0933 970.369 90.9067 983.996 84.56C997.809 78.2133 1011.72 73.1733 1025.72 69.44C1039.72 65.7067 1053.16 63.84 1066.04 63.84C1071.64 63.84 1077.7 64.68 1084.24 66.36C1090.96 68.04 1096.65 70.84 1101.32 74.76C1106.17 78.68 1108.6 84.1867 1108.6 91.28C1108.6 97.6267 1106.45 103.88 1102.16 110.04C1097.86 116.2 1092.17 121.987 1085.08 127.4C1077.98 132.813 1070.14 137.853 1061.56 142.52C1052.97 147 1044.2 151.013 1035.24 154.56C1026.46 157.92 1018.16 160.627 1010.32 162.68C1002.48 164.733 995.849 166.04 990.436 166.6C989.129 166.787 987.823 166.88 986.516 166.88C985.209 166.88 983.903 166.88 982.596 166.88C981.476 166.88 979.143 166.787 975.596 166.6C972.049 166.227 968.689 165.573 965.516 164.64C962.343 163.707 960.756 162.307 960.756 160.44C960.756 159.507 961.316 159.04 962.436 159.04C963.183 159.04 964.116 159.227 965.236 159.6C966.356 159.973 967.756 160.16 969.436 160.16C973.916 160.16 979.703 159.04 986.796 156.8C993.889 154.56 1001.54 151.573 1009.76 147.84C1018.16 143.92 1026.46 139.533 1034.68 134.68C1042.89 129.827 1050.45 124.693 1057.36 119.28C1064.26 113.867 1069.77 108.453 1073.88 103.04C1077.98 97.6267 1080.04 92.4933 1080.04 87.64C1080.04 83.16 1078.45 79.8933 1075.28 77.84C1072.1 75.6 1068.37 74.1067 1064.08 73.36C1059.78 72.6133 1056.05 72.24 1052.88 72.24C1041.12 72.24 1028.98 74.0133 1016.48 77.56C1004.16 81.1067 991.929 85.96 979.796 92.12C967.849 98.0933 956.463 104.813 945.636 112.28C934.996 119.747 925.476 127.4 917.076 135.24C911.289 140.653 905.503 146.907 899.716 154C894.116 160.907 889.449 168.373 885.716 176.4C881.983 184.24 880.116 192.36 880.116 200.76C880.116 210.093 882.356 217.933 886.836 224.28C891.316 230.627 897.103 235.76 904.196 239.68C911.476 243.413 919.316 246.12 927.716 247.8C936.116 249.48 944.143 250.32 951.796 250.32C956.649 250.32 961.503 250.133 966.356 249.76C971.209 249.2 975.969 248.547 980.636 247.8C993.143 245.56 1004.53 242.853 1014.8 239.68C1025.25 236.507 1035.24 232.4 1044.76 227.36C1054.28 222.32 1063.98 215.787 1073.88 207.76C1074.62 207.387 1075.09 207.2 1075.28 207.2C1076.21 207.2 1076.68 207.76 1076.68 208.88C1076.68 209.44 1076.3 210.28 1075.56 211.4C1068.28 219.24 1059.41 226.333 1048.96 232.68C1038.69 239.027 1027.68 244.44 1015.92 248.92C1004.16 253.4 992.303 256.853 980.356 259.28C968.409 261.707 957.209 262.92 946.756 262.92ZM1127.29 252.28C1122.62 252.28 1118.89 250.973 1116.09 248.36C1113.47 245.747 1112.17 242.2 1112.17 237.72C1112.17 234.92 1112.82 231.747 1114.13 228.2C1115.43 224.653 1117.49 221.013 1120.29 217.28C1124.58 211.493 1128.69 206.453 1132.61 202.16C1136.53 197.68 1139.42 193.667 1141.29 190.12C1143.15 186.76 1144.09 184.147 1144.09 182.28C1144.09 179.48 1142.41 178.08 1139.05 178.08C1136.06 178.08 1131.77 179.76 1126.17 183.12C1120.75 186.293 1115.06 191.52 1109.09 198.8C1105.73 202.907 1101.9 207.76 1097.61 213.36C1093.31 218.773 1089.86 223.813 1087.25 228.48C1086.13 230.533 1085.01 232.68 1083.89 234.92C1082.95 236.973 1081.46 240.52 1079.41 245.56C1078.85 246.867 1077.26 248.267 1074.65 249.76C1072.22 251.253 1070.26 252 1068.77 252C1067.65 252 1067.09 251.533 1067.09 250.6C1067.09 249.853 1067.37 248.92 1067.93 247.8C1068.86 246.12 1070.91 240.8 1074.09 231.84C1077.45 222.88 1081.65 212.333 1086.69 200.2C1083.89 203.187 1080.81 206.453 1077.45 210C1074.09 213.36 1070.35 216.627 1066.25 219.8C1065.5 220.547 1064.66 220.92 1063.73 220.92C1062.61 220.92 1062.05 220.453 1062.05 219.52C1062.05 218.773 1062.89 217.747 1064.57 216.44C1068.86 212.707 1073.15 208.787 1077.45 204.68C1081.74 200.387 1086.41 195.067 1091.45 188.72C1093.13 184.613 1096.11 178.733 1100.41 171.08C1104.7 163.24 1109.83 154.56 1115.81 145.04C1121.78 135.52 1128.41 126 1135.69 116.48C1142.97 106.96 1150.43 98.4667 1158.09 91C1164.99 84.28 1172.18 79.1467 1179.65 75.6C1187.3 72.0533 1194.21 70.28 1200.37 70.28C1205.78 70.28 1210.17 71.5867 1213.53 74.2C1216.89 76.8133 1218.57 81.0133 1218.57 86.8C1218.57 92.5867 1216.98 98.7467 1213.81 105.28C1210.63 111.813 1207.27 117.04 1203.73 120.96C1195.7 129.92 1186.18 138.133 1175.17 145.6C1164.34 153.067 1152.95 159.413 1141.01 164.64C1140.63 164.827 1140.26 165.013 1139.89 165.2C1139.51 165.2 1139.14 165.2 1138.77 165.2C1137.46 165.2 1136.81 164.733 1136.81 163.8C1136.81 162.68 1137.83 161.747 1139.89 161C1146.98 157.827 1154.17 153.907 1161.45 149.24C1168.91 144.573 1175.82 139.533 1182.17 134.12C1188.51 128.707 1193.83 123.293 1198.13 117.88C1203.17 111.533 1206.43 106.4 1207.93 102.48C1209.42 98.3733 1210.17 94.92 1210.17 92.12C1210.17 88.3867 1208.11 86.52 1204.01 86.52C1202.14 86.52 1199.43 87.4533 1195.89 89.32C1192.34 91 1188.14 93.8 1183.29 97.72C1175.82 103.693 1168.07 110.973 1160.05 119.56C1152.21 128.147 1144.46 137.48 1136.81 147.56C1129.34 157.64 1122.25 167.907 1115.53 178.36C1108.81 188.813 1102.74 198.987 1097.33 208.88C1099.57 205.707 1101.9 202.533 1104.33 199.36C1106.75 196 1109.18 193.013 1111.61 190.4C1117.21 184.24 1122.71 179.76 1128.13 176.96C1133.54 174.16 1138.39 172.76 1142.69 172.76C1147.54 172.76 1151.46 174.253 1154.45 177.24C1157.43 180.04 1158.93 183.867 1158.93 188.72C1158.93 191.333 1158.46 193.947 1157.53 196.56C1156.78 198.987 1155.85 201.227 1154.73 203.28C1153.23 206.453 1151.27 210.187 1148.85 214.48C1146.42 218.773 1144.09 222.787 1141.85 226.52C1137.55 233.427 1135.41 238.373 1135.41 241.36C1135.41 243.04 1136.15 243.88 1137.65 243.88C1139.51 243.88 1142.59 242.573 1146.89 239.96C1150.25 237.907 1153.98 235.293 1158.09 232.12C1162.38 228.76 1166.58 225.307 1170.69 221.76C1174.98 218.213 1178.62 215.133 1181.61 212.52C1184.78 209.72 1186.83 207.853 1187.77 206.92C1188.89 205.8 1189.73 205.24 1190.29 205.24C1190.85 205.24 1191.13 205.52 1191.13 206.08C1191.13 207.013 1190.47 208.32 1189.17 210C1184.31 215.04 1178.25 220.733 1170.97 227.08C1163.69 233.427 1155.47 239.587 1146.33 245.56C1142.78 247.987 1139.33 249.76 1135.97 250.88C1132.79 251.813 1129.9 252.28 1127.29 252.28ZM1195.14 252.28C1189.35 252.28 1184.87 250.507 1181.7 246.96C1178.52 243.227 1176.94 238.467 1176.94 232.68C1176.94 227.267 1178.34 221.293 1181.14 214.76C1184.12 208.227 1188.79 201.6 1195.14 194.88C1201.67 187.787 1209.79 182.093 1219.5 177.8C1229.2 173.32 1238.44 171.08 1247.22 171.08C1254.31 171.08 1260.38 172.667 1265.42 175.84C1270.46 178.827 1273.82 182.653 1275.5 187.32C1277.55 187.32 1280.07 187.88 1283.06 189C1286.23 190.12 1287.82 192.173 1287.82 195.16C1287.82 197.213 1286.79 199.547 1284.74 202.16C1283.43 204.027 1281.1 206.827 1277.74 210.56C1274.56 214.293 1271.58 218.307 1268.78 222.6C1266.54 225.96 1264.76 229.133 1263.46 232.12C1262.15 234.92 1261.5 237.347 1261.5 239.4C1261.5 242.2 1262.9 243.6 1265.7 243.6C1268.87 243.6 1273.63 241.827 1279.98 238.28C1286.88 234.36 1293.51 229.88 1299.86 224.84C1306.2 219.8 1311.15 215.787 1314.7 212.8C1315.63 212.053 1316.28 211.68 1316.66 211.68C1317.4 211.68 1317.78 212.147 1317.78 213.08C1317.78 214.2 1317.31 215.227 1316.38 216.16C1314.7 217.653 1311.43 220.453 1306.58 224.56C1301.72 228.667 1296.12 232.96 1289.78 237.44C1283.62 241.92 1277.55 245.56 1271.58 248.36C1268.59 249.667 1265.79 250.693 1263.18 251.44C1260.75 252 1258.51 252.28 1256.46 252.28C1251.42 252.28 1247.59 250.88 1244.98 248.08C1242.36 245.093 1241.06 241.267 1241.06 236.6C1241.06 234.733 1241.34 232.773 1241.9 230.72C1242.46 228.667 1243.11 226.613 1243.86 224.56L1245.82 219.8C1240.96 225.773 1236.11 230.813 1231.26 234.92C1226.4 238.84 1221.55 242.293 1216.7 245.28C1212.59 247.707 1208.67 249.48 1204.94 250.6C1201.39 251.72 1198.12 252.28 1195.14 252.28ZM1203.82 245C1207.18 245 1212.03 243.04 1218.38 239.12C1224.72 235.013 1232.1 228.76 1240.5 220.36C1241.62 219.24 1243.67 217.28 1246.66 214.48C1249.83 211.493 1253.19 208.227 1256.74 204.68C1260.28 200.947 1263.27 197.307 1265.7 193.76C1268.31 190.027 1269.62 186.947 1269.62 184.52C1269.62 180.973 1266.54 179.2 1260.38 179.2C1254.96 179.2 1248.43 181.347 1240.78 185.64C1233.31 189.747 1226.12 195.907 1219.22 204.12C1212.12 212.52 1206.9 219.8 1203.54 225.96C1200.36 231.933 1198.78 236.507 1198.78 239.68C1198.78 243.227 1200.46 245 1203.82 245Z" fill="white"/>
<path fill-rule="evenodd" clip-rule="evenodd" d="M65.8183 117.619C56.8096 100.41 31.6615 98.3315 20.0336 76.7466C19.7078 76.1659 18.8187 76.4891 18.9512 77.129C22.3262 94.4189 21.956 122.807 25.7202 138.245C31.2383 160.904 39.7825 177.663 52.0856 188.499C39.144 194.86 29.8716 208.552 16.7359 215.093C16.1885 215.37 16.3967 216.198 17.008 216.186C38.4579 215.922 60.7185 227.229 82.352 229.494C79.6862 238.526 83.4871 257.631 79.6889 265.734C79.4482 266.233 79.9456 266.688 80.3983 266.538C89.6484 263.209 113.199 269.498 136.098 249.858L136.397 249.596C144.642 256.98 154.456 263.771 156.55 268.986C156.626 269.19 157.298 269.195 157.376 268.992C159.543 263.811 169.475 257.178 177.82 249.927L178.115 250.194C200.697 270.198 224.346 264.286 233.541 267.762C233.991 267.92 234.496 267.472 234.28 266.97C230.617 258.807 234.701 239.765 232.197 230.692C253.864 228.773 276.286 217.824 297.729 218.43C298.351 218.452 298.561 217.627 298.018 217.342C284.994 210.586 275.942 196.748 263.098 190.186C275.578 179.548 284.406 162.934 290.28 140.36C294.274 124.985 294.374 96.5939 298.025 79.3602C298.157 78.7225 297.268 78.385 296.949 78.9606C284.961 100.357 259.789 102.028 250.517 119.095C251.275 110.329 251.485 101.278 251.327 92.1309C250.946 71.572 249.725 50.8468 248.746 36.1971C248.702 35.525 247.705 35.473 247.59 36.1549C242.273 70.3408 203.757 65.8369 196.251 94.8733C185.059 63.5013 163.209 33.9384 159.575 12.5991C159.453 11.9759 158.55 11.9687 158.435 12.59C154.443 33.8628 132.118 63.0781 120.431 94.2671C113.407 65.1145 74.8192 69.0075 70.0382 34.7353C69.9501 34.0463 68.9531 34.0879 68.8816 34.7591C67.6744 49.3912 66.1157 70.0888 65.4228 90.6445C65.1184 99.7884 65.2002 108.842 65.8183 117.619Z" fill="#BDA375"/>
<path fill-rule="evenodd" clip-rule="evenodd" d="M158.477 80.3212C158.23 80.3192 157.975 80.4603 157.912 80.7682C153.686 99.6988 128.787 127.77 128.564 155.659C128.472 167.101 134.941 195.527 148.807 204.383C122.584 190.781 109.821 143.119 114.49 115.652C106.479 106.518 93.9821 101.347 91.1714 86.4955C91.05 85.8393 90.086 85.8921 90.031 86.5635C89.2023 96.5457 88.2012 110.194 87.7348 123.758C86.6323 156.276 92.3629 188.855 125.047 202.899C134.643 205.255 146.043 206.486 157.468 206.577L158.477 80.3212Z" fill="#AA884E"/>
<path fill-rule="evenodd" clip-rule="evenodd" d="M67.6295 133.537C72.7315 164.843 87.0296 190.618 118.647 201.063C87.7099 206.78 54.6791 181.632 47.3379 151.452C45.1469 142.426 43.1537 126.568 40.6608 116.047C40.5116 115.424 41.3405 115.056 41.6942 115.587C48.2206 125.083 60.9207 127.575 67.6186 133.526L67.6295 133.537Z" fill="#AA884E"/>
<path fill-rule="evenodd" clip-rule="evenodd" d="M156.544 268.986C154.466 263.771 144.636 256.997 136.408 249.596L136.108 249.858C113.21 269.499 89.6589 263.209 80.4089 266.538C79.9562 266.689 79.4587 266.233 79.6995 265.734C83.4977 257.631 79.6966 238.543 82.3625 229.495C60.7291 227.229 38.4685 215.923 17.0186 216.186C16.3962 216.198 16.1991 215.37 16.7465 215.094C29.8768 208.547 39.1491 194.855 52.0961 188.499C70.9117 205.054 95.2605 205.171 118.646 201.069C129.312 204.617 143.377 206.464 157.467 206.577L156.967 269.149C156.78 269.142 156.593 269.097 156.544 268.986Z" fill="#BDA375"/>
<path fill-rule="evenodd" clip-rule="evenodd" d="M156.885 246.307C154.499 240.374 136.23 231.236 136.3 222.388C136.37 213.71 149.896 206.511 157.467 206.572L157.149 246.42C157.022 246.419 156.918 246.385 156.885 246.307Z" fill="#AA884E"/>
<path fill-rule="evenodd" clip-rule="evenodd" d="M140.13 211.691C131.773 216.261 124.519 223.444 124.455 231.406C124.418 236.042 127.547 240.72 131.883 245.248C116.808 254.665 107.612 249.206 94.8935 252.43C94.4851 252.537 94.0365 252.175 94.1945 251.692C96.0804 245.854 93.9886 236.129 96.9005 229.363C111.109 227.12 126.575 217.629 139.997 211.773L140.13 211.691Z" fill="#AA884E"/>
<path fill-rule="evenodd" clip-rule="evenodd" d="M118.646 201.063C123.847 202.789 129.596 204.102 135.784 204.961C114.403 214.558 91.6258 220.356 68.5676 213.085C61.2788 210.78 55.5354 208.735 50.2202 208.225C49.6424 208.17 49.4942 207.42 49.981 207.143C54.9649 204.325 58.72 199.548 63.6299 196.344C77.9159 203.655 96.0087 205.237 118.646 201.063Z" fill="#AA884E"/>
<path fill-rule="evenodd" clip-rule="evenodd" d="M250.528 119.096C259.811 102.034 284.989 100.357 296.972 78.9611C297.29 78.3854 298.174 78.7229 298.031 79.3605C294.38 96.5942 294.296 124.985 290.286 140.36C276.969 191.574 248.49 212.156 196.378 201.684C185.657 205.062 171.553 206.684 157.474 206.571L159.028 12.127C159.276 12.1289 159.545 12.2853 159.586 12.5995C163.237 33.9333 185.087 63.5018 196.279 94.8738C203.769 65.8373 242.306 70.3468 247.618 36.1553C247.717 35.4678 248.713 35.5253 248.773 36.2141C249.747 50.8472 250.974 71.5725 251.355 92.1314C251.513 101.273 251.298 110.324 250.528 119.096Z" fill="#B49561"/>
<path fill-rule="evenodd" clip-rule="evenodd" d="M158.477 80.3203C158.725 80.3223 158.977 80.4675 159.035 80.7763C162.958 99.7721 187.394 128.238 187.171 156.127C187.08 167.568 180.174 195.888 166.162 204.521C192.6 191.34 206.123 143.888 201.894 116.35C210.05 107.346 222.628 102.375 225.676 87.57C225.808 86.9158 226.771 86.9841 226.815 87.6562C227.484 97.6504 228.267 111.313 228.516 124.883C229.099 157.414 222.848 189.897 189.943 203.417C180.311 205.619 168.893 206.668 157.468 206.577L158.477 80.3203Z" fill="#A17B3A"/>
<path fill-rule="evenodd" clip-rule="evenodd" d="M248.446 134.983C242.844 166.204 228.152 191.747 196.372 201.685C227.214 207.896 260.642 183.279 268.465 153.221C270.8 144.231 273.047 128.407 275.707 117.927C275.867 117.306 275.044 116.925 274.681 117.451C268.004 126.841 255.266 129.129 248.457 134.972L248.446 134.983Z" fill="#A17B3A"/>
<path fill-rule="evenodd" clip-rule="evenodd" d="M157.393 268.993C159.554 263.812 169.491 257.195 177.837 249.927L178.132 250.194C200.714 270.198 224.362 264.286 233.558 267.763C234.008 267.92 234.513 267.473 234.28 266.97C230.612 258.807 234.717 239.782 232.197 230.693C253.864 228.774 276.302 217.824 297.745 218.431C298.367 218.452 298.577 217.628 298.035 217.343C285.011 210.587 275.958 196.748 263.115 190.186C244.037 206.438 219.689 206.166 196.372 201.69C185.651 205.068 171.547 206.69 157.468 206.577L156.968 269.149C157.155 269.145 157.342 269.102 157.393 268.993Z" fill="#B49561"/>
<path fill-rule="evenodd" clip-rule="evenodd" d="M157.414 246.311C159.895 240.417 178.308 231.572 178.379 222.724C178.448 214.046 165.039 206.632 157.468 206.571L157.149 246.419C157.276 246.42 157.381 246.388 157.414 246.311Z" fill="#A17B3A"/>
<path fill-rule="evenodd" clip-rule="evenodd" d="M174.704 211.968C183.003 216.671 190.137 223.969 190.073 231.931C190.036 236.567 186.816 241.194 182.425 245.652C197.347 255.309 206.63 249.998 219.295 253.425C219.701 253.538 220.156 253.184 220.005 252.698C218.213 246.83 220.455 237.14 217.657 230.328C203.486 227.858 188.173 218.122 174.847 212.052L174.704 211.968Z" fill="#A17B3A"/>
<path fill-rule="evenodd" clip-rule="evenodd" d="M196.372 201.684C191.144 203.327 185.374 204.548 179.173 205.308C200.399 215.246 223.08 221.407 246.252 214.506C253.576 212.317 259.352 210.365 264.675 209.939C265.253 209.894 265.413 209.147 264.931 208.862C259.993 205.965 256.314 201.128 251.456 197.846C237.055 204.928 218.94 206.22 196.372 201.684Z" fill="#A17B3A"/>
</svg>
